<svg width="653" height="93" viewBox="0 0 653 93" fill="none" xmlns="http://www.w3.org/2000/svg">
<path d="M375 32.7539H357.443L350.785 41.4961H375V50.2822H344.911L338.253 59.0244H375V71H323V20H375V32.7539Z" fill="white"/>
<path d="M260.267 33.3352C260.097 31.4602 259.338 30.0028 257.991 28.9631C256.662 27.9063 254.761 27.3778 252.29 27.3778C250.653 27.3778 249.29 27.5909 248.199 28.017C247.108 28.4432 246.29 29.0313 245.744 29.7812C245.199 30.5142 244.918 31.358 244.901 32.3125C244.866 33.0966 245.02 33.7869 245.361 34.3835C245.719 34.9801 246.23 35.5085 246.895 35.9688C247.577 36.4119 248.395 36.804 249.349 37.1449C250.304 37.4858 251.378 37.7841 252.571 38.0398L257.071 39.0625C259.662 39.625 261.946 40.375 263.923 41.3125C265.918 42.25 267.588 43.3665 268.935 44.6619C270.298 45.9574 271.33 47.4489 272.028 49.1364C272.727 50.8239 273.085 52.7159 273.102 54.8125C273.085 58.1193 272.25 60.9574 270.597 63.3267C268.943 65.696 266.565 67.5114 263.463 68.7727C260.378 70.0341 256.653 70.6648 252.29 70.6648C247.909 70.6648 244.091 70.0085 240.835 68.696C237.58 67.3835 235.048 65.3892 233.241 62.7131C231.435 60.0369 230.506 56.6534 230.455 52.5625H242.574C242.676 54.25 243.128 55.6562 243.929 56.7812C244.73 57.9062 245.83 58.7585 247.227 59.3381C248.642 59.9176 250.278 60.2074 252.136 60.2074C253.841 60.2074 255.29 59.9773 256.483 59.517C257.693 59.0568 258.622 58.4176 259.27 57.5994C259.918 56.7812 260.25 55.8437 260.267 54.7869C260.25 53.7983 259.943 52.9545 259.347 52.2557C258.75 51.5398 257.83 50.9261 256.585 50.4148C255.358 49.8864 253.79 49.4006 251.881 48.9574L246.409 47.679C241.875 46.6392 238.304 44.9602 235.696 42.642C233.088 40.3068 231.793 37.1534 231.81 33.1818C231.793 29.9432 232.662 27.1051 234.418 24.6676C236.173 22.2301 238.602 20.3295 241.705 18.9659C244.807 17.6023 248.344 16.9205 252.315 16.9205C256.372 16.9205 259.892 17.6108 262.875 18.9915C265.875 20.3551 268.202 22.2727 269.855 24.7443C271.509 27.2159 272.352 30.0795 272.386 33.3352H260.267Z" fill="white"/>
<path d="M237.722 9.20312V8.63636H241.099V9.20312H239.738V13H239.082V9.20312H237.722ZM241.846 13V8.63636H244.581V9.20312H242.504V10.5327H244.439V11.0973H242.504V12.4332H244.607V13H241.846ZM249.085 10.0554H248.42C248.395 9.91335 248.347 9.78835 248.278 9.6804C248.208 9.57244 248.123 9.48082 248.022 9.40554C247.921 9.33026 247.808 9.27344 247.683 9.23509C247.56 9.19673 247.428 9.17756 247.289 9.17756C247.038 9.17756 246.812 9.24077 246.614 9.36719C246.416 9.49361 246.26 9.67898 246.145 9.9233C246.031 10.1676 245.974 10.4659 245.974 10.8182C245.974 11.1733 246.031 11.473 246.145 11.7173C246.26 11.9616 246.417 12.1463 246.616 12.2713C246.815 12.3963 247.038 12.4588 247.287 12.4588C247.425 12.4588 247.555 12.4403 247.679 12.4034C247.804 12.3651 247.917 12.3089 248.018 12.2351C248.119 12.1612 248.204 12.071 248.273 11.9645C248.344 11.8565 248.393 11.733 248.42 11.5938L249.085 11.5959C249.05 11.8104 248.981 12.0078 248.878 12.1882C248.778 12.3672 248.648 12.522 248.489 12.6527C248.331 12.782 248.15 12.8821 247.947 12.9531C247.744 13.0241 247.523 13.0597 247.283 13.0597C246.905 13.0597 246.568 12.9702 246.273 12.7912C245.977 12.6108 245.744 12.353 245.574 12.0178C245.405 11.6825 245.32 11.2827 245.32 10.8182C245.32 10.3523 245.405 9.95241 245.576 9.61861C245.746 9.28338 245.979 9.02628 246.275 8.8473C246.57 8.6669 246.906 8.5767 247.283 8.5767C247.514 8.5767 247.73 8.61009 247.93 8.67685C248.132 8.74219 248.313 8.83878 248.474 8.96662C248.634 9.09304 248.767 9.24787 248.872 9.43111C248.977 9.61293 249.048 9.82102 249.085 10.0554ZM249.873 13V8.63636H250.531V10.5327H252.707V8.63636H253.367V13H252.707V11.0973H250.531V13H249.873ZM257.848 8.63636V13H257.243L255.025 9.79972H254.984V13H254.326V8.63636H254.935L257.156 11.8409H257.196V8.63636H257.848ZM262.599 10.8182C262.599 11.2841 262.514 11.6847 262.343 12.0199C262.173 12.3537 261.939 12.6108 261.642 12.7912C261.347 12.9702 261.011 13.0597 260.634 13.0597C260.257 13.0597 259.919 12.9702 259.622 12.7912C259.327 12.6108 259.094 12.353 258.924 12.0178C258.753 11.6825 258.668 11.2827 258.668 10.8182C258.668 10.3523 258.753 9.95241 258.924 9.61861C259.094 9.28338 259.327 9.02628 259.622 8.8473C259.919 8.6669 260.257 8.5767 260.634 8.5767C261.011 8.5767 261.347 8.6669 261.642 8.8473C261.939 9.02628 262.173 9.28338 262.343 9.61861C262.514 9.95241 262.599 10.3523 262.599 10.8182ZM261.947 10.8182C261.947 10.4631 261.889 10.1641 261.774 9.92116C261.661 9.67685 261.505 9.49219 261.306 9.36719C261.108 9.24077 260.884 9.17756 260.634 9.17756C260.383 9.17756 260.159 9.24077 259.961 9.36719C259.764 9.49219 259.608 9.67685 259.492 9.92116C259.379 10.1641 259.322 10.4631 259.322 10.8182C259.322 11.1733 259.379 11.473 259.492 11.7173C259.608 11.9602 259.764 12.1449 259.961 12.2713C260.159 12.3963 260.383 12.4588 260.634 12.4588C260.884 12.4588 261.108 12.3963 261.306 12.2713C261.505 12.1449 261.661 11.9602 261.774 11.7173C261.889 11.473 261.947 11.1733 261.947 10.8182ZM263.42 13V8.63636H264.078V12.4332H266.055V13H263.42ZM270.427 10.8182C270.427 11.2841 270.342 11.6847 270.171 12.0199C270.001 12.3537 269.767 12.6108 269.47 12.7912C269.175 12.9702 268.839 13.0597 268.463 13.0597C268.085 13.0597 267.747 12.9702 267.451 12.7912C267.155 12.6108 266.922 12.353 266.752 12.0178C266.581 11.6825 266.496 11.2827 266.496 10.8182C266.496 10.3523 266.581 9.95241 266.752 9.61861C266.922 9.28338 267.155 9.02628 267.451 8.8473C267.747 8.6669 268.085 8.5767 268.463 8.5767C268.839 8.5767 269.175 8.6669 269.47 8.8473C269.767 9.02628 270.001 9.28338 270.171 9.61861C270.342 9.95241 270.427 10.3523 270.427 10.8182ZM269.775 10.8182C269.775 10.4631 269.718 10.1641 269.603 9.92116C269.489 9.67685 269.333 9.49219 269.134 9.36719C268.936 9.24077 268.713 9.17756 268.463 9.17756C268.211 9.17756 267.987 9.24077 267.789 9.36719C267.592 9.49219 267.436 9.67685 267.321 9.92116C267.207 10.1641 267.15 10.4631 267.15 10.8182C267.15 11.1733 267.207 11.473 267.321 11.7173C267.436 11.9602 267.592 12.1449 267.789 12.2713C267.987 12.3963 268.211 12.4588 268.463 12.4588C268.713 12.4588 268.936 12.3963 269.134 12.2713C269.333 12.1449 269.489 11.9602 269.603 11.7173C269.718 11.473 269.775 11.1733 269.775 10.8182ZM274.201 10.0149C274.16 9.88565 274.104 9.76989 274.035 9.66761C273.967 9.56392 273.885 9.47585 273.79 9.40341C273.695 9.32955 273.586 9.27344 273.464 9.23509C273.343 9.19673 273.21 9.17756 273.065 9.17756C272.82 9.17756 272.598 9.24077 272.401 9.36719C272.203 9.49361 272.047 9.67898 271.932 9.9233C271.818 10.1662 271.761 10.4638 271.761 10.8161C271.761 11.1697 271.819 11.4687 271.934 11.7131C272.049 11.9574 272.207 12.1428 272.407 12.2692C272.607 12.3956 272.835 12.4588 273.091 12.4588C273.328 12.4588 273.535 12.4105 273.711 12.3139C273.889 12.2173 274.026 12.081 274.122 11.9048C274.22 11.7273 274.269 11.5185 274.269 11.2784L274.44 11.3104H273.191V10.767H274.906V11.2635C274.906 11.63 274.828 11.9482 274.672 12.218C274.517 12.4865 274.303 12.6939 274.028 12.8402C273.756 12.9865 273.443 13.0597 273.091 13.0597C272.696 13.0597 272.35 12.9688 272.051 12.7869C271.754 12.6051 271.523 12.3473 271.357 12.0135C271.19 11.6783 271.107 11.2805 271.107 10.8203C271.107 10.4723 271.156 10.1598 271.252 9.88281C271.349 9.60582 271.484 9.37074 271.659 9.17756C271.835 8.98295 272.042 8.83452 272.279 8.73224C272.518 8.62855 272.778 8.5767 273.061 8.5767C273.297 8.5767 273.516 8.61151 273.72 8.68111C273.924 8.75071 274.106 8.84943 274.265 8.97727C274.426 9.10511 274.558 9.2571 274.663 9.43324C274.769 9.60795 274.84 9.80185 274.877 10.0149H274.201ZM276.4 8.63636V13H275.742V8.63636H276.4ZM280.984 10.0554H280.319C280.293 9.91335 280.246 9.78835 280.176 9.6804C280.106 9.57244 280.021 9.48082 279.92 9.40554C279.82 9.33026 279.707 9.27344 279.582 9.23509C279.458 9.19673 279.327 9.17756 279.187 9.17756C278.936 9.17756 278.711 9.24077 278.512 9.36719C278.315 9.49361 278.158 9.67898 278.043 9.9233C277.93 10.1676 277.873 10.4659 277.873 10.8182C277.873 11.1733 277.93 11.473 278.043 11.7173C278.158 11.9616 278.315 12.1463 278.514 12.2713C278.713 12.3963 278.937 12.4588 279.185 12.4588C279.323 12.4588 279.454 12.4403 279.577 12.4034C279.702 12.3651 279.815 12.3089 279.916 12.2351C280.017 12.1612 280.102 12.071 280.172 11.9645C280.243 11.8565 280.292 11.733 280.319 11.5938L280.984 11.5959C280.948 11.8104 280.879 12.0078 280.777 12.1882C280.676 12.3672 280.546 12.522 280.387 12.6527C280.229 12.782 280.049 12.8821 279.846 12.9531C279.643 13.0241 279.421 13.0597 279.181 13.0597C278.803 13.0597 278.467 12.9702 278.171 12.7912C277.876 12.6108 277.643 12.353 277.472 12.0178C277.303 11.6825 277.219 11.2827 277.219 10.8182C277.219 10.3523 277.304 9.95241 277.474 9.61861C277.645 9.28338 277.878 9.02628 278.173 8.8473C278.469 8.6669 278.805 8.5767 279.181 8.5767C279.413 8.5767 279.628 8.61009 279.829 8.67685C280.03 8.74219 280.212 8.83878 280.372 8.96662C280.533 9.09304 280.665 9.24787 280.771 9.43111C280.876 9.61293 280.947 9.82102 280.984 10.0554ZM282.111 13H281.412L282.982 8.63636H283.743L285.313 13H284.614L283.381 9.42898H283.347L282.111 13ZM282.228 11.2912H284.495V11.8452H282.228V11.2912ZM285.943 13V8.63636H286.602V12.4332H288.579V13H285.943ZM293.724 8.63636H294.384V11.5064C294.384 11.8118 294.313 12.0824 294.169 12.3182C294.026 12.5526 293.824 12.7372 293.564 12.8722C293.304 13.0057 293 13.0724 292.65 13.0724C292.302 13.0724 291.998 13.0057 291.738 12.8722C291.478 12.7372 291.277 12.5526 291.133 12.3182C290.99 12.0824 290.918 11.8118 290.918 11.5064V8.63636H291.576V11.4531C291.576 11.6506 291.62 11.826 291.706 11.9794C291.794 12.1328 291.919 12.2536 292.079 12.3416C292.24 12.4283 292.43 12.4716 292.65 12.4716C292.872 12.4716 293.063 12.4283 293.223 12.3416C293.385 12.2536 293.509 12.1328 293.594 11.9794C293.681 11.826 293.724 11.6506 293.724 11.4531V8.63636ZM298.864 8.63636V13H298.259L296.041 9.79972H296V13H295.342V8.63636H295.951L298.171 11.8409H298.212V8.63636H298.864ZM300.483 8.63636V13H299.824V8.63636H300.483ZM301.823 8.63636L303.037 12.1903H303.086L304.301 8.63636H305.012L303.442 13H302.681L301.111 8.63636H301.823ZM305.642 13V8.63636H308.378V9.20312H306.301V10.5327H308.236V11.0973H306.301V12.4332H308.404V13H305.642ZM309.258 13V8.63636H310.813C311.151 8.63636 311.432 8.6946 311.655 8.81108C311.879 8.92756 312.047 9.08878 312.158 9.29474C312.268 9.49929 312.324 9.7358 312.324 10.0043C312.324 10.2713 312.268 10.5064 312.155 10.7095C312.045 10.9112 311.877 11.0682 311.653 11.1804C311.43 11.2926 311.149 11.3487 310.811 11.3487H309.633V10.782H310.751C310.964 10.782 311.138 10.7514 311.271 10.6903C311.406 10.6293 311.505 10.5405 311.567 10.424C311.63 10.3075 311.661 10.1676 311.661 10.0043C311.661 9.83949 311.629 9.69673 311.565 9.57599C311.503 9.45526 311.404 9.36293 311.269 9.29901C311.136 9.23366 310.96 9.20099 310.743 9.20099H309.916V13H309.258ZM311.412 11.0312L312.49 13H311.74L310.683 11.0312H311.412ZM315.505 9.78267C315.482 9.58097 315.388 9.42472 315.224 9.31392C315.059 9.2017 314.851 9.1456 314.601 9.1456C314.422 9.1456 314.268 9.17401 314.137 9.23082C314.006 9.28622 313.905 9.36293 313.832 9.46094C313.761 9.55753 313.726 9.66761 313.726 9.79119C313.726 9.89489 313.75 9.98437 313.798 10.0597C313.848 10.1349 313.913 10.1982 313.992 10.2493C314.073 10.299 314.16 10.3409 314.252 10.375C314.344 10.4077 314.433 10.4347 314.518 10.456L314.945 10.5668C315.084 10.6009 315.226 10.647 315.373 10.7053C315.519 10.7635 315.655 10.8402 315.78 10.9354C315.905 11.0305 316.006 11.1484 316.082 11.2891C316.16 11.4297 316.199 11.598 316.199 11.794C316.199 12.0412 316.136 12.2607 316.008 12.4524C315.881 12.6442 315.697 12.7955 315.456 12.9062C315.216 13.017 314.925 13.0724 314.584 13.0724C314.258 13.0724 313.975 13.0206 313.736 12.9169C313.498 12.8132 313.311 12.6662 313.176 12.4759C313.041 12.2841 312.967 12.0568 312.952 11.794H313.613C313.626 11.9517 313.677 12.0831 313.766 12.1882C313.857 12.2919 313.973 12.3693 314.114 12.4205C314.256 12.4702 314.411 12.495 314.58 12.495C314.766 12.495 314.932 12.4659 315.077 12.4077C315.223 12.348 315.338 12.2656 315.422 12.1605C315.506 12.054 315.547 11.9297 315.547 11.7876C315.547 11.6584 315.511 11.5526 315.437 11.4702C315.364 11.3878 315.266 11.3196 315.141 11.2656C315.017 11.2116 314.877 11.1641 314.721 11.1229L314.205 10.9822C313.856 10.8871 313.579 10.7472 313.374 10.5625C313.171 10.3778 313.07 10.1335 313.07 9.82955C313.07 9.57812 313.138 9.35866 313.274 9.17116C313.41 8.98366 313.595 8.83807 313.828 8.73438C314.061 8.62926 314.324 8.5767 314.616 8.5767C314.912 8.5767 315.172 8.62855 315.398 8.73224C315.626 8.83594 315.805 8.97869 315.935 9.16051C316.066 9.34091 316.134 9.5483 316.14 9.78267H315.505ZM317.645 8.63636V13H316.986V8.63636H317.645ZM318.388 9.20312V8.63636H321.765V9.20312H320.404V13H319.748V9.20312H318.388ZM322.175 8.63636H322.923L324.063 10.62H324.11L325.25 8.63636H325.997L324.414 11.2869V13H323.758V11.2869L322.175 8.63636ZM331.997 10.8182C331.997 11.2841 331.912 11.6847 331.742 12.0199C331.571 12.3537 331.338 12.6108 331.041 12.7912C330.745 12.9702 330.409 13.0597 330.033 13.0597C329.655 13.0597 329.318 12.9702 329.021 12.7912C328.725 12.6108 328.492 12.353 328.322 12.0178C328.152 11.6825 328.066 11.2827 328.066 10.8182C328.066 10.3523 328.152 9.95241 328.322 9.61861C328.492 9.28338 328.725 9.02628 329.021 8.8473C329.318 8.6669 329.655 8.5767 330.033 8.5767C330.409 8.5767 330.745 8.6669 331.041 8.8473C331.338 9.02628 331.571 9.28338 331.742 9.61861C331.912 9.95241 331.997 10.3523 331.997 10.8182ZM331.345 10.8182C331.345 10.4631 331.288 10.1641 331.173 9.92116C331.059 9.67685 330.903 9.49219 330.704 9.36719C330.507 9.24077 330.283 9.17756 330.033 9.17756C329.782 9.17756 329.557 9.24077 329.36 9.36719C329.162 9.49219 329.006 9.67685 328.891 9.92116C328.777 10.1641 328.72 10.4631 328.72 10.8182C328.72 11.1733 328.777 11.473 328.891 11.7173C329.006 11.9602 329.162 12.1449 329.36 12.2713C329.557 12.3963 329.782 12.4588 330.033 12.4588C330.283 12.4588 330.507 12.3963 330.704 12.2713C330.903 12.1449 331.059 11.9602 331.173 11.7173C331.288 11.473 331.345 11.1733 331.345 10.8182ZM332.818 13V8.63636H335.524V9.20312H333.477V10.5327H335.33V11.0973H333.477V13H332.818ZM337.707 9.20312V8.63636H341.084V9.20312H339.722V13H339.066V9.20312H337.707ZM341.83 13V8.63636H342.488V10.5327H344.664V8.63636H345.324V13H344.664V11.0973H342.488V13H341.83ZM346.283 13V8.63636H349.019V9.20312H346.941V10.5327H348.876V11.0973H346.941V12.4332H349.044V13H346.283ZM351.486 13V8.63636H353.042C353.381 8.63636 353.662 8.69815 353.885 8.82173C354.108 8.94531 354.275 9.11435 354.386 9.32884C354.497 9.5419 354.552 9.78196 354.552 10.049C354.552 10.3175 354.496 10.5589 354.384 10.7734C354.273 10.9865 354.106 11.1555 353.881 11.2805C353.658 11.4041 353.378 11.4659 353.04 11.4659H351.97V10.9077H352.98C353.194 10.9077 353.368 10.8707 353.502 10.7969C353.635 10.7216 353.733 10.6193 353.796 10.4901C353.858 10.3608 353.89 10.2138 353.89 10.049C353.89 9.88423 353.858 9.73793 353.796 9.61009C353.733 9.48224 353.635 9.3821 353.5 9.30966C353.366 9.23722 353.19 9.20099 352.971 9.20099H352.145V13H351.486ZM355.324 13V8.63636H355.983V10.5327H358.158V8.63636H358.818V13H358.158V11.0973H355.983V13H355.324ZM360.436 8.63636V13H359.777V8.63636H360.436ZM361.394 13V8.63636H362.053V12.4332H364.03V13H361.394ZM365.44 8.63636V13H364.781V8.63636H365.44ZM366.398 13V8.63636H367.954C368.293 8.63636 368.574 8.69815 368.797 8.82173C369.021 8.94531 369.187 9.11435 369.298 9.32884C369.409 9.5419 369.464 9.78196 369.464 10.049C369.464 10.3175 369.408 10.5589 369.296 10.7734C369.185 10.9865 369.018 11.1555 368.793 11.2805C368.57 11.4041 368.29 11.4659 367.952 11.4659H366.882V10.9077H367.892C368.106 10.9077 368.28 10.8707 368.414 10.7969C368.547 10.7216 368.646 10.6193 368.708 10.4901C368.771 10.3608 368.802 10.2138 368.802 10.049C368.802 9.88423 368.771 9.73793 368.708 9.61009C368.646 9.48224 368.547 9.3821 368.412 9.30966C368.278 9.23722 368.102 9.20099 367.883 9.20099H367.057V13H366.398ZM370.236 13V8.63636H371.792C372.131 8.63636 372.412 8.69815 372.635 8.82173C372.858 8.94531 373.025 9.11435 373.136 9.32884C373.247 9.5419 373.302 9.78196 373.302 10.049C373.302 10.3175 373.246 10.5589 373.134 10.7734C373.023 10.9865 372.856 11.1555 372.631 11.2805C372.408 11.4041 372.128 11.4659 371.79 11.4659H370.72V10.9077H371.73C371.944 10.9077 372.118 10.8707 372.252 10.7969C372.385 10.7216 372.483 10.6193 372.546 10.4901C372.608 10.3608 372.64 10.2138 372.64 10.049C372.64 9.88423 372.608 9.73793 372.546 9.61009C372.483 9.48224 372.385 9.3821 372.25 9.30966C372.116 9.23722 371.94 9.20099 371.721 9.20099H370.895V13H370.236ZM374.733 8.63636V13H374.074V8.63636H374.733ZM379.213 8.63636V13H378.608L376.39 9.79972H376.35V13H375.691V8.63636H376.301L378.521 11.8409H378.561V8.63636H379.213ZM380.174 13V8.63636H382.91V9.20312H380.832V10.5327H382.767V11.0973H380.832V12.4332H382.935V13H380.174ZM386.169 9.78267C386.146 9.58097 386.052 9.42472 385.888 9.31392C385.723 9.2017 385.516 9.1456 385.266 9.1456C385.087 9.1456 384.932 9.17401 384.801 9.23082C384.67 9.28622 384.569 9.36293 384.496 9.46094C384.425 9.55753 384.39 9.66761 384.39 9.79119C384.39 9.89489 384.414 9.98437 384.462 10.0597C384.512 10.1349 384.577 10.1982 384.656 10.2493C384.737 10.299 384.824 10.3409 384.916 10.375C385.008 10.4077 385.097 10.4347 385.182 10.456L385.609 10.5668C385.748 10.6009 385.891 10.647 386.037 10.7053C386.183 10.7635 386.319 10.8402 386.444 10.9354C386.569 11.0305 386.67 11.1484 386.746 11.2891C386.824 11.4297 386.864 11.598 386.864 11.794C386.864 12.0412 386.8 12.2607 386.672 12.4524C386.545 12.6442 386.361 12.7955 386.12 12.9062C385.88 13.017 385.589 13.0724 385.248 13.0724C384.922 13.0724 384.639 13.0206 384.4 12.9169C384.162 12.8132 383.975 12.6662 383.84 12.4759C383.705 12.2841 383.631 12.0568 383.616 11.794H384.277C384.29 11.9517 384.341 12.0831 384.43 12.1882C384.521 12.2919 384.637 12.3693 384.778 12.4205C384.92 12.4702 385.075 12.495 385.244 12.495C385.43 12.495 385.596 12.4659 385.741 12.4077C385.887 12.348 386.002 12.2656 386.086 12.1605C386.17 12.054 386.212 11.9297 386.212 11.7876C386.212 11.6584 386.175 11.5526 386.101 11.4702C386.028 11.3878 385.93 11.3196 385.805 11.2656C385.681 11.2116 385.541 11.1641 385.385 11.1229L384.869 10.9822C384.52 10.8871 384.243 10.7472 384.038 10.5625C383.835 10.3778 383.734 10.1335 383.734 9.82955C383.734 9.57812 383.802 9.35866 383.938 9.17116C384.074 8.98366 384.259 8.83807 384.492 8.73438C384.725 8.62926 384.988 8.5767 385.28 8.5767C385.576 8.5767 385.837 8.62855 386.062 8.73224C386.29 8.83594 386.469 8.97869 386.599 9.16051C386.73 9.34091 386.798 9.5483 386.804 9.78267H386.169ZM391.115 10.5412V11.0952H389.181V10.5412H391.115ZM393.388 9.20312V8.63636H396.765V9.20312H395.404V13H394.748V9.20312H393.388ZM397.365 13H396.666L398.236 8.63636H398.997L400.567 13H399.868L398.634 9.42898H398.6L397.365 13ZM397.482 11.2912H399.749V11.8452H397.482V11.2912ZM403.945 10.0149C403.904 9.88565 403.849 9.76989 403.779 9.66761C403.711 9.56392 403.629 9.47585 403.534 9.40341C403.439 9.32955 403.33 9.27344 403.208 9.23509C403.087 9.19673 402.954 9.17756 402.81 9.17756C402.564 9.17756 402.342 9.24077 402.145 9.36719C401.947 9.49361 401.791 9.67898 401.676 9.9233C401.562 10.1662 401.506 10.4638 401.506 10.8161C401.506 11.1697 401.563 11.4687 401.678 11.7131C401.793 11.9574 401.951 12.1428 402.151 12.2692C402.351 12.3956 402.579 12.4588 402.835 12.4588C403.072 12.4588 403.279 12.4105 403.455 12.3139C403.633 12.2173 403.77 12.081 403.866 11.9048C403.964 11.7273 404.013 11.5185 404.013 11.2784L404.184 11.3104H402.935V10.767H404.65V11.2635C404.65 11.63 404.572 11.9482 404.416 12.218C404.261 12.4865 404.047 12.6939 403.773 12.8402C403.5 12.9865 403.187 13.0597 402.835 13.0597C402.44 13.0597 402.094 12.9688 401.795 12.7869C401.498 12.6051 401.267 12.3473 401.101 12.0135C400.935 11.6783 400.851 11.2805 400.851 10.8203C400.851 10.4723 400.9 10.1598 400.996 9.88281C401.093 9.60582 401.229 9.37074 401.403 9.17756C401.579 8.98295 401.786 8.83452 402.023 8.73224C402.262 8.62855 402.523 8.5767 402.805 8.5767C403.041 8.5767 403.261 8.61151 403.464 8.68111C403.668 8.75071 403.85 8.84943 404.009 8.97727C404.17 9.10511 404.302 9.2571 404.408 9.43324C404.513 9.60795 404.584 9.80185 404.621 10.0149H403.945ZM408.292 8.63636H408.953V11.5064C408.953 11.8118 408.881 12.0824 408.738 12.3182C408.594 12.5526 408.392 12.7372 408.133 12.8722C407.873 13.0057 407.568 13.0724 407.218 13.0724C406.87 13.0724 406.566 13.0057 406.307 12.8722C406.047 12.7372 405.845 12.5526 405.701 12.3182C405.558 12.0824 405.486 11.8118 405.486 11.5064V8.63636H406.145V11.4531C406.145 11.6506 406.188 11.826 406.275 11.9794C406.363 12.1328 406.487 12.2536 406.647 12.3416C406.808 12.4283 406.998 12.4716 407.218 12.4716C407.44 12.4716 407.631 12.4283 407.792 12.3416C407.954 12.2536 408.077 12.1328 408.162 11.9794C408.249 11.826 408.292 11.6506 408.292 11.4531V8.63636ZM410.568 8.63636V13H409.91V8.63636H410.568ZM414.48 10.0149C414.439 9.88565 414.384 9.76989 414.314 9.66761C414.246 9.56392 414.164 9.47585 414.069 9.40341C413.974 9.32955 413.865 9.27344 413.743 9.23509C413.622 9.19673 413.49 9.17756 413.345 9.17756C413.099 9.17756 412.877 9.24077 412.68 9.36719C412.483 9.49361 412.326 9.67898 412.211 9.9233C412.098 10.1662 412.041 10.4638 412.041 10.8161C412.041 11.1697 412.098 11.4687 412.213 11.7131C412.328 11.9574 412.486 12.1428 412.686 12.2692C412.887 12.3956 413.115 12.4588 413.37 12.4588C413.608 12.4588 413.814 12.4105 413.99 12.3139C414.168 12.2173 414.305 12.081 414.402 11.9048C414.5 11.7273 414.549 11.5185 414.549 11.2784L414.719 11.3104H413.47V10.767H415.186V11.2635C415.186 11.63 415.108 11.9482 414.951 12.218C414.796 12.4865 414.582 12.6939 414.308 12.8402C414.035 12.9865 413.723 13.0597 413.37 13.0597C412.975 13.0597 412.629 12.9688 412.331 12.7869C412.034 12.6051 411.802 12.3473 411.636 12.0135C411.47 11.6783 411.387 11.2805 411.387 10.8203C411.387 10.4723 411.435 10.1598 411.532 9.88281C411.628 9.60582 411.764 9.37074 411.938 9.17756C412.115 8.98295 412.321 8.83452 412.559 8.73224C412.797 8.62855 413.058 8.5767 413.34 8.5767C413.576 8.5767 413.796 8.61151 413.999 8.68111C414.203 8.75071 414.385 8.84943 414.544 8.97727C414.705 9.10511 414.838 9.2571 414.943 9.43324C415.048 9.60795 415.119 9.80185 415.156 10.0149H414.48Z" fill="white"/>
<path d="M276.25 29.9148V19.6364H320.509V29.9148H304.631V72H292.153V29.9148H276.25Z" fill="white"/>
<path d="M378.963 72V19.6364H400.594C404.514 19.6364 407.898 20.4034 410.744 21.9375C413.608 23.4545 415.815 25.5767 417.366 28.304C418.918 31.0142 419.693 34.1676 419.693 37.7642C419.693 41.3778 418.901 44.5398 417.315 47.25C415.747 49.9432 413.506 52.0312 410.591 53.5142C407.676 54.9972 404.216 55.7386 400.21 55.7386H386.864V45.767H397.858C399.767 45.767 401.361 45.4347 402.639 44.7699C403.935 44.1051 404.915 43.1761 405.58 41.983C406.244 40.7727 406.577 39.3665 406.577 37.7642C406.577 36.1449 406.244 34.7472 405.58 33.571C404.915 32.3778 403.935 31.4574 402.639 30.8097C401.344 30.1619 399.75 29.8381 397.858 29.8381H391.619V72H378.963Z" fill="white"/>
</svg>
