<svg width="55" height="53" viewBox="0 0 55 53" fill="none" xmlns="http://www.w3.org/2000/svg">
<ellipse cx="27.5" cy="26.5" rx="27.5" ry="26.5" fill="#8C0404"/>
<g clip-path="url(#clip0_2035_4865)">
<path fill-rule="evenodd" clip-rule="evenodd" d="M15.5 17.5C15.5 17.1022 15.658 16.7206 15.9393 16.4393C16.2206 16.158 16.6022 16 17 16H38C38.3978 16 38.7794 16.158 39.0607 16.4393C39.342 16.7206 39.5 17.1022 39.5 17.5V20.5C39.5 20.8978 39.342 21.2794 39.0607 21.5607C38.7794 21.842 38.3978 22 38 22V33.25C38 34.2446 37.6049 35.1984 36.9017 35.9017C36.1984 36.6049 35.2446 37 34.25 37H20.75C19.7554 37 18.8016 36.6049 18.0983 35.9017C17.3951 35.1984 17 34.2446 17 33.25V22C16.6022 22 16.2206 21.842 15.9393 21.5607C15.658 21.2794 15.5 20.8978 15.5 20.5V17.5ZM18.5 22V33.25C18.5 33.8467 18.7371 34.419 19.159 34.841C19.581 35.2629 20.1533 35.5 20.75 35.5H34.25C34.8467 35.5 35.419 35.2629 35.841 34.841C36.2629 34.419 36.5 33.8467 36.5 33.25V22H18.5ZM38 17.5H17V20.5H38V17.5ZM23 25.75C23 25.5511 23.079 25.3603 23.2197 25.2197C23.3603 25.079 23.5511 25 23.75 25H31.25C31.4489 25 31.6397 25.079 31.7803 25.2197C31.921 25.3603 32 25.5511 32 25.75C32 25.9489 31.921 26.1397 31.7803 26.2803C31.6397 26.421 31.4489 26.5 31.25 26.5H23.75C23.5511 26.5 23.3603 26.421 23.2197 26.2803C23.079 26.1397 23 25.9489 23 25.75Z" fill="white"/>
</g>
<defs>
<clipPath id="clip0_2035_4865">
<rect width="24" height="24" fill="white" transform="translate(15.5 14.5)"/>
</clipPath>
</defs>
</svg>
