<svg width="55" height="53" viewBox="0 0 55 53" fill="none" xmlns="http://www.w3.org/2000/svg">
<ellipse cx="27.5" cy="26.5" rx="27.5" ry="26.5" fill="#FAE2E4"/>
<g clip-path="url(#clip0_499_4061)">
<path fill-rule="evenodd" clip-rule="evenodd" d="M26 14.5C26.1989 14.5 26.3897 14.579 26.5303 14.7197C26.671 14.8603 26.75 15.0511 26.75 15.25V19H31.25V15.25C31.25 15.0511 31.329 14.8603 31.4697 14.7197C31.6103 14.579 31.8011 14.5 32 14.5C32.1989 14.5 32.3897 14.579 32.5303 14.7197C32.671 14.8603 32.75 15.0511 32.75 15.25V19H34.25C34.4489 19 34.6397 19.079 34.7803 19.2197C34.921 19.3603 35 19.5511 35 19.75V24.25C35 25.6424 34.4469 26.9777 33.4623 27.9623C32.4777 28.9469 31.1424 29.5 29.75 29.5C29.747 30.151 29.735 30.7675 29.69 31.33C29.6285 32.101 29.501 32.8345 29.2145 33.466C28.924 34.1339 28.4094 34.6793 27.7595 35.008C27.0875 35.35 26.2535 35.5 25.25 35.5C23.753 35.5 22.835 35.995 22.289 36.577C21.796 37.0976 21.5147 37.7832 21.5 38.5H20C20 37.576 20.348 36.4495 21.1955 35.548C22.061 34.63 23.3915 34 25.25 34C26.1215 34 26.693 33.868 27.077 33.6715C27.4385 33.487 27.677 33.2215 27.848 32.8465C28.0295 32.4475 28.1375 31.915 28.193 31.2115C28.2335 30.7015 28.2455 30.1345 28.2485 29.5C26.8564 29.4996 25.5214 28.9463 24.5372 27.9618C23.5529 26.9773 23 25.6421 23 24.25V19.75C23 19.5511 23.079 19.3603 23.2197 19.2197C23.3603 19.079 23.5511 19 23.75 19H25.25V15.25C25.25 15.0511 25.329 14.8603 25.4697 14.7197C25.6103 14.579 25.8011 14.5 26 14.5V14.5Z" fill="#8C0404"/>
</g>
<defs>
<clipPath id="clip0_499_4061">
<rect width="24" height="24" fill="white" transform="translate(17 14.5)"/>
</clipPath>
</defs>
</svg>
