<svg width="747" height="783" viewBox="0 0 747 783" fill="none" xmlns="http://www.w3.org/2000/svg">
<rect width="747" height="805" fill="url(#paint0_linear_233_1105)"/>
<path d="M461 320H417.195L405.375 338.515H461V357.119H394.945L383.125 375.634H461V401H372V293H461V320Z" fill="white"/>
<path d="M243.223 324.615C242.868 320.709 241.288 317.673 238.482 315.506C235.712 313.305 231.753 312.204 226.604 312.204C223.195 312.204 220.354 312.648 218.081 313.536C215.808 314.423 214.104 315.648 212.967 317.211C211.831 318.738 211.245 320.496 211.21 322.484C211.138 324.118 211.458 325.556 212.168 326.799C212.914 328.042 213.979 329.143 215.364 330.102C216.785 331.025 218.489 331.842 220.478 332.552C222.467 333.262 224.704 333.884 227.19 334.416L236.565 336.547C241.962 337.719 246.721 339.281 250.84 341.234C254.995 343.188 258.475 345.513 261.281 348.212C264.121 350.911 266.27 354.018 267.726 357.534C269.182 361.05 269.928 364.991 269.963 369.359C269.928 376.249 268.188 382.161 264.743 387.097C261.298 392.033 256.344 395.815 249.881 398.443C243.454 401.071 235.695 402.385 226.604 402.385C217.477 402.385 209.523 401.018 202.74 398.283C195.957 395.549 190.684 391.394 186.92 385.819C183.156 380.244 181.22 373.195 181.114 364.672H206.362C206.575 368.188 207.516 371.117 209.185 373.461C210.854 375.805 213.145 377.58 216.057 378.788C219.004 379.995 222.413 380.599 226.284 380.599C229.835 380.599 232.854 380.119 235.339 379.161C237.861 378.202 239.796 376.87 241.146 375.165C242.495 373.461 243.188 371.508 243.223 369.306C243.188 367.246 242.548 365.489 241.305 364.033C240.063 362.541 238.145 361.263 235.553 360.197C232.996 359.097 229.729 358.085 225.751 357.161L214.352 354.498C204.906 352.332 197.467 348.834 192.033 344.004C186.6 339.139 183.901 332.57 183.937 324.295C183.901 317.548 185.712 311.636 189.37 306.558C193.028 301.479 198.088 297.52 204.551 294.679C211.014 291.838 218.383 290.418 226.657 290.418C235.109 290.418 242.442 291.856 248.656 294.732C254.906 297.573 259.754 301.568 263.198 306.717C266.643 311.866 268.401 317.832 268.472 324.615H243.223Z" fill="white"/>
<path d="M192.944 275.406V274.273H199.699V275.406H196.976V283H195.663V275.406H192.944ZM201.191 283V274.273H206.663V275.406H202.508V278.065H206.377V279.195H202.508V281.866H206.714V283H201.191ZM215.67 277.111H214.341C214.29 276.827 214.194 276.577 214.055 276.361C213.916 276.145 213.746 275.962 213.544 275.811C213.342 275.661 213.116 275.547 212.866 275.47C212.619 275.393 212.356 275.355 212.078 275.355C211.575 275.355 211.125 275.482 210.727 275.734C210.332 275.987 210.02 276.358 209.79 276.847C209.562 277.335 209.449 277.932 209.449 278.636C209.449 279.347 209.562 279.946 209.79 280.435C210.02 280.923 210.334 281.293 210.731 281.543C211.129 281.793 211.577 281.918 212.074 281.918C212.349 281.918 212.611 281.881 212.858 281.807C213.108 281.73 213.334 281.618 213.535 281.47C213.737 281.322 213.907 281.142 214.047 280.929C214.189 280.713 214.287 280.466 214.341 280.188L215.67 280.192C215.599 280.621 215.461 281.016 215.257 281.376C215.055 281.734 214.795 282.044 214.477 282.305C214.162 282.564 213.801 282.764 213.395 282.906C212.988 283.048 212.545 283.119 212.065 283.119C211.309 283.119 210.636 282.94 210.045 282.582C209.454 282.222 208.988 281.706 208.648 281.036C208.309 280.365 208.14 279.565 208.14 278.636C208.14 277.705 208.311 276.905 208.652 276.237C208.993 275.567 209.459 275.053 210.05 274.695C210.64 274.334 211.312 274.153 212.065 274.153C212.528 274.153 212.96 274.22 213.361 274.354C213.764 274.484 214.126 274.678 214.447 274.933C214.768 275.186 215.034 275.496 215.244 275.862C215.454 276.226 215.596 276.642 215.67 277.111ZM217.246 283V274.273H218.563V278.065H222.914V274.273H224.235V283H222.914V279.195H218.563V283H217.246ZM233.196 274.273V283H231.986L227.55 276.599H227.469V283H226.152V274.273H227.371L231.811 280.682H231.892V274.273H233.196ZM242.698 278.636C242.698 279.568 242.528 280.369 242.187 281.04C241.846 281.707 241.378 282.222 240.785 282.582C240.194 282.94 239.522 283.119 238.769 283.119C238.013 283.119 237.339 282.94 236.745 282.582C236.154 282.222 235.688 281.706 235.347 281.036C235.006 280.365 234.836 279.565 234.836 278.636C234.836 277.705 235.006 276.905 235.347 276.237C235.688 275.567 236.154 275.053 236.745 274.695C237.339 274.334 238.013 274.153 238.769 274.153C239.522 274.153 240.194 274.334 240.785 274.695C241.378 275.053 241.846 275.567 242.187 276.237C242.528 276.905 242.698 277.705 242.698 278.636ZM241.394 278.636C241.394 277.926 241.279 277.328 241.049 276.842C240.822 276.354 240.509 275.984 240.111 275.734C239.716 275.482 239.269 275.355 238.769 275.355C238.266 275.355 237.817 275.482 237.422 275.734C237.028 275.984 236.715 276.354 236.485 276.842C236.258 277.328 236.144 277.926 236.144 278.636C236.144 279.347 236.258 279.946 236.485 280.435C236.715 280.92 237.028 281.29 237.422 281.543C237.817 281.793 238.266 281.918 238.769 281.918C239.269 281.918 239.716 281.793 240.111 281.543C240.509 281.29 240.822 280.92 241.049 280.435C241.279 279.946 241.394 279.347 241.394 278.636ZM244.34 283V274.273H245.656V281.866H249.611V283H244.34ZM258.354 278.636C258.354 279.568 258.184 280.369 257.843 281.04C257.502 281.707 257.035 282.222 256.441 282.582C255.85 282.94 255.178 283.119 254.425 283.119C253.67 283.119 252.995 282.94 252.401 282.582C251.81 282.222 251.344 281.706 251.003 281.036C250.662 280.365 250.492 279.565 250.492 278.636C250.492 277.705 250.662 276.905 251.003 276.237C251.344 275.567 251.81 275.053 252.401 274.695C252.995 274.334 253.67 274.153 254.425 274.153C255.178 274.153 255.85 274.334 256.441 274.695C257.035 275.053 257.502 275.567 257.843 276.237C258.184 276.905 258.354 277.705 258.354 278.636ZM257.05 278.636C257.05 277.926 256.935 277.328 256.705 276.842C256.478 276.354 256.165 275.984 255.768 275.734C255.373 275.482 254.925 275.355 254.425 275.355C253.922 275.355 253.474 275.482 253.079 275.734C252.684 275.984 252.371 276.354 252.141 276.842C251.914 277.328 251.8 277.926 251.8 278.636C251.8 279.347 251.914 279.946 252.141 280.435C252.371 280.92 252.684 281.29 253.079 281.543C253.474 281.793 253.922 281.918 254.425 281.918C254.925 281.918 255.373 281.793 255.768 281.543C256.165 281.29 256.478 280.92 256.705 280.435C256.935 279.946 257.05 279.347 257.05 278.636ZM265.902 277.03C265.82 276.771 265.709 276.54 265.57 276.335C265.433 276.128 265.27 275.952 265.08 275.807C264.889 275.659 264.672 275.547 264.428 275.47C264.186 275.393 263.921 275.355 263.631 275.355C263.139 275.355 262.696 275.482 262.301 275.734C261.906 275.987 261.594 276.358 261.364 276.847C261.137 277.332 261.023 277.928 261.023 278.632C261.023 279.339 261.138 279.937 261.368 280.426C261.598 280.915 261.914 281.286 262.314 281.538C262.715 281.791 263.171 281.918 263.682 281.918C264.156 281.918 264.57 281.821 264.922 281.628C265.277 281.435 265.551 281.162 265.744 280.81C265.941 280.455 266.039 280.037 266.039 279.557L266.379 279.621H263.882V278.534H267.313V279.527C267.313 280.26 267.156 280.896 266.844 281.436C266.534 281.973 266.105 282.388 265.557 282.68C265.012 282.973 264.387 283.119 263.682 283.119C262.892 283.119 262.199 282.938 261.602 282.574C261.009 282.21 260.546 281.695 260.213 281.027C259.881 280.357 259.715 279.561 259.715 278.641C259.715 277.945 259.811 277.32 260.004 276.766C260.198 276.212 260.469 275.741 260.818 275.355C261.171 274.966 261.584 274.669 262.058 274.464C262.536 274.257 263.057 274.153 263.622 274.153C264.094 274.153 264.533 274.223 264.939 274.362C265.348 274.501 265.712 274.699 266.03 274.955C266.351 275.21 266.617 275.514 266.827 275.866C267.037 276.216 267.179 276.604 267.253 277.03H265.902ZM270.301 274.273V283H268.984V274.273H270.301ZM279.467 277.111H278.138C278.086 276.827 277.991 276.577 277.852 276.361C277.713 276.145 277.542 275.962 277.341 275.811C277.139 275.661 276.913 275.547 276.663 275.47C276.416 275.393 276.153 275.355 275.875 275.355C275.372 275.355 274.922 275.482 274.524 275.734C274.129 275.987 273.817 276.358 273.586 276.847C273.359 277.335 273.246 277.932 273.246 278.636C273.246 279.347 273.359 279.946 273.586 280.435C273.817 280.923 274.131 281.293 274.528 281.543C274.926 281.793 275.373 281.918 275.871 281.918C276.146 281.918 276.407 281.881 276.655 281.807C276.905 281.73 277.131 281.618 277.332 281.47C277.534 281.322 277.704 281.142 277.844 280.929C277.986 280.713 278.084 280.466 278.138 280.188L279.467 280.192C279.396 280.621 279.258 281.016 279.054 281.376C278.852 281.734 278.592 282.044 278.274 282.305C277.959 282.564 277.598 282.764 277.192 282.906C276.785 283.048 276.342 283.119 275.862 283.119C275.106 283.119 274.433 282.94 273.842 282.582C273.251 282.222 272.785 281.706 272.444 281.036C272.106 280.365 271.937 279.565 271.937 278.636C271.937 277.705 272.108 276.905 272.449 276.237C272.79 275.567 273.256 275.053 273.846 274.695C274.437 274.334 275.109 274.153 275.862 274.153C276.325 274.153 276.757 274.22 277.157 274.354C277.561 274.484 277.923 274.678 278.244 274.933C278.565 275.186 278.831 275.496 279.041 275.862C279.251 276.226 279.393 276.642 279.467 277.111ZM281.721 283H280.324L283.464 274.273H284.986L288.126 283H286.729L284.261 275.858H284.193L281.721 283ZM281.956 279.582H286.49V280.69H281.956V279.582ZM289.387 283V274.273H290.703V281.866H294.658V283H289.387ZM304.948 274.273H306.269V280.013C306.269 280.624 306.126 281.165 305.839 281.636C305.552 282.105 305.148 282.474 304.628 282.744C304.108 283.011 303.499 283.145 302.8 283.145C302.104 283.145 301.496 283.011 300.976 282.744C300.456 282.474 300.053 282.105 299.766 281.636C299.479 281.165 299.336 280.624 299.336 280.013V274.273H300.653V279.906C300.653 280.301 300.739 280.652 300.912 280.959C301.089 281.266 301.337 281.507 301.658 281.683C301.979 281.857 302.36 281.943 302.8 281.943C303.243 281.943 303.626 281.857 303.947 281.683C304.27 281.507 304.518 281.266 304.688 280.959C304.861 280.652 304.948 280.301 304.948 279.906V274.273ZM315.227 274.273V283H314.017L309.581 276.599H309.5V283H308.183V274.273H309.402L313.843 280.682H313.923V274.273H315.227ZM318.465 274.273V283H317.148V274.273H318.465ZM321.145 274.273L323.574 281.381H323.672L326.101 274.273H327.525L324.384 283H322.863L319.722 274.273H321.145ZM328.785 283V274.273H334.257V275.406H330.102V278.065H333.971V279.195H330.102V281.866H334.308V283H328.785ZM336.015 283V274.273H339.126C339.802 274.273 340.363 274.389 340.809 274.622C341.258 274.855 341.594 275.178 341.815 275.589C342.037 275.999 342.148 276.472 342.148 277.009C342.148 277.543 342.035 278.013 341.811 278.419C341.589 278.822 341.254 279.136 340.805 279.361C340.359 279.585 339.798 279.697 339.122 279.697H336.765V278.564H339.003C339.429 278.564 339.775 278.503 340.042 278.381C340.312 278.259 340.51 278.081 340.635 277.848C340.76 277.615 340.822 277.335 340.822 277.009C340.822 276.679 340.758 276.393 340.631 276.152C340.506 275.911 340.308 275.726 340.038 275.598C339.771 275.467 339.42 275.402 338.986 275.402H337.332V283H336.015ZM340.324 279.062L342.48 283H340.98L338.866 279.062H340.324ZM348.51 276.565C348.464 276.162 348.277 275.849 347.947 275.628C347.618 275.403 347.203 275.291 346.703 275.291C346.345 275.291 346.035 275.348 345.774 275.462C345.513 275.572 345.309 275.726 345.165 275.922C345.023 276.115 344.952 276.335 344.952 276.582C344.952 276.79 345 276.969 345.096 277.119C345.196 277.27 345.325 277.396 345.484 277.499C345.646 277.598 345.819 277.682 346.004 277.75C346.189 277.815 346.366 277.869 346.537 277.912L347.389 278.134C347.667 278.202 347.953 278.294 348.246 278.411C348.538 278.527 348.809 278.68 349.059 278.871C349.309 279.061 349.511 279.297 349.665 279.578C349.821 279.859 349.899 280.196 349.899 280.588C349.899 281.082 349.771 281.521 349.515 281.905C349.263 282.288 348.895 282.591 348.412 282.812C347.932 283.034 347.351 283.145 346.669 283.145C346.015 283.145 345.45 283.041 344.973 282.834C344.496 282.626 344.122 282.332 343.852 281.952C343.582 281.568 343.433 281.114 343.405 280.588H344.726C344.751 280.903 344.854 281.166 345.032 281.376C345.214 281.584 345.446 281.739 345.727 281.841C346.011 281.94 346.322 281.99 346.66 281.99C347.032 281.99 347.363 281.932 347.653 281.815C347.946 281.696 348.176 281.531 348.344 281.321C348.511 281.108 348.595 280.859 348.595 280.575C348.595 280.317 348.521 280.105 348.373 279.94C348.229 279.776 348.031 279.639 347.781 279.531C347.534 279.423 347.254 279.328 346.942 279.246L345.91 278.964C345.211 278.774 344.657 278.494 344.248 278.125C343.842 277.756 343.639 277.267 343.639 276.659C343.639 276.156 343.775 275.717 344.048 275.342C344.321 274.967 344.69 274.676 345.156 274.469C345.622 274.259 346.148 274.153 346.733 274.153C347.324 274.153 347.845 274.257 348.297 274.464C348.751 274.672 349.109 274.957 349.371 275.321C349.632 275.682 349.768 276.097 349.78 276.565H348.51ZM352.789 274.273V283H351.472V274.273H352.789ZM354.276 275.406V274.273H361.031V275.406H358.308V283H356.995V275.406H354.276ZM361.85 274.273H363.346L365.626 278.24H365.719L367.999 274.273H369.495L366.329 279.574V283H365.016V279.574L361.85 274.273ZM381.495 278.636C381.495 279.568 381.324 280.369 380.983 281.04C380.643 281.707 380.175 282.222 379.581 282.582C378.991 282.94 378.319 283.119 377.566 283.119C376.81 283.119 376.135 282.94 375.542 282.582C374.951 282.222 374.485 281.706 374.144 281.036C373.803 280.365 373.633 279.565 373.633 278.636C373.633 277.705 373.803 276.905 374.144 276.237C374.485 275.567 374.951 275.053 375.542 274.695C376.135 274.334 376.81 274.153 377.566 274.153C378.319 274.153 378.991 274.334 379.581 274.695C380.175 275.053 380.643 275.567 380.983 276.237C381.324 276.905 381.495 277.705 381.495 278.636ZM380.191 278.636C380.191 277.926 380.076 277.328 379.846 276.842C379.618 276.354 379.306 275.984 378.908 275.734C378.513 275.482 378.066 275.355 377.566 275.355C377.063 275.355 376.614 275.482 376.219 275.734C375.824 275.984 375.512 276.354 375.282 276.842C375.055 277.328 374.941 277.926 374.941 278.636C374.941 279.347 375.055 279.946 375.282 280.435C375.512 280.92 375.824 281.29 376.219 281.543C376.614 281.793 377.063 281.918 377.566 281.918C378.066 281.918 378.513 281.793 378.908 281.543C379.306 281.29 379.618 280.92 379.846 280.435C380.076 279.946 380.191 279.347 380.191 278.636ZM383.137 283V274.273H388.548V275.406H384.453V278.065H388.161V279.195H384.453V283H383.137ZM392.913 275.406V274.273H399.667V275.406H396.944V283H395.632V275.406H392.913ZM401.16 283V274.273H402.477V278.065H406.828V274.273H408.149V283H406.828V279.195H402.477V283H401.16ZM410.066 283V274.273H415.538V275.406H411.383V278.065H415.252V279.195H411.383V281.866H415.589V283H410.066ZM420.472 283V274.273H423.583C424.262 274.273 424.825 274.396 425.271 274.643C425.717 274.891 426.051 275.229 426.272 275.658C426.494 276.084 426.605 276.564 426.605 277.098C426.605 277.635 426.492 278.118 426.268 278.547C426.046 278.973 425.711 279.311 425.262 279.561C424.816 279.808 424.255 279.932 423.579 279.932H421.44V278.815H423.46C423.889 278.815 424.237 278.741 424.504 278.594C424.771 278.443 424.967 278.239 425.092 277.98C425.217 277.722 425.279 277.428 425.279 277.098C425.279 276.768 425.217 276.476 425.092 276.22C424.967 275.964 424.769 275.764 424.499 275.619C424.232 275.474 423.88 275.402 423.443 275.402H421.789V283H420.472ZM428.148 283V274.273H429.465V278.065H433.816V274.273H435.137V283H433.816V279.195H429.465V283H428.148ZM438.371 274.273V283H437.055V274.273H438.371ZM440.289 283V274.273H441.606V281.866H445.56V283H440.289ZM448.379 274.273V283H447.062V274.273H448.379ZM450.297 283V274.273H453.407C454.086 274.273 454.649 274.396 455.095 274.643C455.541 274.891 455.875 275.229 456.096 275.658C456.318 276.084 456.429 276.564 456.429 277.098C456.429 277.635 456.317 278.118 456.092 278.547C455.871 278.973 455.535 279.311 455.086 279.561C454.64 279.808 454.079 279.932 453.403 279.932H451.264V278.815H453.284C453.713 278.815 454.061 278.741 454.328 278.594C454.595 278.443 454.791 278.239 454.916 277.98C455.041 277.722 455.104 277.428 455.104 277.098C455.104 276.768 455.041 276.476 454.916 276.22C454.791 275.964 454.594 275.764 454.324 275.619C454.057 275.474 453.704 275.402 453.267 275.402H451.613V283H450.297ZM457.972 283V274.273H461.083C461.762 274.273 462.325 274.396 462.771 274.643C463.217 274.891 463.551 275.229 463.772 275.658C463.994 276.084 464.105 276.564 464.105 277.098C464.105 277.635 463.992 278.118 463.768 278.547C463.546 278.973 463.211 279.311 462.762 279.561C462.316 279.808 461.755 279.932 461.079 279.932H458.94V278.815H460.96C461.389 278.815 461.737 278.741 462.004 278.594C462.271 278.443 462.467 278.239 462.592 277.98C462.717 277.722 462.779 277.428 462.779 277.098C462.779 276.768 462.717 276.476 462.592 276.22C462.467 275.964 462.269 275.764 461.999 275.619C461.732 275.474 461.38 275.402 460.943 275.402H459.289V283H457.972ZM466.965 274.273V283H465.648V274.273H466.965ZM475.927 274.273V283H474.716L470.28 276.599H470.199V283H468.883V274.273H470.101L474.542 280.682H474.623V274.273H475.927ZM477.847 283V274.273H483.319V275.406H479.164V278.065H483.034V279.195H479.164V281.866H483.37V283H477.847ZM489.838 276.565C489.792 276.162 489.605 275.849 489.275 275.628C488.946 275.403 488.531 275.291 488.031 275.291C487.673 275.291 487.363 275.348 487.102 275.462C486.841 275.572 486.638 275.726 486.493 275.922C486.351 276.115 486.28 276.335 486.28 276.582C486.28 276.79 486.328 276.969 486.425 277.119C486.524 277.27 486.653 277.396 486.812 277.499C486.974 277.598 487.148 277.682 487.332 277.75C487.517 277.815 487.694 277.869 487.865 277.912L488.717 278.134C488.996 278.202 489.281 278.294 489.574 278.411C489.866 278.527 490.138 278.68 490.388 278.871C490.638 279.061 490.839 279.297 490.993 279.578C491.149 279.859 491.227 280.196 491.227 280.588C491.227 281.082 491.099 281.521 490.844 281.905C490.591 282.288 490.223 282.591 489.74 282.812C489.26 283.034 488.679 283.145 487.997 283.145C487.344 283.145 486.778 283.041 486.301 282.834C485.824 282.626 485.45 282.332 485.18 281.952C484.91 281.568 484.761 281.114 484.733 280.588H486.054C486.079 280.903 486.182 281.166 486.361 281.376C486.542 281.584 486.774 281.739 487.055 281.841C487.339 281.94 487.65 281.99 487.988 281.99C488.361 281.99 488.692 281.932 488.981 281.815C489.274 281.696 489.504 281.531 489.672 281.321C489.839 281.108 489.923 280.859 489.923 280.575C489.923 280.317 489.849 280.105 489.702 279.94C489.557 279.776 489.359 279.639 489.109 279.531C488.862 279.423 488.582 279.328 488.27 279.246L487.238 278.964C486.54 278.774 485.986 278.494 485.577 278.125C485.17 277.756 484.967 277.267 484.967 276.659C484.967 276.156 485.104 275.717 485.376 275.342C485.649 274.967 486.018 274.676 486.484 274.469C486.95 274.259 487.476 274.153 488.061 274.153C488.652 274.153 489.173 274.257 489.625 274.464C490.079 274.672 490.437 274.957 490.699 275.321C490.96 275.682 491.096 276.097 491.108 276.565H489.838ZM499.731 278.082V279.19H495.861V278.082H499.731ZM504.276 275.406V274.273H511.031V275.406H508.308V283H506.995V275.406H504.276ZM512.229 283H510.831L513.972 274.273H515.493L518.634 283H517.236L514.769 275.858H514.701L512.229 283ZM512.464 279.582H516.998V280.69H512.464V279.582ZM525.39 277.03C525.308 276.771 525.197 276.54 525.058 276.335C524.922 276.128 524.758 275.952 524.568 275.807C524.378 275.659 524.16 275.547 523.916 275.47C523.675 275.393 523.409 275.355 523.119 275.355C522.628 275.355 522.184 275.482 521.79 275.734C521.395 275.987 521.082 276.358 520.852 276.847C520.625 277.332 520.511 277.928 520.511 278.632C520.511 279.339 520.626 279.937 520.856 280.426C521.086 280.915 521.402 281.286 521.802 281.538C522.203 281.791 522.659 281.918 523.17 281.918C523.645 281.918 524.058 281.821 524.41 281.628C524.765 281.435 525.04 281.162 525.233 280.81C525.429 280.455 525.527 280.037 525.527 279.557L525.868 279.621H523.371V278.534H526.801V279.527C526.801 280.26 526.645 280.896 526.332 281.436C526.023 281.973 525.594 282.388 525.045 282.68C524.5 282.973 523.875 283.119 523.17 283.119C522.381 283.119 521.687 282.938 521.091 282.574C520.497 282.21 520.034 281.695 519.702 281.027C519.369 280.357 519.203 279.561 519.203 278.641C519.203 277.945 519.3 277.32 519.493 276.766C519.686 276.212 519.957 275.741 520.307 275.355C520.659 274.966 521.072 274.669 521.547 274.464C522.024 274.257 522.545 274.153 523.111 274.153C523.582 274.153 524.021 274.223 524.427 274.362C524.836 274.501 525.2 274.699 525.518 274.955C525.839 275.21 526.105 275.514 526.315 275.866C526.525 276.216 526.667 276.604 526.741 277.03H525.39ZM534.085 274.273H535.406V280.013C535.406 280.624 535.262 281.165 534.975 281.636C534.688 282.105 534.285 282.474 533.765 282.744C533.245 283.011 532.636 283.145 531.937 283.145C531.241 283.145 530.633 283.011 530.113 282.744C529.593 282.474 529.19 282.105 528.903 281.636C528.616 281.165 528.472 280.624 528.472 280.013V274.273H529.789V279.906C529.789 280.301 529.876 280.652 530.049 280.959C530.225 281.266 530.474 281.507 530.795 281.683C531.116 281.857 531.497 281.943 531.937 281.943C532.38 281.943 532.762 281.857 533.083 281.683C533.407 281.507 533.654 281.266 533.825 280.959C533.998 280.652 534.085 280.301 534.085 279.906V274.273ZM538.637 274.273V283H537.32V274.273H538.637ZM546.461 277.03C546.378 276.771 546.268 276.54 546.128 276.335C545.992 276.128 545.829 275.952 545.638 275.807C545.448 275.659 545.231 275.547 544.986 275.47C544.745 275.393 544.479 275.355 544.189 275.355C543.698 275.355 543.255 275.482 542.86 275.734C542.465 275.987 542.153 276.358 541.922 276.847C541.695 277.332 541.581 277.928 541.581 278.632C541.581 279.339 541.697 279.937 541.927 280.426C542.157 280.915 542.472 281.286 542.873 281.538C543.273 281.791 543.729 281.918 544.241 281.918C544.715 281.918 545.128 281.821 545.481 281.628C545.836 281.435 546.11 281.162 546.303 280.81C546.499 280.455 546.597 280.037 546.597 279.557L546.938 279.621H544.441V278.534H547.871V279.527C547.871 280.26 547.715 280.896 547.403 281.436C547.093 281.973 546.664 282.388 546.116 282.68C545.57 282.973 544.945 283.119 544.241 283.119C543.451 283.119 542.758 282.938 542.161 282.574C541.567 282.21 541.104 281.695 540.772 281.027C540.439 280.357 540.273 279.561 540.273 278.641C540.273 277.945 540.37 277.32 540.563 276.766C540.756 276.212 541.028 275.741 541.377 275.355C541.729 274.966 542.143 274.669 542.617 274.464C543.094 274.257 543.616 274.153 544.181 274.153C544.653 274.153 545.091 274.223 545.498 274.362C545.907 274.501 546.27 274.699 546.589 274.955C546.91 275.21 547.175 275.514 547.385 275.866C547.596 276.216 547.738 276.604 547.812 277.03H546.461Z" fill="white"/>
<path d="M273.688 315.322V293.909H365.893V315.322H332.814V403H306.82V315.322H273.688Z" fill="white"/>
<path d="M466.256 401V291.909H511.32C519.488 291.909 526.537 293.507 532.467 296.703C538.433 299.864 543.032 304.285 546.263 309.967C549.495 315.613 551.111 322.183 551.111 329.675C551.111 337.204 549.46 343.791 546.157 349.438C542.89 355.048 538.22 359.398 532.148 362.488C526.075 365.577 518.866 367.122 510.521 367.122H482.716V346.348H505.621C509.598 346.348 512.918 345.656 515.582 344.271C518.281 342.886 520.322 340.95 521.707 338.464C523.092 335.943 523.785 333.013 523.785 329.675C523.785 326.302 523.092 323.39 521.707 320.94C520.322 318.454 518.281 316.536 515.582 315.187C512.883 313.837 509.563 313.163 505.621 313.163H492.624V401H466.256Z" fill="white"/>
<defs>
<linearGradient id="paint0_linear_233_1105" x1="373.5" y1="0" x2="373.5" y2="805" gradientUnits="userSpaceOnUse">
<stop stop-color="#C62742"/>
<stop offset="1" stop-color="#440303"/>
</linearGradient>
</defs>
</svg>
