<svg width="55" height="53" viewBox="0 0 55 53" fill="none" xmlns="http://www.w3.org/2000/svg">
<ellipse cx="27.5" cy="26.5" rx="27.5" ry="26.5" fill="#FAE2E4"/>
<path fill-rule="evenodd" clip-rule="evenodd" d="M23 14.5C23.1989 14.5 23.3897 14.579 23.5303 14.7197C23.671 14.8603 23.75 15.0511 23.75 15.25V17.5H25.25V15.25C25.25 15.0511 25.329 14.8603 25.4697 14.7197C25.6103 14.579 25.8011 14.5 26 14.5C26.1989 14.5 26.3897 14.579 26.5303 14.7197C26.671 14.8603 26.75 15.0511 26.75 15.25V17.5H28.25V15.25C28.25 15.0511 28.329 14.8603 28.4697 14.7197C28.6103 14.579 28.8011 14.5 29 14.5C29.1989 14.5 29.3897 14.579 29.5303 14.7197C29.671 14.8603 29.75 15.0511 29.75 15.25V17.5H31.25V15.25C31.25 15.0511 31.329 14.8603 31.4697 14.7197C31.6103 14.579 31.8011 14.5 32 14.5C32.1989 14.5 32.3897 14.579 32.5303 14.7197C32.671 14.8603 32.75 15.0511 32.75 15.25V17.5C33.7446 17.5 34.6984 17.8951 35.4017 18.5983C36.1049 19.3016 36.5 20.2554 36.5 21.25H38.75C38.9489 21.25 39.1397 21.329 39.2803 21.4697C39.421 21.6103 39.5 21.8011 39.5 22C39.5 22.1989 39.421 22.3897 39.2803 22.5303C39.1397 22.671 38.9489 22.75 38.75 22.75H36.5V24.25H38.75C38.9489 24.25 39.1397 24.329 39.2803 24.4697C39.421 24.6103 39.5 24.8011 39.5 25C39.5 25.1989 39.421 25.3897 39.2803 25.5303C39.1397 25.671 38.9489 25.75 38.75 25.75H36.5V27.25H38.75C38.9489 27.25 39.1397 27.329 39.2803 27.4697C39.421 27.6103 39.5 27.8011 39.5 28C39.5 28.1989 39.421 28.3897 39.2803 28.5303C39.1397 28.671 38.9489 28.75 38.75 28.75H36.5V30.25H38.75C38.9489 30.25 39.1397 30.329 39.2803 30.4697C39.421 30.6103 39.5 30.8011 39.5 31C39.5 31.1989 39.421 31.3897 39.2803 31.5303C39.1397 31.671 38.9489 31.75 38.75 31.75H36.5C36.5 32.7446 36.1049 33.6984 35.4017 34.4017C34.6984 35.1049 33.7446 35.5 32.75 35.5V37.75C32.75 37.9489 32.671 38.1397 32.5303 38.2803C32.3897 38.421 32.1989 38.5 32 38.5C31.8011 38.5 31.6103 38.421 31.4697 38.2803C31.329 38.1397 31.25 37.9489 31.25 37.75V35.5H29.75V37.75C29.75 37.9489 29.671 38.1397 29.5303 38.2803C29.3897 38.421 29.1989 38.5 29 38.5C28.8011 38.5 28.6103 38.421 28.4697 38.2803C28.329 38.1397 28.25 37.9489 28.25 37.75V35.5H26.75V37.75C26.75 37.9489 26.671 38.1397 26.5303 38.2803C26.3897 38.421 26.1989 38.5 26 38.5C25.8011 38.5 25.6103 38.421 25.4697 38.2803C25.329 38.1397 25.25 37.9489 25.25 37.75V35.5H23.75V37.75C23.75 37.9489 23.671 38.1397 23.5303 38.2803C23.3897 38.421 23.1989 38.5 23 38.5C22.8011 38.5 22.6103 38.421 22.4697 38.2803C22.329 38.1397 22.25 37.9489 22.25 37.75V35.5C21.2554 35.5 20.3016 35.1049 19.5983 34.4017C18.8951 33.6984 18.5 32.7446 18.5 31.75H16.25C16.0511 31.75 15.8603 31.671 15.7197 31.5303C15.579 31.3897 15.5 31.1989 15.5 31C15.5 30.8011 15.579 30.6103 15.7197 30.4697C15.8603 30.329 16.0511 30.25 16.25 30.25H18.5V28.75H16.25C16.0511 28.75 15.8603 28.671 15.7197 28.5303C15.579 28.3897 15.5 28.1989 15.5 28C15.5 27.8011 15.579 27.6103 15.7197 27.4697C15.8603 27.329 16.0511 27.25 16.25 27.25H18.5V25.75H16.25C16.0511 25.75 15.8603 25.671 15.7197 25.5303C15.579 25.3897 15.5 25.1989 15.5 25C15.5 24.8011 15.579 24.6103 15.7197 24.4697C15.8603 24.329 16.0511 24.25 16.25 24.25H18.5V22.75H16.25C16.0511 22.75 15.8603 22.671 15.7197 22.5303C15.579 22.3897 15.5 22.1989 15.5 22C15.5 21.8011 15.579 21.6103 15.7197 21.4697C15.8603 21.329 16.0511 21.25 16.25 21.25H18.5C18.5 20.2554 18.8951 19.3016 19.5983 18.5983C20.3016 17.8951 21.2554 17.5 22.25 17.5V15.25C22.25 15.0511 22.329 14.8603 22.4697 14.7197C22.6103 14.579 22.8011 14.5 23 14.5V14.5ZM22.25 19C21.6533 19 21.081 19.2371 20.659 19.659C20.2371 20.081 20 20.6533 20 21.25V31.75C20 32.3467 20.2371 32.919 20.659 33.341C21.081 33.7629 21.6533 34 22.25 34H32.75C33.3467 34 33.919 33.7629 34.341 33.341C34.7629 32.919 35 32.3467 35 31.75V21.25C35 20.6533 34.7629 20.081 34.341 19.659C33.919 19.2371 33.3467 19 32.75 19H22.25ZM23 24.25C23 23.6533 23.2371 23.081 23.659 22.659C24.081 22.2371 24.6533 22 25.25 22H29.75C30.3467 22 30.919 22.2371 31.341 22.659C31.7629 23.081 32 23.6533 32 24.25V28.75C32 29.3467 31.7629 29.919 31.341 30.341C30.919 30.7629 30.3467 31 29.75 31H25.25C24.6533 31 24.081 30.7629 23.659 30.341C23.2371 29.919 23 29.3467 23 28.75V24.25ZM25.25 23.5C25.0511 23.5 24.8603 23.579 24.7197 23.7197C24.579 23.8603 24.5 24.0511 24.5 24.25V28.75C24.5 28.9489 24.579 29.1397 24.7197 29.2803C24.8603 29.421 25.0511 29.5 25.25 29.5H29.75C29.9489 29.5 30.1397 29.421 30.2803 29.2803C30.421 29.1397 30.5 28.9489 30.5 28.75V24.25C30.5 24.0511 30.421 23.8603 30.2803 23.7197C30.1397 23.579 29.9489 23.5 29.75 23.5H25.25Z" fill="#8C0404"/>
</svg>
