<svg width="55" height="53" viewBox="0 0 55 53" fill="none" xmlns="http://www.w3.org/2000/svg">
<ellipse cx="27.5" cy="26.5" rx="27.5" ry="26.5" fill="#FAE2E4"/>
<ellipse cx="27.5" cy="26.5" rx="27.5" ry="26.5" fill="#FAE2E4"/>
<g clip-path="url(#clip0_499_4068)">
<path d="M28.7099 15.0054C28.6593 14.8575 28.5636 14.7292 28.4364 14.6383C28.3092 14.5474 28.1568 14.4985 28.0004 14.4985C27.8441 14.4985 27.6917 14.5474 27.5645 14.6383C27.4373 14.7292 27.3416 14.8575 27.2909 15.0054L26.4314 17.4999H29.5694L28.7099 15.0054ZM34.2254 30.9999H32.6384L34.7909 37.2444C34.8558 37.4326 34.9927 37.5873 35.1716 37.6745C35.3506 37.7617 35.5568 37.7743 35.7449 37.7094C35.9331 37.6446 36.0878 37.5076 36.175 37.3287C36.2622 37.1498 36.2748 36.9436 36.2099 36.7554L34.2254 30.9999ZM28.7504 30.9999H27.2504V34.7499C27.2504 34.9488 27.3295 35.1396 27.4701 35.2802C27.6108 35.4209 27.8015 35.4999 28.0004 35.4999C28.1994 35.4999 28.3901 35.4209 28.5308 35.2802C28.6714 35.1396 28.7504 34.9488 28.7504 34.7499V30.9999ZM23.3624 30.9999H21.7754L19.7909 36.7554C19.7261 36.9436 19.7387 37.1498 19.8259 37.3287C19.9131 37.5076 20.0678 37.6446 20.2559 37.7094C20.4441 37.7743 20.6503 37.7617 20.8293 37.6745C21.0082 37.5873 21.1451 37.4326 21.2099 37.2444L23.3624 30.9999Z" fill="#8C0404"/>
<path fill-rule="evenodd" clip-rule="evenodd" d="M37 19H19V29.5H37V19ZM19 17.5C18.6022 17.5 18.2206 17.658 17.9393 17.9393C17.658 18.2206 17.5 18.6022 17.5 19V29.5C17.5 29.8978 17.658 30.2794 17.9393 30.5607C18.2206 30.842 18.6022 31 19 31H37C37.3978 31 37.7794 30.842 38.0607 30.5607C38.342 30.2794 38.5 29.8978 38.5 29.5V19C38.5 18.6022 38.342 18.2206 38.0607 17.9393C37.7794 17.658 37.3978 17.5 37 17.5H19Z" fill="#8C0404"/>
</g>
<defs>
<clipPath id="clip0_499_4068">
<rect width="24" height="24" fill="white" transform="translate(16 14.5)"/>
</clipPath>
</defs>
</svg>
