<svg width="21" height="22" viewBox="0 0 21 22" fill="none" xmlns="http://www.w3.org/2000/svg">
<path d="M10.7441 1.43172C10.5874 1.36562 10.4126 1.36562 10.2559 1.43172L2.42287 4.72969L5.57812 6.05745L13.6553 2.65724L10.7441 1.43172ZM15.4219 3.40194L7.34475 6.80215L10.5 8.1299L18.5771 4.72969L15.4219 3.40194ZM19.6875 5.75072L11.1562 9.34298V20.2883L19.6875 16.6961V5.75072ZM9.84375 20.2897V9.3416L1.3125 5.75072V16.6974L9.84375 20.2897ZM9.76894 0.148181C10.2382 -0.0493938 10.7618 -0.0493938 11.2311 0.148181L20.5879 4.08861C20.7095 4.13993 20.8138 4.22842 20.8872 4.34268C20.9607 4.45694 21 4.59173 21 4.72969V16.6974C20.9998 16.9735 20.9211 17.2432 20.774 17.4718C20.6268 17.7003 20.418 17.8772 20.1744 17.9796L10.7441 21.9504C10.5874 22.0165 10.4126 22.0165 10.2559 21.9504L0.826875 17.9796C0.58308 17.8774 0.373987 17.7006 0.226593 17.472C0.0791985 17.2435 0.000270807 16.9737 0 16.6974L0 4.72969C3.05024e-05 4.59173 0.0393012 4.45694 0.112753 4.34268C0.186205 4.22842 0.290473 4.13993 0.412125 4.08861L9.76894 0.148181Z" fill="white"/>
</svg>
