<svg width="20" height="20" viewBox="0 0 20 20" fill="none" xmlns="http://www.w3.org/2000/svg">
<path fill-rule="evenodd" clip-rule="evenodd" d="M0 0.65625C0 0.482202 0.0691404 0.315282 0.192211 0.192211C0.315282 0.0691404 0.482202 0 0.65625 0H2.625C2.77138 4.04401e-05 2.91355 0.0490228 3.0289 0.139157C3.14424 0.229292 3.22614 0.355404 3.26156 0.497437L3.79313 2.625H19.0313C19.1276 2.62509 19.2228 2.6464 19.31 2.68741C19.3972 2.72842 19.4743 2.78814 19.5358 2.8623C19.5973 2.93647 19.6417 3.02328 19.6659 3.11655C19.6901 3.20983 19.6934 3.30729 19.6757 3.402L17.7069 13.902C17.6788 14.0524 17.599 14.1882 17.4813 14.286C17.3636 14.3838 17.2155 14.4374 17.0625 14.4375H5.25C5.097 14.4374 4.94887 14.3838 4.8312 14.286C4.71352 14.1882 4.63371 14.0524 4.60556 13.902L2.63813 3.42169L2.11313 1.3125H0.65625C0.482202 1.3125 0.315282 1.24336 0.192211 1.12029C0.0691404 0.997218 0 0.830298 0 0.65625ZM4.07138 3.9375L5.79469 13.125H16.5178L18.2411 3.9375H4.07138ZM6.5625 14.4375C5.86631 14.4375 5.19863 14.7141 4.70635 15.2063C4.21406 15.6986 3.9375 16.3663 3.9375 17.0625C3.9375 17.7587 4.21406 18.4264 4.70635 18.9187C5.19863 19.4109 5.86631 19.6875 6.5625 19.6875C7.25869 19.6875 7.92637 19.4109 8.41866 18.9187C8.91094 18.4264 9.1875 17.7587 9.1875 17.0625C9.1875 16.3663 8.91094 15.6986 8.41866 15.2063C7.92637 14.7141 7.25869 14.4375 6.5625 14.4375ZM15.75 14.4375C15.0538 14.4375 14.3861 14.7141 13.8938 15.2063C13.4016 15.6986 13.125 16.3663 13.125 17.0625C13.125 17.7587 13.4016 18.4264 13.8938 18.9187C14.3861 19.4109 15.0538 19.6875 15.75 19.6875C16.4462 19.6875 17.1139 19.4109 17.6062 18.9187C18.0984 18.4264 18.375 17.7587 18.375 17.0625C18.375 16.3663 18.0984 15.6986 17.6062 15.2063C17.1139 14.7141 16.4462 14.4375 15.75 14.4375ZM6.5625 15.75C6.2144 15.75 5.88056 15.8883 5.63442 16.1344C5.38828 16.3806 5.25 16.7144 5.25 17.0625C5.25 17.4106 5.38828 17.7444 5.63442 17.9906C5.88056 18.2367 6.2144 18.375 6.5625 18.375C6.9106 18.375 7.24444 18.2367 7.49058 17.9906C7.73672 17.7444 7.875 17.4106 7.875 17.0625C7.875 16.7144 7.73672 16.3806 7.49058 16.1344C7.24444 15.8883 6.9106 15.75 6.5625 15.75ZM15.75 15.75C15.4019 15.75 15.0681 15.8883 14.8219 16.1344C14.5758 16.3806 14.4375 16.7144 14.4375 17.0625C14.4375 17.4106 14.5758 17.7444 14.8219 17.9906C15.0681 18.2367 15.4019 18.375 15.75 18.375C16.0981 18.375 16.4319 18.2367 16.6781 17.9906C16.9242 17.7444 17.0625 17.4106 17.0625 17.0625C17.0625 16.7144 16.9242 16.3806 16.6781 16.1344C16.4319 15.8883 16.0981 15.75 15.75 15.75Z" fill="white"/>
</svg>
