<svg width="21" height="22" viewBox="0 0 21 22" fill="none" xmlns="http://www.w3.org/2000/svg">
<path d="M12.4688 0C12.6428 0 12.8097 0.0724328 12.9328 0.201364C13.0559 0.330295 13.125 0.505164 13.125 0.6875C13.125 0.869836 13.1941 1.0447 13.3172 1.17364C13.4403 1.30257 13.6072 1.375 13.7812 1.375C13.9553 1.375 14.1222 1.44743 14.2453 1.57636C14.3684 1.7053 14.4375 1.88016 14.4375 2.0625V2.75C14.4375 2.93234 14.3684 3.1072 14.2453 3.23614C14.1222 3.36507 13.9553 3.4375 13.7812 3.4375H7.21875C7.0447 3.4375 6.87778 3.36507 6.75471 3.23614C6.63164 3.1072 6.5625 2.93234 6.5625 2.75V2.0625C6.5625 1.88016 6.63164 1.7053 6.75471 1.57636C6.87778 1.44743 7.0447 1.375 7.21875 1.375C7.3928 1.375 7.55972 1.30257 7.68279 1.17364C7.80586 1.0447 7.875 0.869836 7.875 0.6875C7.875 0.505164 7.94414 0.330295 8.06721 0.201364C8.19028 0.0724328 8.3572 0 8.53125 0L12.4688 0Z" fill="white"/>
<path d="M3.9375 3.4375C3.9375 3.25516 4.00664 3.0803 4.12971 2.95136C4.25278 2.82243 4.4197 2.75 4.59375 2.75H5.25C5.42405 2.75 5.59097 2.67757 5.71404 2.54864C5.83711 2.4197 5.90625 2.24484 5.90625 2.0625C5.90625 1.88016 5.83711 1.7053 5.71404 1.57636C5.59097 1.44743 5.42405 1.375 5.25 1.375H4.59375C4.07161 1.375 3.57085 1.5923 3.20163 1.97909C2.83242 2.36589 2.625 2.89049 2.625 3.4375V19.9375C2.625 20.4845 2.83242 21.0091 3.20163 21.3959C3.57085 21.7827 4.07161 22 4.59375 22H16.4062C16.9284 22 17.4292 21.7827 17.7984 21.3959C18.1676 21.0091 18.375 20.4845 18.375 19.9375V3.4375C18.375 2.89049 18.1676 2.36589 17.7984 1.97909C17.4292 1.5923 16.9284 1.375 16.4062 1.375H15.75C15.576 1.375 15.409 1.44743 15.286 1.57636C15.1629 1.7053 15.0938 1.88016 15.0938 2.0625C15.0938 2.24484 15.1629 2.4197 15.286 2.54864C15.409 2.67757 15.576 2.75 15.75 2.75H16.4062C16.5803 2.75 16.7472 2.82243 16.8703 2.95136C16.9934 3.0803 17.0625 3.25516 17.0625 3.4375V19.9375C17.0625 20.1198 16.9934 20.2947 16.8703 20.4236C16.7472 20.5526 16.5803 20.625 16.4062 20.625H4.59375C4.4197 20.625 4.25278 20.5526 4.12971 20.4236C4.00664 20.2947 3.9375 20.1198 3.9375 19.9375V3.4375Z" fill="white"/>
<path d="M14.2459 10.7993C14.3691 10.6702 14.4383 10.4951 14.4383 10.3125C14.4383 10.1299 14.3691 9.95486 14.2459 9.82576C14.1226 9.69667 13.9555 9.62415 13.7812 9.62415C13.607 9.62415 13.4398 9.69667 13.3166 9.82576L9.84372 13.4654L8.3396 11.8883C8.21637 11.7592 8.04924 11.6866 7.87497 11.6866C7.70071 11.6866 7.53358 11.7592 7.41035 11.8883C7.28712 12.0174 7.2179 12.1924 7.2179 12.375C7.2179 12.5576 7.28712 12.7327 7.41035 12.8618L9.3791 14.9243C9.44006 14.9883 9.51248 15.0391 9.59221 15.0737C9.67193 15.1084 9.75741 15.1262 9.84372 15.1262C9.93004 15.1262 10.0155 15.1084 10.0952 15.0737C10.175 15.0391 10.2474 14.9883 10.3083 14.9243L14.2459 10.7993Z" fill="white"/>
</svg>
