<svg width="30" height="29" viewBox="0 0 30 29" fill="none" xmlns="http://www.w3.org/2000/svg">
<g clip-path="url(#clip0_149_696)">
<path d="M25.2465 22.4206C23.9153 20.3471 20.9846 18.125 14.994 18.125C9.00339 18.125 6.07464 20.3453 4.74152 22.4206C5.9698 23.9091 7.52948 25.1107 9.30454 25.936C11.0796 26.7613 13.0243 27.1891 14.994 27.1875C16.9637 27.1891 18.9084 26.7613 20.6835 25.936C22.4585 25.1107 24.0182 23.9091 25.2465 22.4206Z" fill="#8C0404"/>
<path fill-rule="evenodd" clip-rule="evenodd" d="M14.9954 16.3125C16.4872 16.3125 17.9179 15.7396 18.9728 14.7199C20.0277 13.7002 20.6204 12.3171 20.6204 10.875C20.6204 9.43289 20.0277 8.04984 18.9728 7.03011C17.9179 6.01038 16.4872 5.4375 14.9954 5.4375C13.5035 5.4375 12.0728 6.01038 11.0179 7.03011C9.96299 8.04984 9.37036 9.43289 9.37036 10.875C9.37036 12.3171 9.96299 13.7002 11.0179 14.7199C12.0728 15.7396 13.5035 16.3125 14.9954 16.3125Z" fill="#8C0404"/>
<path fill-rule="evenodd" clip-rule="evenodd" d="M14.9954 1.8125C11.5144 1.8125 8.176 3.14921 5.71458 5.52858C3.25317 7.90795 1.87036 11.1351 1.87036 14.5C1.87036 17.8649 3.25317 21.092 5.71458 23.4714C8.176 25.8508 11.5144 27.1875 14.9954 27.1875C18.4763 27.1875 21.8147 25.8508 24.2761 23.4714C26.7376 21.092 28.1204 17.8649 28.1204 14.5C28.1204 11.1351 26.7376 7.90795 24.2761 5.52858C21.8147 3.14921 18.4763 1.8125 14.9954 1.8125ZM-0.00463867 14.5C-0.00463867 10.6544 1.57571 6.96623 4.38876 4.24695C7.20181 1.52767 11.0171 0 14.9954 0C18.9736 0 22.7889 1.52767 25.602 4.24695C28.415 6.96623 29.9954 10.6544 29.9954 14.5C29.9954 18.3456 28.415 22.0338 25.602 24.753C22.7889 27.4723 18.9736 29 14.9954 29C11.0171 29 7.20181 27.4723 4.38876 24.753C1.57571 22.0338 -0.00463867 18.3456 -0.00463867 14.5Z" fill="#8C0404"/>
</g>
<defs>
<clipPath id="clip0_149_696">
<rect width="30" height="29" fill="white" transform="translate(-0.00463867)"/>
</clipPath>
</defs>
</svg>
