<svg width="19" height="19" viewBox="0 0 19 19" fill="none" xmlns="http://www.w3.org/2000/svg">
<path d="M4.75 0H11.2812V1.1875H4.75C4.43506 1.1875 4.13301 1.31261 3.91031 1.53531C3.68761 1.75801 3.5625 2.06006 3.5625 2.375V16.625C3.5625 16.9399 3.68761 17.242 3.91031 17.4647C4.13301 17.6874 4.43506 17.8125 4.75 17.8125H14.25C14.5649 17.8125 14.867 17.6874 15.0897 17.4647C15.3124 17.242 15.4375 16.9399 15.4375 16.625V5.34375H16.625V16.625C16.625 17.2549 16.3748 17.859 15.9294 18.3044C15.484 18.7498 14.8799 19 14.25 19H4.75C4.12011 19 3.51602 18.7498 3.07062 18.3044C2.62522 17.859 2.375 17.2549 2.375 16.625V2.375C2.375 1.74511 2.62522 1.14102 3.07062 0.695621C3.51602 0.250223 4.12011 0 4.75 0V0Z" fill="white"/>
<path d="M11.2812 3.5625V0L16.625 5.34375H13.0625C12.5901 5.34375 12.137 5.15608 11.803 4.82203C11.4689 4.48799 11.2813 4.03492 11.2812 3.5625V3.5625Z" fill="white"/>
<path fill-rule="evenodd" clip-rule="evenodd" d="M9.5 7.71875C9.65747 7.71875 9.8085 7.78131 9.91985 7.89266C10.0312 8.00401 10.0938 8.15503 10.0938 8.3125V10.0938H11.875C12.0325 10.0938 12.1835 10.1563 12.2948 10.2677C12.4062 10.379 12.4688 10.53 12.4688 10.6875C12.4688 10.845 12.4062 10.996 12.2948 11.1073C12.1835 11.2187 12.0325 11.2812 11.875 11.2812H10.0938V13.0625C10.0938 13.22 10.0312 13.371 9.91985 13.4823C9.8085 13.5937 9.65747 13.6562 9.5 13.6562C9.34253 13.6562 9.19151 13.5937 9.08016 13.4823C8.96881 13.371 8.90625 13.22 8.90625 13.0625V11.2812H7.125C6.96753 11.2812 6.81651 11.2187 6.70516 11.1073C6.59381 10.996 6.53125 10.845 6.53125 10.6875C6.53125 10.53 6.59381 10.379 6.70516 10.2677C6.81651 10.1563 6.96753 10.0938 7.125 10.0938H8.90625V8.3125C8.90625 8.15503 8.96881 8.00401 9.08016 7.89266C9.19151 7.78131 9.34253 7.71875 9.5 7.71875V7.71875Z" fill="white"/>
</svg>
