<svg width="25" height="24" viewBox="0 0 25 24" fill="none" xmlns="http://www.w3.org/2000/svg">
<g clip-path="url(#clip0_149_697)">
<path d="M12.1838 24C12.9916 24 13.7663 23.6839 14.3376 23.1213C14.9088 22.5587 15.2297 21.7956 15.2297 21H9.13783C9.13783 21.7956 9.45874 22.5587 10.03 23.1213C10.6012 23.6839 11.3759 24 12.1838 24Z" fill="#8C0404"/>
<path fill-rule="evenodd" clip-rule="evenodd" d="M12.1838 2.87685L10.97 3.11835C9.59313 3.39465 8.35552 4.131 7.4666 5.20278C6.57767 6.27456 6.09204 7.61593 6.09188 8.99985C6.09189 9.94185 5.88781 12.2953 5.39284 14.6128C5.14917 15.7633 4.8202 16.9618 4.38311 17.9998H19.9844C19.5473 16.9618 19.2199 15.7648 18.9747 14.6128C18.4797 12.2953 18.2757 9.94185 18.2757 8.99985C18.2752 7.61618 17.7894 6.27517 16.9005 5.2037C16.0116 4.13223 14.7741 3.3961 13.3976 3.11985L12.1838 2.87535V2.87685ZM21.6566 17.9998C21.9963 18.6703 22.3892 19.2013 22.8446 19.4998H1.52297C1.97834 19.2013 2.37127 18.6703 2.71089 17.9998C4.08156 15.2998 4.56891 10.3198 4.56891 8.99985C4.56891 5.36985 7.18842 2.33985 10.6684 1.64835C10.6472 1.43978 10.6705 1.22914 10.737 1.03001C10.8035 0.830878 10.9116 0.647682 11.0544 0.492235C11.1971 0.336787 11.3714 0.212539 11.5659 0.127504C11.7605 0.0424694 11.9709 -0.00146484 12.1838 -0.00146484C12.3966 -0.00146484 12.6071 0.0424694 12.8016 0.127504C12.9961 0.212539 13.1704 0.336787 13.3132 0.492235C13.4559 0.647682 13.5641 0.830878 13.6305 1.03001C13.697 1.22914 13.7204 1.43978 13.6991 1.64835C15.4205 1.9932 16.968 2.91339 18.0795 4.2531C19.1911 5.59281 19.7984 7.26971 19.7986 8.99985C19.7986 10.3198 20.286 15.2998 21.6566 17.9998Z" fill="#8C0404"/>
<ellipse cx="21.3216" cy="2" rx="2.03063" ry="2" fill="#85CD00"/>
</g>
<defs>
<clipPath id="clip0_149_697">
<rect width="24.3675" height="24" fill="white"/>
</clipPath>
</defs>
</svg>
