<svg width="24" height="23" viewBox="0 0 24 23" fill="none" xmlns="http://www.w3.org/2000/svg">
<g clip-path="url(#clip0_394_429)">
<path fill-rule="evenodd" clip-rule="evenodd" d="M0.5 3.25C0.5 2.88533 0.65145 2.53559 0.921034 2.27773C1.19062 2.01987 1.55625 1.875 1.9375 1.875H22.0625C22.4437 1.875 22.8094 2.01987 23.079 2.27773C23.3485 2.53559 23.5 2.88533 23.5 3.25V6C23.5 6.36467 23.3485 6.71441 23.079 6.97227C22.8094 7.23013 22.4437 7.375 22.0625 7.375V17.6875C22.0625 18.5992 21.6839 19.4735 21.0099 20.1182C20.336 20.7628 19.4219 21.125 18.4688 21.125H5.53125C4.57813 21.125 3.66404 20.7628 2.99009 20.1182C2.31613 19.4735 1.9375 18.5992 1.9375 17.6875V7.375C1.55625 7.375 1.19062 7.23013 0.921034 6.97227C0.65145 6.71441 0.5 6.36467 0.5 6V3.25ZM3.375 7.375V17.6875C3.375 18.2345 3.60218 18.7591 4.00655 19.1459C4.41093 19.5327 4.95938 19.75 5.53125 19.75H18.4688C19.0406 19.75 19.5891 19.5327 19.9935 19.1459C20.3978 18.7591 20.625 18.2345 20.625 17.6875V7.375H3.375ZM22.0625 3.25H1.9375V6H22.0625V3.25ZM7.6875 10.8125C7.6875 10.6302 7.76323 10.4553 7.89802 10.3264C8.03281 10.1974 8.21563 10.125 8.40625 10.125H15.5938C15.7844 10.125 15.9672 10.1974 16.102 10.3264C16.2368 10.4553 16.3125 10.6302 16.3125 10.8125C16.3125 10.9948 16.2368 11.1697 16.102 11.2986C15.9672 11.4276 15.7844 11.5 15.5938 11.5H8.40625C8.21563 11.5 8.03281 11.4276 7.89802 11.2986C7.76323 11.1697 7.6875 10.9948 7.6875 10.8125Z" fill="white"/>
</g>
<defs>
<clipPath id="clip0_394_429">
<rect width="23" height="22" fill="white" transform="translate(0.5 0.5)"/>
</clipPath>
</defs>
</svg>
