<svg width="55" height="53" viewBox="0 0 55 53" fill="none" xmlns="http://www.w3.org/2000/svg">
<ellipse cx="27.5" cy="26.5" rx="27.5" ry="26.5" fill="#FAE2E4"/>
<path d="M27.9084 13.5867C27.7803 13.5296 27.6408 13.5 27.4995 13.5C27.3583 13.5 27.2188 13.5296 27.0907 13.5867L12.559 20.0869C12.3879 20.1634 12.2439 20.2863 12.1446 20.4402C12.0454 20.5942 11.9952 20.7727 12.0004 20.9536C12.0055 21.1346 12.0657 21.3101 12.1736 21.4587C12.2814 21.6073 12.4322 21.7224 12.6075 21.7899L27.1392 27.3615C27.3705 27.4503 27.6286 27.4503 27.8599 27.3615L39.1249 23.0454V33.9285C38.611 33.9285 38.1182 34.1241 37.7548 34.4724C37.3915 34.8207 37.1873 35.2931 37.1873 35.7856V39.5H43V35.7856C43 35.2931 42.7959 34.8207 42.4325 34.4724C42.0691 34.1241 41.5763 33.9285 41.0624 33.9285V22.3006L42.3916 21.7899C42.5668 21.7224 42.7176 21.6073 42.8255 21.4587C42.9334 21.3101 42.9936 21.1346 42.9987 20.9536C43.0039 20.7727 42.9537 20.5942 42.8545 20.4402C42.7552 20.2863 42.6112 20.1634 42.44 20.0869L27.9084 13.5867ZM27.4995 25.4968L15.4053 20.8632L27.4995 15.4532L39.5938 20.8632L27.4995 25.4968Z" fill="#8C0404"/>
<path d="M20.091 28.435C19.9663 28.3895 19.8332 28.3695 19.7001 28.376C19.5669 28.3826 19.4366 28.4157 19.3173 28.4733C19.198 28.5308 19.0923 28.6116 19.0067 28.7105C18.9211 28.8094 18.8576 28.9244 18.82 29.0481L17.8513 32.2356C17.7834 32.4594 17.8042 32.6996 17.9095 32.9094C18.0148 33.1191 18.1972 33.2834 18.4209 33.37L27.1396 36.745C27.371 36.8347 27.6291 36.8347 27.8604 36.745L36.5791 33.37C36.8029 33.2834 36.9852 33.1191 37.0905 32.9094C37.1959 32.6996 37.2166 32.4594 37.1488 32.2356L36.18 29.0481C36.1425 28.9244 36.0789 28.8094 35.9933 28.7105C35.9078 28.6116 35.802 28.5308 35.6827 28.4733C35.5634 28.4157 35.4331 28.3826 35.3 28.376C35.1669 28.3695 35.0338 28.3895 34.909 28.435L27.5 31.1238L20.091 28.435ZM19.9593 31.9469L20.3855 30.5444L27.159 33.0025C27.3788 33.0825 27.6212 33.0825 27.841 33.0025L34.6145 30.5444L35.0408 31.9469L27.5 34.8625L19.9593 31.9469Z" fill="#8C0404"/>
</svg>
