<svg width="55" height="53" viewBox="0 0 55 53" fill="none" xmlns="http://www.w3.org/2000/svg">
<ellipse cx="27.5" cy="26.5" rx="27.5" ry="26.5" fill="#8C0404"/>
<g clip-path="url(#clip0_1887_5727)">
<path fill-rule="evenodd" clip-rule="evenodd" d="M18.5 18.25C18.5 17.2554 18.8951 16.3016 19.5983 15.5983C20.3016 14.8951 21.2554 14.5 22.25 14.5H32.75C33.7446 14.5 34.6984 14.8951 35.4016 15.5983C36.1049 16.3016 36.5 17.2554 36.5 18.25V35.5C36.5 36.2956 36.1839 37.0587 35.6213 37.6213C35.0587 38.1839 34.2956 38.5 33.5 38.5H21.5C20.7044 38.5 19.9413 38.1839 19.3787 37.6213C18.8161 37.0587 18.5 36.2956 18.5 35.5V18.25ZM22.25 16C21.6533 16 21.081 16.2371 20.659 16.659C20.2371 17.081 20 17.6533 20 18.25V34.4425C20.3598 34.1547 20.7502 33.9072 21.164 33.7045C22.412 33.0805 24.4055 32.5 27.5 32.5C30.5945 32.5 32.588 33.0805 33.836 33.7045C34.2498 33.9072 34.6402 34.1547 35 34.4425V18.25C35 17.6533 34.7629 17.081 34.341 16.659C33.919 16.2371 33.3467 16 32.75 16H22.25Z" fill="white"/>
<path fill-rule="evenodd" clip-rule="evenodd" d="M27.5 31C28.6935 31 29.8381 30.5259 30.682 29.682C31.5259 28.8381 32 27.6935 32 26.5C32 25.3065 31.5259 24.1619 30.682 23.318C29.8381 22.4741 28.6935 22 27.5 22C26.3065 22 25.1619 22.4741 24.318 23.318C23.4741 24.1619 23 25.3065 23 26.5C23 27.6935 23.4741 28.8381 24.318 29.682C25.1619 30.5259 26.3065 31 27.5 31ZM24.5 18.25C24.5 18.0511 24.579 17.8603 24.7197 17.7197C24.8603 17.579 25.0511 17.5 25.25 17.5H29.75C29.9489 17.5 30.1397 17.579 30.2803 17.7197C30.421 17.8603 30.5 18.0511 30.5 18.25C30.5 18.4489 30.421 18.6397 30.2803 18.7803C30.1397 18.921 29.9489 19 29.75 19H25.25C25.0511 19 24.8603 18.921 24.7197 18.7803C24.579 18.6397 24.5 18.4489 24.5 18.25Z" fill="white"/>
</g>
<defs>
<clipPath id="clip0_1887_5727">
<rect width="24" height="24" fill="white" transform="translate(15.5 14.5)"/>
</clipPath>
</defs>
</svg>
