<svg width="55" height="53" viewBox="0 0 55 53" fill="none" xmlns="http://www.w3.org/2000/svg">
<ellipse cx="27.5" cy="26.5" rx="27.5" ry="26.5" fill="#FAE2E4"/>
<g clip-path="url(#clip0_77_169)">
<path fill-rule="evenodd" clip-rule="evenodd" d="M15.5 33.25C15.5 33.8467 15.7371 34.419 16.159 34.841C16.581 35.2629 17.1533 35.5 17.75 35.5H37.25C37.8467 35.5 38.419 35.2629 38.841 34.841C39.2629 34.419 39.5 33.8467 39.5 33.25V24.25H38V33.25C38 33.4489 37.921 33.6397 37.7803 33.7803C37.6397 33.921 37.4489 34 37.25 34H17.75C17.5511 34 17.3603 33.921 17.2197 33.7803C17.079 33.6397 17 33.4489 17 33.25V24.25H15.5V33.25Z" fill="#8C0404"/>
<path fill-rule="evenodd" clip-rule="evenodd" d="M15.5 21.25C15.5 20.6533 15.7371 20.081 16.159 19.659C16.581 19.2371 17.1533 19 17.75 19H37.25C37.8467 19 38.419 19.2371 38.841 19.659C39.2629 20.081 39.5 20.6533 39.5 21.25V24.826L28.079 27.871C27.6996 27.972 27.3004 27.972 26.921 27.871L15.5 24.826V21.25ZM17.75 20.5C17.5511 20.5 17.3603 20.579 17.2197 20.7197C17.079 20.8603 17 21.0511 17 21.25V23.674L27.3065 26.422C27.4333 26.4559 27.5667 26.4559 27.6935 26.422L38 23.674V21.25C38 21.0511 37.921 20.8603 37.7803 20.7197C37.6397 20.579 37.4489 20.5 37.25 20.5H17.75ZM23 18.25C23 17.6533 23.2371 17.081 23.659 16.659C24.081 16.2371 24.6533 16 25.25 16H29.75C30.3467 16 30.919 16.2371 31.341 16.659C31.7629 17.081 32 17.6533 32 18.25V19H30.5V18.25C30.5 18.0511 30.421 17.8603 30.2803 17.7197C30.1397 17.579 29.9489 17.5 29.75 17.5H25.25C25.0511 17.5 24.8603 17.579 24.7197 17.7197C24.579 17.8603 24.5 18.0511 24.5 18.25V19H23V18.25Z" fill="#8C0404"/>
</g>
<defs>
<clipPath id="clip0_77_169">
<rect width="24" height="24" fill="white" transform="translate(15.5 14.5)"/>
</clipPath>
</defs>
</svg>
