<svg width="18" height="19" viewBox="0 0 18 19" fill="none" xmlns="http://www.w3.org/2000/svg">
<path d="M9.20925 1.23649C9.07494 1.1794 8.92506 1.1794 8.79075 1.23649L2.07675 4.08473L4.78125 5.23143L11.7045 2.29488L9.20925 1.23649ZM13.2188 2.93804L6.2955 5.87458L9 7.02128L15.9233 4.08473L13.2188 2.93804ZM16.875 4.96653L9.5625 8.06894V17.5217L16.875 14.4193V4.96653ZM8.4375 17.5229V8.06774L1.125 4.96653V14.4205L8.4375 17.5229ZM8.37337 0.127975C8.77564 -0.0426583 9.22436 -0.0426583 9.62663 0.127975L17.6467 3.53107C17.751 3.5754 17.8404 3.65182 17.9034 3.7505C17.9663 3.84917 18 3.96559 18 4.08473V14.4205C17.9999 14.6589 17.9324 14.8919 17.8062 15.0892C17.6801 15.2866 17.5011 15.4394 17.2924 15.5278L9.20925 18.9572C9.07494 19.0143 8.92506 19.0143 8.79075 18.9572L0.70875 15.5278C0.499783 15.4396 0.32056 15.2869 0.194222 15.0895C0.0678844 14.8921 0.00023212 14.6591 0 14.4205L0 4.08473C2.61449e-05 3.96559 0.0336867 3.84917 0.0966454 3.7505C0.159604 3.65182 0.248977 3.5754 0.35325 3.53107L8.37337 0.127975Z" fill="white"/>
</svg>
