<svg width="55" height="53" viewBox="0 0 55 53" fill="none" xmlns="http://www.w3.org/2000/svg">
<ellipse cx="27.5" cy="26.5" rx="27.5" ry="26.5" fill="#8C0404"/>
<g clip-path="url(#clip0_1887_5735)">
<path fill-rule="evenodd" clip-rule="evenodd" d="M33.704 14.9891C34.0356 14.9062 34.3817 14.8999 34.7161 14.9707C35.0505 15.0415 35.3644 15.1876 35.6339 15.3978C35.9034 15.608 36.1214 15.8769 36.2715 16.184C36.4216 16.4911 36.4997 16.8283 36.5 17.1701V19.0001H37.25C37.8467 19.0001 38.419 19.2372 38.841 19.6591C39.2629 20.0811 39.5 20.6534 39.5 21.2501V34.7501C39.5 35.3469 39.2629 35.9192 38.841 36.3411C38.419 36.7631 37.8467 37.0001 37.25 37.0001H17.75C17.1533 37.0001 16.581 36.7631 16.159 36.3411C15.7371 35.9192 15.5 35.3469 15.5 34.7501V21.2501C15.4998 20.6709 15.723 20.1139 16.1231 19.6951C16.5232 19.2763 17.0694 19.0279 17.648 19.0016L33.704 14.9891ZM23.843 19.0001H35V17.1701C34.9997 17.0563 34.9736 16.9441 34.9235 16.8419C34.8735 16.7397 34.8008 16.6502 34.7111 16.5803C34.6213 16.5103 34.5168 16.4617 34.4055 16.4381C34.2941 16.4145 34.1789 16.4166 34.0685 16.4441L23.843 19.0001ZM17.75 20.5001C17.5511 20.5001 17.3603 20.5791 17.2197 20.7198C17.079 20.8605 17 21.0512 17 21.2501V34.7501C17 34.949 17.079 35.1398 17.2197 35.2805C17.3603 35.4211 17.5511 35.5001 17.75 35.5001H37.25C37.4489 35.5001 37.6397 35.4211 37.7803 35.2805C37.921 35.1398 38 34.949 38 34.7501V21.2501C38 21.0512 37.921 20.8605 37.7803 20.7198C37.6397 20.5791 37.4489 20.5001 37.25 20.5001H17.75Z" fill="white"/>
</g>
<defs>
<clipPath id="clip0_1887_5735">
<rect width="24" height="24" fill="white" transform="translate(15.5 14.5)"/>
</clipPath>
</defs>
</svg>
