<svg width="55" height="53" viewBox="0 0 55 53" fill="none" xmlns="http://www.w3.org/2000/svg">
<ellipse cx="27.5" cy="26.5" rx="27.5" ry="26.5" fill="#8C0404"/>
<path d="M27.9084 13.5867C27.7803 13.5296 27.6408 13.5 27.4995 13.5C27.3583 13.5 27.2188 13.5296 27.0907 13.5867L12.559 20.0869C12.3879 20.1634 12.2439 20.2863 12.1446 20.4402C12.0454 20.5942 11.9952 20.7727 12.0004 20.9536C12.0055 21.1346 12.0657 21.3101 12.1736 21.4587C12.2814 21.6073 12.4322 21.7224 12.6075 21.7899L27.1392 27.3615C27.3705 27.4503 27.6286 27.4503 27.8599 27.3615L39.1249 23.0454V33.9285C38.611 33.9285 38.1182 34.1241 37.7548 34.4724C37.3915 34.8207 37.1873 35.2931 37.1873 35.7856V39.5H43V35.7856C43 35.2931 42.7959 34.8207 42.4325 34.4724C42.0691 34.1241 41.5763 33.9285 41.0624 33.9285V22.3006L42.3916 21.7899C42.5668 21.7224 42.7176 21.6073 42.8255 21.4587C42.9334 21.3101 42.9936 21.1346 42.9987 20.9536C43.0039 20.7727 42.9537 20.5942 42.8545 20.4402C42.7552 20.2863 42.6112 20.1634 42.44 20.0869L27.9084 13.5867ZM27.4995 25.4968L15.4053 20.8632L27.4995 15.4532L39.5938 20.8632L27.4995 25.4968Z" fill="white"/>
<path d="M20.0914 28.4349C19.9667 28.3895 19.8336 28.3694 19.7005 28.376C19.5673 28.3826 19.4371 28.4157 19.3178 28.4732C19.1985 28.5308 19.0927 28.6115 19.0071 28.7104C18.9216 28.8094 18.858 28.9243 18.8204 29.0481L17.8517 32.2356C17.7838 32.4593 17.8046 32.6996 17.9099 32.9093C18.0153 33.1191 18.1976 33.2833 18.4213 33.3699L27.1401 36.7449C27.3714 36.8347 27.6295 36.8347 27.8608 36.7449L36.5796 33.3699C36.8033 33.2833 36.9856 33.1191 37.091 32.9093C37.1963 32.6996 37.2171 32.4593 37.1492 32.2356L36.1804 29.0481C36.1429 28.9243 36.0793 28.8094 35.9938 28.7104C35.9082 28.6115 35.8024 28.5308 35.6831 28.4732C35.5638 28.4157 35.4335 28.3826 35.3004 28.376C35.1673 28.3694 35.0342 28.3895 34.9095 28.4349L27.5004 31.1237L20.0914 28.4349ZM19.9597 31.9468L20.3859 30.5443L27.1594 33.0024C27.3793 33.0824 27.6216 33.0824 27.8414 33.0024L34.6149 30.5443L35.0412 31.9468L27.5004 34.8624L19.9597 31.9468Z" fill="white"/>
</svg>
