<svg width="1163" height="445" viewBox="0 0 1163 445" fill="none" xmlns="http://www.w3.org/2000/svg">
<path d="M848.058 168.75H717.107L681.771 218.636H848.058V268.766H650.593L615.257 318.651H848.058V387H582V96H848.058V168.75Z" fill="#8C0404"/>
<path d="M248.261 183.307C247.314 172.89 243.1 164.794 235.619 159.017C228.233 153.146 217.674 150.21 203.943 150.21C194.852 150.21 187.277 151.394 181.216 153.761C175.155 156.129 170.61 159.396 167.58 163.562C164.549 167.634 162.987 172.322 162.892 177.625C162.703 181.981 163.555 185.816 165.449 189.131C167.438 192.445 170.278 195.381 173.972 197.938C177.759 200.4 182.305 202.578 187.608 204.472C192.911 206.366 198.877 208.023 205.506 209.443L230.506 215.125C244.9 218.25 257.589 222.417 268.574 227.625C279.653 232.833 288.934 239.036 296.415 246.233C303.991 253.43 309.72 261.716 313.602 271.091C317.485 280.466 319.473 290.977 319.568 302.625C319.473 320.996 314.833 336.763 305.648 349.926C296.462 363.089 283.252 373.174 266.017 380.182C248.877 387.189 228.186 390.693 203.943 390.693C179.606 390.693 158.394 387.047 140.307 379.756C122.22 372.464 108.157 361.384 98.1193 346.517C88.0814 331.65 82.9205 312.852 82.6364 290.125H149.966C150.534 299.5 153.044 307.312 157.494 313.562C161.945 319.812 168.053 324.547 175.818 327.767C183.678 330.987 192.769 332.597 203.091 332.597C212.561 332.597 220.61 331.318 227.239 328.761C233.962 326.205 239.123 322.653 242.722 318.108C246.32 313.562 248.167 308.354 248.261 302.483C248.167 296.991 246.462 292.303 243.148 288.42C239.833 284.443 234.72 281.034 227.807 278.193C220.989 275.258 212.277 272.559 201.67 270.097L171.273 262.994C146.083 257.218 126.244 247.89 111.756 235.011C97.267 222.038 90.0701 204.519 90.1648 182.455C90.0701 164.462 94.8996 148.695 104.653 135.153C114.407 121.612 127.902 111.053 145.136 103.477C162.371 95.9015 182.021 92.1136 204.085 92.1136C226.623 92.1136 246.178 95.9489 262.75 103.619C279.417 111.195 292.343 121.848 301.528 135.58C310.714 149.311 315.402 165.22 315.591 183.307H248.261Z" fill="#8C0404"/>
<path d="M137.611 55.0156V52.1818H154.497V55.0156H147.689V74H144.408V55.0156H137.611ZM158.228 74V52.1818H171.907V55.0156H161.52V61.6634H171.193V64.4865H161.52V71.1662H172.035V74H158.228ZM194.426 59.277H191.102C190.974 58.5668 190.736 57.9418 190.388 57.402C190.04 56.8622 189.614 56.4041 189.11 56.0277C188.605 55.6513 188.041 55.3672 187.416 55.1754C186.798 54.9837 186.141 54.8878 185.445 54.8878C184.188 54.8878 183.062 55.2038 182.068 55.8359C181.081 56.468 180.299 57.3949 179.724 58.6165C179.156 59.8381 178.872 61.3295 178.872 63.0909C178.872 64.8665 179.156 66.3651 179.724 67.5866C180.299 68.8082 181.084 69.7315 182.078 70.3565C183.073 70.9815 184.191 71.294 185.434 71.294C186.123 71.294 186.777 71.2017 187.394 71.017C188.019 70.8253 188.584 70.5447 189.088 70.1754C189.593 69.8061 190.019 69.3551 190.367 68.8224C190.722 68.2827 190.967 67.6648 191.102 66.9688L194.426 66.9794C194.248 68.0518 193.904 69.0391 193.392 69.9411C192.888 70.8359 192.238 71.6101 191.443 72.2635C190.654 72.9098 189.752 73.4105 188.737 73.7656C187.721 74.1207 186.613 74.2983 185.413 74.2983C183.524 74.2983 181.84 73.8509 180.363 72.956C178.886 72.054 177.721 70.7649 176.869 69.0888C176.024 67.4126 175.601 65.4134 175.601 63.0909C175.601 60.7614 176.027 58.7621 176.88 57.093C177.732 55.4169 178.897 54.1314 180.374 53.2365C181.851 52.3345 183.531 51.8835 185.413 51.8835C186.571 51.8835 187.65 52.0504 188.652 52.3842C189.66 52.7109 190.566 53.1939 191.368 53.8331C192.171 54.4652 192.835 55.2393 193.36 56.1555C193.886 57.0646 194.241 58.1051 194.426 59.277ZM198.365 74V52.1818H201.657V61.6634H212.534V52.1818H215.836V74H212.534V64.4865H201.657V74H198.365ZM238.241 52.1818V74H235.215L224.125 57.9986H223.922V74H220.63V52.1818H223.677L234.778 68.2045H234.981V52.1818H238.241ZM261.995 63.0909C261.995 65.4205 261.569 67.4233 260.717 69.0994C259.864 70.7685 258.696 72.054 257.212 72.956C255.734 73.8509 254.055 74.2983 252.172 74.2983C250.283 74.2983 248.597 73.8509 247.112 72.956C245.635 72.054 244.47 70.7649 243.618 69.0888C242.766 67.4126 242.339 65.4134 242.339 63.0909C242.339 60.7614 242.766 58.7621 243.618 57.093C244.47 55.4169 245.635 54.1314 247.112 53.2365C248.597 52.3345 250.283 51.8835 252.172 51.8835C254.055 51.8835 255.734 52.3345 257.212 53.2365C258.696 54.1314 259.864 55.4169 260.717 57.093C261.569 58.7621 261.995 60.7614 261.995 63.0909ZM258.735 63.0909C258.735 61.3153 258.447 59.8203 257.872 58.6058C257.304 57.3842 256.523 56.4609 255.528 55.8359C254.541 55.2038 253.422 54.8878 252.172 54.8878C250.915 54.8878 249.793 55.2038 248.806 55.8359C247.819 56.4609 247.038 57.3842 246.462 58.6058C245.894 59.8203 245.61 61.3153 245.61 63.0909C245.61 64.8665 245.894 66.3651 246.462 67.5866C247.038 68.8011 247.819 69.7244 248.806 70.3565C249.793 70.9815 250.915 71.294 252.172 71.294C253.422 71.294 254.541 70.9815 255.528 70.3565C256.523 69.7244 257.304 68.8011 257.872 67.5866C258.447 66.3651 258.735 64.8665 258.735 63.0909ZM266.099 74V52.1818H269.391V71.1662H279.277V74H266.099ZM301.136 63.0909C301.136 65.4205 300.709 67.4233 299.857 69.0994C299.005 70.7685 297.837 72.054 296.352 72.956C294.875 73.8509 293.195 74.2983 291.313 74.2983C289.424 74.2983 287.737 73.8509 286.253 72.956C284.775 72.054 283.611 70.7649 282.758 69.0888C281.906 67.4126 281.48 65.4134 281.48 63.0909C281.48 60.7614 281.906 58.7621 282.758 57.093C283.611 55.4169 284.775 54.1314 286.253 53.2365C287.737 52.3345 289.424 51.8835 291.313 51.8835C293.195 51.8835 294.875 52.3345 296.352 53.2365C297.837 54.1314 299.005 55.4169 299.857 57.093C300.709 58.7621 301.136 60.7614 301.136 63.0909ZM297.876 63.0909C297.876 61.3153 297.588 59.8203 297.013 58.6058C296.445 57.3842 295.663 56.4609 294.669 55.8359C293.682 55.2038 292.563 54.8878 291.313 54.8878C290.056 54.8878 288.934 55.2038 287.947 55.8359C286.959 56.4609 286.178 57.3842 285.603 58.6058C285.035 59.8203 284.751 61.3153 284.751 63.0909C284.751 64.8665 285.035 66.3651 285.603 67.5866C286.178 68.8011 286.959 69.7244 287.947 70.3565C288.934 70.9815 290.056 71.294 291.313 71.294C292.563 71.294 293.682 70.9815 294.669 70.3565C295.663 69.7244 296.445 68.8011 297.013 67.5866C297.588 66.3651 297.876 64.8665 297.876 63.0909ZM320.005 59.0746C319.799 58.4283 319.522 57.8494 319.174 57.3381C318.834 56.8196 318.425 56.3793 317.949 56.017C317.473 55.6477 316.93 55.3672 316.319 55.1754C315.716 54.9837 315.052 54.8878 314.327 54.8878C313.098 54.8878 311.991 55.2038 311.003 55.8359C310.016 56.468 309.235 57.3949 308.66 58.6165C308.091 59.831 307.807 61.3189 307.807 63.0803C307.807 64.8487 308.095 66.3437 308.67 67.5653C309.245 68.7869 310.034 69.7138 311.035 70.3459C312.037 70.978 313.177 71.294 314.455 71.294C315.641 71.294 316.674 71.0526 317.555 70.5696C318.443 70.0866 319.128 69.4048 319.611 68.5241C320.101 67.6364 320.346 66.5923 320.346 65.392L321.199 65.5518H314.956V62.8352H323.532V65.3175C323.532 67.1499 323.141 68.7408 322.36 70.0902C321.586 71.4325 320.513 72.4695 319.142 73.201C317.779 73.9325 316.216 74.2983 314.455 74.2983C312.481 74.2983 310.748 73.8438 309.256 72.9347C307.772 72.0256 306.614 70.7365 305.783 69.0675C304.952 67.3913 304.537 65.4027 304.537 63.1016C304.537 61.3615 304.778 59.799 305.261 58.4141C305.744 57.0291 306.422 55.8537 307.296 54.8878C308.177 53.9148 309.21 53.1726 310.396 52.6612C311.589 52.1428 312.892 51.8835 314.306 51.8835C315.485 51.8835 316.582 52.0575 317.598 52.4055C318.62 52.7536 319.53 53.2472 320.325 53.8864C321.128 54.5256 321.792 55.2855 322.317 56.1662C322.843 57.0398 323.198 58.0092 323.383 59.0746H320.005ZM331.002 52.1818V74H327.71V52.1818H331.002ZM353.918 59.277H350.594C350.466 58.5668 350.228 57.9418 349.88 57.402C349.532 56.8622 349.106 56.4041 348.602 56.0277C348.098 55.6513 347.533 55.3672 346.908 55.1754C346.29 54.9837 345.633 54.8878 344.937 54.8878C343.68 54.8878 342.554 55.2038 341.56 55.8359C340.573 56.468 339.791 57.3949 339.216 58.6165C338.648 59.8381 338.364 61.3295 338.364 63.0909C338.364 64.8665 338.648 66.3651 339.216 67.5866C339.791 68.8082 340.576 69.7315 341.571 70.3565C342.565 70.9815 343.684 71.294 344.926 71.294C345.615 71.294 346.269 71.2017 346.887 71.017C347.512 70.8253 348.076 70.5447 348.581 70.1754C349.085 69.8061 349.511 69.3551 349.859 68.8224C350.214 68.2827 350.459 67.6648 350.594 66.9688L353.918 66.9794C353.74 68.0518 353.396 69.0391 352.885 69.9411C352.38 70.8359 351.73 71.6101 350.935 72.2635C350.147 72.9098 349.245 73.4105 348.229 73.7656C347.213 74.1207 346.105 74.2983 344.905 74.2983C343.016 74.2983 341.333 73.8509 339.855 72.956C338.378 72.054 337.213 70.7649 336.361 69.0888C335.516 67.4126 335.093 65.4134 335.093 63.0909C335.093 60.7614 335.519 58.7621 336.372 57.093C337.224 55.4169 338.389 54.1314 339.866 53.2365C341.343 52.3345 343.023 51.8835 344.905 51.8835C346.063 51.8835 347.142 52.0504 348.144 52.3842C349.152 52.7109 350.058 53.1939 350.86 53.8331C351.663 54.4652 352.327 55.2393 352.853 56.1555C353.378 57.0646 353.733 58.1051 353.918 59.277ZM359.554 74H356.059L363.911 52.1818H367.714L375.566 74H372.071L365.903 56.1449H365.733L359.554 74ZM360.139 65.456H371.475V68.2259H360.139V65.456ZM378.716 74V52.1818H382.008V71.1662H391.895V74H378.716ZM417.62 52.1818H420.922V66.532C420.922 68.0589 420.564 69.4119 419.847 70.5909C419.129 71.7628 418.121 72.6861 416.821 73.3608C415.521 74.0284 413.998 74.3622 412.251 74.3622C410.511 74.3622 408.991 74.0284 407.691 73.3608C406.391 72.6861 405.383 71.7628 404.665 70.5909C403.948 69.4119 403.589 68.0589 403.589 66.532V52.1818H406.881V66.2656C406.881 67.2528 407.098 68.13 407.531 68.897C407.972 69.6641 408.593 70.2678 409.396 70.7081C410.198 71.1413 411.15 71.358 412.251 71.358C413.359 71.358 414.314 71.1413 415.116 70.7081C415.926 70.2678 416.544 69.6641 416.97 68.897C417.403 68.13 417.62 67.2528 417.62 66.2656V52.1818ZM443.319 52.1818V74H440.293L429.203 57.9986H429V74H425.709V52.1818H428.755L439.856 68.2045H440.059V52.1818H443.319ZM451.413 52.1818V74H448.121V52.1818H451.413ZM458.114 52.1818L464.186 69.9517H464.431L470.503 52.1818H474.062L466.21 74H462.407L454.555 52.1818H458.114ZM477.212 74V52.1818H490.891V55.0156H480.504V61.6634H490.178V64.4865H480.504V71.1662H491.019V74H477.212ZM495.289 74V52.1818H503.066C504.756 52.1818 506.159 52.473 507.274 53.0554C508.396 53.6378 509.234 54.4439 509.788 55.4737C510.342 56.4964 510.619 57.679 510.619 59.0213C510.619 60.3565 510.338 61.532 509.777 62.5476C509.223 63.5561 508.385 64.3409 507.263 64.902C506.148 65.4631 504.745 65.7436 503.055 65.7436H497.164V62.9098H502.757C503.822 62.9098 504.688 62.7571 505.356 62.4517C506.031 62.1463 506.524 61.7024 506.837 61.12C507.149 60.5376 507.306 59.8381 507.306 59.0213C507.306 58.1974 507.146 57.4837 506.826 56.88C506.514 56.2763 506.02 55.8146 505.345 55.495C504.678 55.1683 503.801 55.005 502.714 55.005H498.581V74H495.289ZM506.059 64.1562L511.45 74H507.7L502.416 64.1562H506.059ZM526.524 57.9134C526.411 56.9048 525.942 56.1236 525.118 55.5696C524.294 55.0085 523.257 54.728 522.007 54.728C521.112 54.728 520.338 54.87 519.685 55.1541C519.032 55.4311 518.524 55.8146 518.161 56.3047C517.806 56.7876 517.629 57.3381 517.629 57.956C517.629 58.4744 517.75 58.9219 517.991 59.2983C518.24 59.6747 518.563 59.9908 518.96 60.2464C519.365 60.495 519.799 60.7045 520.26 60.875C520.722 61.0384 521.166 61.1733 521.592 61.2798L523.723 61.8338C524.419 62.0043 525.132 62.2351 525.864 62.5263C526.595 62.8175 527.274 63.201 527.899 63.6768C528.524 64.1527 529.028 64.7422 529.411 65.4453C529.802 66.1484 529.997 66.9901 529.997 67.9702C529.997 69.206 529.678 70.3033 529.039 71.2621C528.407 72.2209 527.487 72.9773 526.279 73.5312C525.079 74.0852 523.627 74.3622 521.922 74.3622C520.289 74.3622 518.875 74.103 517.682 73.5845C516.489 73.0661 515.555 72.331 514.88 71.3793C514.206 70.4205 513.833 69.2841 513.762 67.9702H517.064C517.128 68.7585 517.384 69.4155 517.831 69.9411C518.286 70.4595 518.865 70.8466 519.568 71.1023C520.278 71.3509 521.056 71.4751 521.901 71.4751C522.831 71.4751 523.659 71.3295 524.383 71.0384C525.115 70.7401 525.69 70.3281 526.109 69.8026C526.528 69.2699 526.737 68.6484 526.737 67.9382C526.737 67.2919 526.553 66.7628 526.184 66.3509C525.821 65.9389 525.328 65.598 524.703 65.3281C524.085 65.0582 523.385 64.8203 522.604 64.6143L520.026 63.9112C518.279 63.4354 516.894 62.7358 515.871 61.8125C514.855 60.8892 514.348 59.6676 514.348 58.1477C514.348 56.8906 514.688 55.7933 515.37 54.8558C516.052 53.9183 516.975 53.1903 518.14 52.6719C519.305 52.1463 520.619 51.8835 522.082 51.8835C523.559 51.8835 524.862 52.1428 525.992 52.6612C527.128 53.1797 528.023 53.8935 528.676 54.8026C529.33 55.7045 529.671 56.7415 529.699 57.9134H526.524ZM537.223 52.1818V74H533.931V52.1818H537.223ZM540.941 55.0156V52.1818H557.827V55.0156H551.019V74H547.738V55.0156H540.941ZM559.875 52.1818H563.614L569.314 62.1001H569.548L575.248 52.1818H578.987L571.072 65.4347V74H567.79V65.4347L559.875 52.1818ZM608.987 63.0909C608.987 65.4205 608.561 67.4233 607.709 69.0994C606.856 70.7685 605.688 72.054 604.204 72.956C602.726 73.8509 601.047 74.2983 599.165 74.2983C597.275 74.2983 595.589 73.8509 594.104 72.956C592.627 72.054 591.462 70.7649 590.61 69.0888C589.758 67.4126 589.332 65.4134 589.332 63.0909C589.332 60.7614 589.758 58.7621 590.61 57.093C591.462 55.4169 592.627 54.1314 594.104 53.2365C595.589 52.3345 597.275 51.8835 599.165 51.8835C601.047 51.8835 602.726 52.3345 604.204 53.2365C605.688 54.1314 606.856 55.4169 607.709 57.093C608.561 58.7621 608.987 60.7614 608.987 63.0909ZM605.727 63.0909C605.727 61.3153 605.44 59.8203 604.864 58.6058C604.296 57.3842 603.515 56.4609 602.521 55.8359C601.533 55.2038 600.415 54.8878 599.165 54.8878C597.908 54.8878 596.785 55.2038 595.798 55.8359C594.811 56.4609 594.03 57.3842 593.454 58.6058C592.886 59.8203 592.602 61.3153 592.602 63.0909C592.602 64.8665 592.886 66.3651 593.454 67.5866C594.03 68.8011 594.811 69.7244 595.798 70.3565C596.785 70.9815 597.908 71.294 599.165 71.294C600.415 71.294 601.533 70.9815 602.521 70.3565C603.515 69.7244 604.296 68.8011 604.864 67.5866C605.44 66.3651 605.727 64.8665 605.727 63.0909ZM613.091 74V52.1818H626.621V55.0156H616.383V61.6634H625.652V64.4865H616.383V74H613.091ZM637.533 55.0156V52.1818H654.419V55.0156H647.611V74H644.33V55.0156H637.533ZM658.15 74V52.1818H661.442V61.6634H672.319V52.1818H675.622V74H672.319V64.4865H661.442V74H658.15ZM680.416 74V52.1818H694.095V55.0156H683.707V61.6634H693.381V64.4865H683.707V71.1662H694.222V74H680.416ZM706.431 74V52.1818H714.208C715.906 52.1818 717.312 52.4908 718.427 53.1087C719.542 53.7266 720.377 54.5717 720.93 55.6442C721.484 56.7095 721.761 57.9098 721.761 59.245C721.761 60.5874 721.481 61.7947 720.92 62.8672C720.366 63.9325 719.528 64.7777 718.406 65.4027C717.291 66.0206 715.888 66.3295 714.198 66.3295H708.85V63.5384H713.899C714.972 63.5384 715.842 63.3537 716.509 62.9844C717.177 62.608 717.667 62.0966 717.979 61.4503C718.292 60.804 718.448 60.0689 718.448 59.245C718.448 58.4212 718.292 57.6896 717.979 57.0504C717.667 56.4112 717.173 55.9105 716.499 55.5483C715.831 55.1861 714.95 55.005 713.857 55.005H709.723V74H706.431ZM725.621 74V52.1818H728.913V61.6634H739.79V52.1818H743.092V74H739.79V64.4865H728.913V74H725.621ZM751.178 52.1818V74H747.886V52.1818H751.178ZM755.972 74V52.1818H759.264V71.1662H769.15V74H755.972ZM776.198 52.1818V74H772.906V52.1818H776.198ZM780.992 74V52.1818H788.769C790.466 52.1818 791.872 52.4908 792.987 53.1087C794.103 53.7266 794.937 54.5717 795.491 55.6442C796.045 56.7095 796.322 57.9098 796.322 59.245C796.322 60.5874 796.041 61.7947 795.48 62.8672C794.926 63.9325 794.088 64.7777 792.966 65.4027C791.851 66.0206 790.448 66.3295 788.758 66.3295H802.6V63.5384H807.649C808.722 63.5384 809.592 63.3537 810.259 62.9844C810.927 62.608 811.417 62.0966 811.729 61.4503C812.042 60.804 812.198 60.0689 812.198 59.245C812.198 58.4212 812.042 57.6896 811.729 57.0504C811.417 56.4112 810.923 55.9105 810.249 55.5483C809.581 55.1861 808.7 55.005 807.607 55.005H803.473V74H780.992ZM822.663 52.1818V74H819.371V52.1818H822.663ZM845.067 52.1818V74H842.041L830.951 57.9986H830.748V74H827.457V52.1818H830.503L841.604 68.2045H841.807V52.1818H845.067ZM849.869 74V52.1818H863.548V55.0156H853.161V61.6634H862.834V64.4865H853.161V71.1662H863.676V74H849.869ZM879.845 57.9134C879.731 56.9048 879.262 56.1236 878.438 55.5696C877.615 55.0085 876.578 54.728 875.328 54.728C874.433 54.728 873.659 54.87 873.005 55.1541C872.352 55.4311 871.844 55.8146 871.482 56.3047C871.127 56.7876 870.949 57.3381 870.949 57.956C870.949 58.4744 871.07 58.9219 871.311 59.2983C871.56 59.6747 871.883 59.9908 872.281 60.2464C872.686 60.495 873.119 60.7045 873.581 60.875C874.042 61.0384 874.486 61.1733 874.912 61.2798L877.043 61.8338C877.739 62.0043 878.453 62.2351 879.184 62.5263C879.916 62.8175 880.594 63.201 881.219 63.6768C881.844 64.1527 882.348 64.7422 882.732 65.4453C883.122 66.1484 883.318 66.9901 883.318 67.9702C883.318 69.206 882.998 70.3033 882.359 71.2621C881.727 72.2209 880.807 72.9773 879.6 73.5312C878.399 74.0852 876.947 74.3622 875.242 74.3622C873.609 74.3622 872.196 74.103 871.002 73.5845C869.809 73.0661 868.875 72.331 868.201 71.3793C867.526 70.4205 867.153 69.2841 867.082 67.9702H870.384C870.448 68.7585 870.704 69.4155 871.152 69.9411C871.606 70.4595 872.185 70.8466 872.888 71.1023C873.598 71.3509 874.376 71.4751 875.221 71.4751C876.152 71.4751 876.979 71.3295 877.703 71.0384C878.435 70.7401 879.01 70.3281 879.429 69.8026C879.848 69.2699 880.058 68.6484 880.058 67.9382C880.058 67.2919 879.873 66.7628 879.504 66.3509C879.142 65.9389 878.648 65.598 878.023 65.3281C877.405 65.0582 876.706 64.8203 875.924 64.6143L873.346 63.9112C871.599 63.4354 870.214 62.7358 869.191 61.8125C868.176 60.8892 867.668 59.6676 867.668 58.1477C867.668 56.8906 868.009 55.7933 868.691 54.8558C869.372 53.9183 870.296 53.1903 871.46 52.6719C872.625 52.1463 873.939 51.8835 875.402 51.8835C876.88 51.8835 878.183 52.1428 879.312 52.6612C880.448 53.1797 881.343 53.8935 881.997 54.8026C882.65 55.7045 882.991 56.7415 883.019 57.9134H879.845ZM904.577 61.706V64.4759H894.903V61.706H904.577ZM915.941 55.0156V52.1818H932.827V55.0156H926.019V74H922.738V55.0156H915.941ZM935.823 74H932.329L940.18 52.1818H943.984L951.835 74H948.341L942.172 56.1449H942.002L935.823 74ZM936.409 65.456H947.744V68.2259H936.409V65.456ZM968.726 59.0746C968.52 58.4283 968.243 57.8494 967.895 57.3381C967.554 56.8196 967.146 56.3793 966.67 56.017C966.194 55.6477 965.651 55.3672 965.04 55.1754C964.436 54.9837 963.772 54.8878 963.048 54.8878C961.819 54.8878 960.711 55.2038 959.724 55.8359C958.737 56.468 957.956 57.3949 957.38 58.6165C956.812 59.831 956.528 61.3189 956.528 63.0803C956.528 64.8487 956.816 66.3437 957.391 67.5653C957.966 68.7869 958.755 69.7138 959.756 70.3459C960.757 70.978 961.897 71.294 963.176 71.294C964.362 71.294 965.395 71.0526 966.276 70.5696C967.164 70.0866 967.849 69.4048 968.332 68.5241C968.822 67.6364 969.067 66.5923 969.067 65.392L969.919 65.5518H963.676V62.8352H972.252V65.3175C972.252 67.1499 971.862 68.7408 971.081 70.0902C970.306 71.4325 969.234 72.4695 967.863 73.201C966.5 73.9325 964.937 74.2983 963.176 74.2983C961.201 74.2983 959.468 73.8438 957.977 72.9347C956.492 72.0256 955.335 70.7365 954.504 69.0675C953.673 67.3913 953.257 65.4027 953.257 63.1016C953.257 61.3615 953.499 59.799 953.982 58.4141C954.465 57.0291 955.143 55.8537 956.017 54.8878C956.897 53.9148 957.931 53.1726 959.117 52.6612C960.31 52.1428 961.613 51.8835 963.027 51.8835C964.206 51.8835 965.303 52.0575 966.318 52.4055C967.341 52.7536 968.25 53.2472 969.046 53.8864C969.848 54.5256 970.512 55.2855 971.038 56.1662C971.563 57.0398 971.919 58.0092 972.103 59.0746H968.726ZM990.462 52.1818H993.764V66.532C993.764 68.0589 993.406 69.4119 992.688 70.5909C991.971 71.7628 990.962 72.6861 989.663 73.3608C988.363 74.0284 986.84 74.3622 985.092 74.3622C983.352 74.3622 981.832 74.0284 980.533 73.3608C979.233 72.6861 978.225 71.7628 977.507 70.5909C976.79 69.4119 976.431 68.0589 976.431 66.532V52.1818H979.723V66.2656C979.723 67.2528 979.94 68.13 980.373 68.897C980.813 69.6641 981.435 70.2678 982.237 70.7081C983.04 71.1413 983.992 71.358 985.092 71.358C986.2 71.358 987.156 71.1413 987.958 70.7081C988.768 70.2678 989.386 69.6641 989.812 68.897C990.245 68.13 990.462 67.2528 990.462 66.2656V52.1818ZM1001.84 52.1818V74H998.55V52.1818H1001.84ZM1021.4 59.0746C1021.2 58.4283 1020.92 57.8494 1020.57 57.3381C1020.23 56.8196 1019.82 56.3793 1019.35 56.017C1018.87 55.6477 1018.33 55.3672 1017.72 55.1754C1017.11 54.9837 1016.45 54.8878 1015.72 54.8878C1014.49 54.8878 1013.39 55.2038 1012.4 55.8359C1011.41 56.468 1010.63 57.3949 1010.06 58.6165C1009.49 59.831 1009.2 61.3189 1009.2 63.0803C1009.2 64.8487 1009.49 66.3437 1010.07 67.5653C1010.64 68.7869 1011.43 69.7138 1012.43 70.3459C1013.43 70.978 1014.57 71.294 1015.85 71.294C1017.04 71.294 1018.07 71.0526 1018.95 70.5696C1019.84 70.0866 1020.52 69.4048 1021.01 68.5241C1021.5 67.6364 1021.74 66.5923 1021.74 65.392L1022.6 65.5518H1016.35V62.8352H1024.93V65.3175C1024.93 67.1499 1024.54 68.7408 1023.76 70.0902C1022.98 71.4325 1021.91 72.4695 1020.54 73.201C1019.18 73.9325 1017.61 74.2983 1015.85 74.2983C1013.88 74.2983 1012.14 73.8438 1010.65 72.9347C1009.17 72.0256 1008.01 70.7365 1007.18 69.0675C1006.35 67.3913 1005.93 65.4027 1005.93 63.1016C1005.93 61.3615 1006.17 59.799 1006.66 58.4141C1007.14 57.0291 1007.82 55.8537 1008.69 54.8878C1009.57 53.9148 1010.61 53.1726 1011.79 52.6612C1012.99 52.1428 1014.29 51.8835 1015.7 51.8835C1016.88 51.8835 1017.98 52.0575 1018.99 52.4055C1020.02 52.7536 1020.93 53.2472 1021.72 53.8864C1022.52 54.5256 1023.19 55.2855 1023.71 56.1662C1024.24 57.0398 1024.59 58.0092 1024.78 59.0746H1021.4Z" fill="#8C0404"/>
<path d="M323.5 153.193V96.0909H569.381V153.193H481.17V387H411.852V153.193H323.5Z" fill="#8C0404"/>
<path d="M863.017 387V96.0909H983.188C1004.97 96.0909 1023.77 100.352 1039.58 108.875C1055.49 117.303 1067.75 129.093 1076.37 144.244C1084.99 159.301 1089.3 176.82 1089.3 196.801C1089.3 216.877 1084.89 234.443 1076.09 249.5C1067.37 264.462 1054.92 276.062 1038.73 284.301C1022.53 292.54 1003.31 296.659 981.057 296.659H906.909V241.261H967.989C978.595 241.261 987.449 239.415 994.551 235.722C1001.75 232.028 1007.19 226.867 1010.89 220.239C1014.58 213.515 1016.43 205.703 1016.43 196.801C1016.43 187.805 1014.58 180.04 1010.89 173.506C1007.19 166.877 1001.75 161.763 994.551 158.165C987.354 154.566 978.5 152.767 967.989 152.767H933.33V387H863.017Z" fill="#8C0404"/>
</svg>
