<svg width="455" height="173" viewBox="0 0 455 173" fill="none" xmlns="http://www.w3.org/2000/svg">
<path d="M337.2 72.1406H281.484L266.45 93.3652H337.2V114.694H253.185L238.15 135.92H337.2V165H224V41.1875H337.2V72.1406Z" fill="#C62742"/>
<path d="M80.1861 78.4304C79.7836 74.0033 77.9927 70.5623 74.8132 68.1072C71.674 65.612 67.1866 64.3643 61.3509 64.3643C57.4872 64.3643 54.2675 64.8674 51.6918 65.8736C49.116 66.8797 47.1842 68.2682 45.8963 70.0391C44.6084 71.7696 43.9444 73.7618 43.9041 76.0156C43.8236 77.8669 44.1858 79.4969 44.9908 80.9055C45.8359 82.3142 47.0433 83.5618 48.6129 84.6484C50.2228 85.6948 52.1546 86.6205 54.4084 87.4254C56.6622 88.2303 59.1977 88.9347 62.0149 89.5383L72.6399 91.9531C78.7573 93.2812 84.1503 95.0521 88.8189 97.2656C93.5277 99.4792 97.4718 102.115 100.651 105.174C103.871 108.233 106.306 111.754 107.956 115.739C109.606 119.723 110.451 124.19 110.491 129.141C110.451 136.948 108.479 143.649 104.575 149.244C100.671 154.838 95.0571 159.124 87.7322 162.102C80.4477 165.08 71.6539 166.57 61.3509 166.57C51.0076 166.57 41.9924 165.02 34.3054 161.921C26.6184 158.822 20.6418 154.113 16.3757 147.795C12.1096 141.476 9.91619 133.487 9.79545 123.828H38.4105C38.652 127.812 39.7185 131.133 41.6101 133.789C43.5017 136.445 46.0975 138.458 49.3977 139.826C52.7382 141.194 56.6018 141.879 60.9886 141.879C65.0133 141.879 68.4342 141.335 71.2514 140.249C74.1089 139.162 76.3023 137.653 77.8317 135.721C79.361 133.789 80.1458 131.576 80.1861 129.08C80.1458 126.746 79.4214 124.754 78.0128 123.104C76.6042 121.413 74.4309 119.964 71.4929 118.757C68.5952 117.509 64.8925 116.362 60.3849 115.316L47.4659 112.298C36.7604 109.843 28.3288 105.878 22.1712 100.405C16.0135 94.8911 12.9548 87.4455 12.995 78.0682C12.9548 70.4214 15.0073 63.7204 19.1527 57.9652C23.2981 52.21 29.0331 47.7225 36.358 44.5028C43.6828 41.2831 52.0339 39.6733 61.4112 39.6733C70.9898 39.6733 79.3007 41.3033 86.3438 44.5632C93.4271 47.7829 98.9207 52.3106 102.825 58.1463C106.728 63.982 108.721 70.7434 108.801 78.4304H80.1861Z" fill="#C62742"/>
<path d="M45.9444 24.4062V23.2727H52.6987V24.4062H49.9757V32H48.6632V24.4062H45.9444ZM54.1912 32V23.2727H59.6628V24.4062H55.508V27.0653H59.3773V28.1946H55.508V30.8665H59.714V32H54.1912ZM68.6703 26.1108H67.3407C67.2896 25.8267 67.1944 25.5767 67.0552 25.3608C66.916 25.1449 66.7456 24.9616 66.5439 24.8111C66.3422 24.6605 66.1163 24.5469 65.8663 24.4702C65.6191 24.3935 65.3564 24.3551 65.0779 24.3551C64.5751 24.3551 64.1248 24.4815 63.7271 24.7344C63.3322 24.9872 63.0197 25.358 62.7896 25.8466C62.5623 26.3352 62.4487 26.9318 62.4487 27.6364C62.4487 28.3466 62.5623 28.946 62.7896 29.4347C63.0197 29.9233 63.3336 30.2926 63.7314 30.5426C64.1291 30.7926 64.5765 30.9176 65.0737 30.9176C65.3493 30.9176 65.6106 30.8807 65.8578 30.8068C66.1078 30.7301 66.3336 30.6179 66.5353 30.4702C66.737 30.3224 66.9075 30.142 67.0467 29.929C67.1887 29.7131 67.2868 29.4659 67.3407 29.1875L68.6703 29.1918C68.5993 29.6207 68.4615 30.0156 68.2569 30.3764C68.0552 30.7344 67.7953 31.044 67.4771 31.3054C67.1618 31.5639 66.801 31.7642 66.3947 31.9062C65.9885 32.0483 65.5453 32.1193 65.0652 32.1193C64.3095 32.1193 63.6362 31.9403 63.0453 31.5824C62.4544 31.2216 61.9885 30.706 61.6475 30.0355C61.3095 29.3651 61.1404 28.5653 61.1404 27.6364C61.1404 26.7045 61.3109 25.9048 61.6518 25.2372C61.9927 24.5668 62.4586 24.0526 63.0495 23.6946C63.6404 23.3338 64.3123 23.1534 65.0652 23.1534C65.5282 23.1534 65.96 23.2202 66.3606 23.3537C66.764 23.4844 67.1262 23.6776 67.4473 23.9332C67.7683 24.1861 68.0339 24.4957 68.2441 24.8622C68.4544 25.2259 68.5964 25.642 68.6703 26.1108ZM70.2459 32V23.2727H71.5627V27.0653H75.9135V23.2727H77.2346V32H75.9135V28.1946H71.5627V32H70.2459ZM86.1962 23.2727V32H84.986L80.5499 25.5994H80.4689V32H79.1522V23.2727H80.3709L84.8113 29.6818H84.8922V23.2727H86.1962ZM95.698 27.6364C95.698 28.5682 95.5275 29.3693 95.1866 30.0398C94.8457 30.7074 94.3784 31.2216 93.7846 31.5824C93.1937 31.9403 92.5218 32.1193 91.769 32.1193C91.0133 32.1193 90.3386 31.9403 89.7449 31.5824C89.1539 31.2216 88.688 30.706 88.3471 30.0355C88.0062 29.3651 87.8358 28.5653 87.8358 27.6364C87.8358 26.7045 88.0062 25.9048 88.3471 25.2372C88.688 24.5668 89.1539 24.0526 89.7449 23.6946C90.3386 23.3338 91.0133 23.1534 91.769 23.1534C92.5218 23.1534 93.1937 23.3338 93.7846 23.6946C94.3784 24.0526 94.8457 24.5668 95.1866 25.2372C95.5275 25.9048 95.698 26.7045 95.698 27.6364ZM94.394 27.6364C94.394 26.9261 94.2789 26.3281 94.0488 25.8423C93.8216 25.3537 93.5091 24.9844 93.1113 24.7344C92.7164 24.4815 92.269 24.3551 91.769 24.3551C91.2662 24.3551 90.8173 24.4815 90.4224 24.7344C90.0275 24.9844 89.715 25.3537 89.4849 25.8423C89.2576 26.3281 89.144 26.9261 89.144 27.6364C89.144 28.3466 89.2576 28.946 89.4849 29.4347C89.715 29.9205 90.0275 30.2898 90.4224 30.5426C90.8173 30.7926 91.2662 30.9176 91.769 30.9176C92.269 30.9176 92.7164 30.7926 93.1113 30.5426C93.5091 30.2898 93.8216 29.9205 94.0488 29.4347C94.2789 28.946 94.394 28.3466 94.394 27.6364ZM97.3397 32V23.2727H98.6564V30.8665H102.611V32H97.3397ZM111.354 27.6364C111.354 28.5682 111.184 29.3693 110.843 30.0398C110.502 30.7074 110.035 31.2216 109.441 31.5824C108.85 31.9403 108.178 32.1193 107.425 32.1193C106.67 32.1193 105.995 31.9403 105.401 31.5824C104.81 31.2216 104.344 30.706 104.003 30.0355C103.662 29.3651 103.492 28.5653 103.492 27.6364C103.492 26.7045 103.662 25.9048 104.003 25.2372C104.344 24.5668 104.81 24.0526 105.401 23.6946C105.995 23.3338 106.67 23.1534 107.425 23.1534C108.178 23.1534 108.85 23.3338 109.441 23.6946C110.035 24.0526 110.502 24.5668 110.843 25.2372C111.184 25.9048 111.354 26.7045 111.354 27.6364ZM110.05 27.6364C110.05 26.9261 109.935 26.3281 109.705 25.8423C109.478 25.3537 109.165 24.9844 108.768 24.7344C108.373 24.4815 107.925 24.3551 107.425 24.3551C106.922 24.3551 106.474 24.4815 106.079 24.7344C105.684 24.9844 105.371 25.3537 105.141 25.8423C104.914 26.3281 104.8 26.9261 104.8 27.6364C104.8 28.3466 104.914 28.946 105.141 29.4347C105.371 29.9205 105.684 30.2898 106.079 30.5426C106.474 30.7926 106.922 30.9176 107.425 30.9176C107.925 30.9176 108.373 30.7926 108.768 30.5426C109.165 30.2898 109.478 29.9205 109.705 29.4347C109.935 28.946 110.05 28.3466 110.05 27.6364ZM118.902 26.0298C118.82 25.7713 118.709 25.5398 118.57 25.3352C118.433 25.1278 118.27 24.9517 118.08 24.8068C117.889 24.6591 117.672 24.5469 117.428 24.4702C117.186 24.3935 116.921 24.3551 116.631 24.3551C116.139 24.3551 115.696 24.4815 115.301 24.7344C114.906 24.9872 114.594 25.358 114.364 25.8466C114.137 26.3324 114.023 26.9276 114.023 27.6321C114.023 28.3395 114.138 28.9375 114.368 29.4261C114.598 29.9148 114.914 30.2855 115.314 30.5384C115.715 30.7912 116.171 30.9176 116.682 30.9176C117.156 30.9176 117.57 30.821 117.922 30.6278C118.277 30.4347 118.551 30.1619 118.744 29.8097C118.941 29.4545 119.039 29.0369 119.039 28.5568L119.379 28.6207H116.882V27.5341H120.313V28.527C120.313 29.2599 120.156 29.8963 119.844 30.4361C119.534 30.973 119.105 31.3878 118.557 31.6804C118.012 31.973 117.387 32.1193 116.682 32.1193C115.892 32.1193 115.199 31.9375 114.602 31.5739C114.009 31.2102 113.546 30.6946 113.213 30.027C112.881 29.3565 112.715 28.5611 112.715 27.6406C112.715 26.9446 112.811 26.3196 113.004 25.7656C113.198 25.2116 113.469 24.7415 113.818 24.3551C114.171 23.9659 114.584 23.669 115.058 23.4645C115.536 23.2571 116.057 23.1534 116.622 23.1534C117.094 23.1534 117.533 23.223 117.939 23.3622C118.348 23.5014 118.712 23.6989 119.03 23.9545C119.351 24.2102 119.617 24.5142 119.827 24.8665C120.037 25.2159 120.179 25.6037 120.253 26.0298H118.902ZM123.301 23.2727V32H121.984V23.2727H123.301ZM132.467 26.1108H131.138C131.086 25.8267 130.991 25.5767 130.852 25.3608C130.713 25.1449 130.542 24.9616 130.341 24.8111C130.139 24.6605 129.913 24.5469 129.663 24.4702C129.416 24.3935 129.153 24.3551 128.875 24.3551C128.372 24.3551 127.922 24.4815 127.524 24.7344C127.129 24.9872 126.817 25.358 126.586 25.8466C126.359 26.3352 126.246 26.9318 126.246 27.6364C126.246 28.3466 126.359 28.946 126.586 29.4347C126.817 29.9233 127.131 30.2926 127.528 30.5426C127.926 30.7926 128.373 30.9176 128.871 30.9176C129.146 30.9176 129.407 30.8807 129.655 30.8068C129.905 30.7301 130.131 30.6179 130.332 30.4702C130.534 30.3224 130.704 30.142 130.844 29.929C130.986 29.7131 131.084 29.4659 131.138 29.1875L132.467 29.1918C132.396 29.6207 132.258 30.0156 132.054 30.3764C131.852 30.7344 131.592 31.044 131.274 31.3054C130.959 31.5639 130.598 31.7642 130.192 31.9062C129.785 32.0483 129.342 32.1193 128.862 32.1193C128.106 32.1193 127.433 31.9403 126.842 31.5824C126.251 31.2216 125.785 30.706 125.444 30.0355C125.106 29.3651 124.937 28.5653 124.937 27.6364C124.937 26.7045 125.108 25.9048 125.449 25.2372C125.79 24.5668 126.256 24.0526 126.846 23.6946C127.437 23.3338 128.109 23.1534 128.862 23.1534C129.325 23.1534 129.757 23.2202 130.157 23.3537C130.561 23.4844 130.923 23.6776 131.244 23.9332C131.565 24.1861 131.831 24.4957 132.041 24.8622C132.251 25.2259 132.393 25.642 132.467 26.1108ZM134.721 32H133.324L136.464 23.2727H137.986L141.126 32H139.729L137.261 24.858H137.193L134.721 32ZM134.956 28.5824H139.49V29.6903H134.956V28.5824ZM142.387 32V23.2727H143.703V30.8665H147.658V32H142.387ZM157.948 23.2727H159.269V29.0128C159.269 29.6236 159.126 30.1648 158.839 30.6364C158.552 31.1051 158.148 31.4744 157.628 31.7443C157.108 32.0114 156.499 32.1449 155.8 32.1449C155.104 32.1449 154.496 32.0114 153.976 31.7443C153.456 31.4744 153.053 31.1051 152.766 30.6364C152.479 30.1648 152.336 29.6236 152.336 29.0128V23.2727H153.653V28.9062C153.653 29.3011 153.739 29.652 153.912 29.9588C154.089 30.2656 154.337 30.5071 154.658 30.6832C154.979 30.8565 155.36 30.9432 155.8 30.9432C156.243 30.9432 156.626 30.8565 156.947 30.6832C157.27 30.5071 157.518 30.2656 157.688 29.9588C157.861 29.652 157.948 29.3011 157.948 28.9062V23.2727ZM168.227 23.2727V32H167.017L162.581 25.5994H162.5V32H161.183V23.2727H162.402L166.843 29.6818H166.923V23.2727H168.227ZM171.465 23.2727V32H170.148V23.2727H171.465ZM174.145 23.2727L176.574 30.3807H176.672L179.101 23.2727H180.525L177.384 32H175.863L172.722 23.2727H174.145ZM181.785 32V23.2727H187.257V24.4062H183.102V27.0653H186.971V28.1946H183.102V30.8665H187.308V32H181.785ZM189.015 32V23.2727H192.126C192.802 23.2727 193.363 23.3892 193.809 23.6222C194.258 23.8551 194.594 24.1776 194.815 24.5895C195.037 24.9986 195.148 25.4716 195.148 26.0085C195.148 26.5426 195.035 27.0128 194.811 27.419C194.589 27.8224 194.254 28.1364 193.805 28.3608C193.359 28.5852 192.798 28.6974 192.122 28.6974H189.765V27.5639H192.003C192.429 27.5639 192.775 27.5028 193.042 27.3807C193.312 27.2585 193.51 27.081 193.635 26.848C193.76 26.6151 193.822 26.3352 193.822 26.0085C193.822 25.679 193.758 25.3935 193.631 25.152C193.506 24.9105 193.308 24.7259 193.038 24.598C192.771 24.4673 192.42 24.402 191.986 24.402H190.332V32H189.015ZM193.324 28.0625L195.48 32H193.98L191.866 28.0625H193.324ZM201.51 25.5653C201.464 25.1619 201.277 24.8494 200.947 24.6278C200.618 24.4034 200.203 24.2912 199.703 24.2912C199.345 24.2912 199.035 24.348 198.774 24.4616C198.513 24.5724 198.309 24.7259 198.165 24.9219C198.023 25.1151 197.952 25.3352 197.952 25.5824C197.952 25.7898 198 25.9687 198.096 26.1193C198.196 26.2699 198.325 26.3963 198.484 26.4986C198.646 26.598 198.819 26.6818 199.004 26.75C199.189 26.8153 199.366 26.8693 199.537 26.9119L200.389 27.1335C200.667 27.2017 200.953 27.294 201.246 27.4105C201.538 27.527 201.809 27.6804 202.059 27.8707C202.309 28.0611 202.511 28.2969 202.665 28.5781C202.821 28.8594 202.899 29.196 202.899 29.5881C202.899 30.0824 202.771 30.5213 202.515 30.9048C202.263 31.2884 201.895 31.5909 201.412 31.8125C200.932 32.0341 200.351 32.1449 199.669 32.1449C199.015 32.1449 198.45 32.0412 197.973 31.8338C197.496 31.6264 197.122 31.3324 196.852 30.9517C196.582 30.5682 196.433 30.1136 196.405 29.5881H197.726C197.751 29.9034 197.854 30.1662 198.032 30.3764C198.214 30.5838 198.446 30.7386 198.727 30.8409C199.011 30.9403 199.322 30.9901 199.66 30.9901C200.032 30.9901 200.363 30.9318 200.653 30.8153C200.946 30.696 201.176 30.5312 201.344 30.321C201.511 30.108 201.595 29.8594 201.595 29.5753C201.595 29.3168 201.521 29.1051 201.373 28.9403C201.229 28.7756 201.031 28.6392 200.781 28.5312C200.534 28.4233 200.254 28.3281 199.942 28.2457L198.91 27.9645C198.211 27.7741 197.657 27.4943 197.248 27.125C196.842 26.7557 196.639 26.267 196.639 25.6591C196.639 25.1562 196.775 24.7173 197.048 24.3423C197.321 23.9673 197.69 23.6761 198.156 23.4688C198.622 23.2585 199.148 23.1534 199.733 23.1534C200.324 23.1534 200.845 23.2571 201.297 23.4645C201.751 23.6719 202.109 23.9574 202.371 24.321C202.632 24.6818 202.768 25.0966 202.78 25.5653H201.51ZM205.789 23.2727V32H204.472V23.2727H205.789ZM207.276 24.4062V23.2727H214.031V24.4062H211.308V32H209.995V24.4062H207.276ZM214.85 23.2727H216.346L218.626 27.2401H218.719L220.999 23.2727H222.495L219.329 28.5739V32H218.016V28.5739L214.85 23.2727ZM234.495 27.6364C234.495 28.5682 234.324 29.3693 233.983 30.0398C233.643 30.7074 233.175 31.2216 232.581 31.5824C231.991 31.9403 231.319 32.1193 230.566 32.1193C229.81 32.1193 229.135 31.9403 228.542 31.5824C227.951 31.2216 227.485 30.706 227.144 30.0355C226.803 29.3651 226.633 28.5653 226.633 27.6364C226.633 26.7045 226.803 25.9048 227.144 25.2372C227.485 24.5668 227.951 24.0526 228.542 23.6946C229.135 23.3338 229.81 23.1534 230.566 23.1534C231.319 23.1534 231.991 23.3338 232.581 23.6946C233.175 24.0526 233.643 24.5668 233.983 25.2372C234.324 25.9048 234.495 26.7045 234.495 27.6364ZM233.191 27.6364C233.191 26.9261 233.076 26.3281 232.846 25.8423C232.618 25.3537 232.306 24.9844 231.908 24.7344C231.513 24.4815 231.066 24.3551 230.566 24.3551C230.063 24.3551 229.614 24.4815 229.219 24.7344C228.824 24.9844 228.512 25.3537 228.282 25.8423C228.055 26.3281 227.941 26.9261 227.941 27.6364C227.941 28.3466 228.055 28.946 228.282 29.4347C228.512 29.9205 228.824 30.2898 229.219 30.5426C229.614 30.7926 230.063 30.9176 230.566 30.9176C231.066 30.9176 231.513 30.7926 231.908 30.5426C232.306 30.2898 232.618 29.9205 232.846 29.4347C233.076 28.946 233.191 28.3466 233.191 27.6364ZM236.137 32V23.2727H241.548V24.4062H237.453V27.0653H241.161V28.1946H237.453V32H236.137ZM245.913 24.4062V23.2727H252.667V24.4062H249.944V32H248.632V24.4062H245.913ZM254.16 32V23.2727H255.477V27.0653H259.828V23.2727H261.149V32H259.828V28.1946H255.477V32H254.16ZM263.066 32V23.2727H268.538V24.4062H264.383V27.0653H268.252V28.1946H264.383V30.8665H268.589V32H263.066ZM273.472 32V23.2727H276.583C277.262 23.2727 277.825 23.3963 278.271 23.6435C278.717 23.8906 279.051 24.2287 279.272 24.6577C279.494 25.0838 279.605 25.5639 279.605 26.098C279.605 26.6349 279.492 27.1179 279.268 27.5469C279.046 27.973 278.711 28.3111 278.262 28.5611C277.816 28.8082 277.255 28.9318 276.579 28.9318H274.44V27.8153H276.46C276.889 27.8153 277.237 27.7415 277.504 27.5938C277.771 27.4432 277.967 27.2386 278.092 26.9801C278.217 26.7216 278.279 26.4276 278.279 26.098C278.279 25.7685 278.217 25.4759 278.092 25.2202C277.967 24.9645 277.769 24.7642 277.499 24.6193C277.232 24.4744 276.88 24.402 276.443 24.402H274.789V32H273.472ZM281.148 32V23.2727H282.465V27.0653H286.816V23.2727H288.137V32H286.816V28.1946H282.465V32H281.148ZM291.371 23.2727V32H290.055V23.2727H291.371ZM293.289 32V23.2727H294.606V30.8665H298.56V32H293.289ZM301.379 23.2727V32H300.062V23.2727H301.379ZM303.297 32V23.2727H306.407C307.086 23.2727 307.649 23.3963 308.095 23.6435C308.541 23.8906 308.875 24.2287 309.096 24.6577C309.318 25.0838 309.429 25.5639 309.429 26.098C309.429 26.6349 309.317 27.1179 309.092 27.5469C308.871 27.973 308.535 28.3111 308.086 28.5611C307.64 28.8082 307.079 28.9318 306.403 28.9318H304.264V27.8153H306.284C306.713 27.8153 307.061 27.7415 307.328 27.5938C307.595 27.4432 307.791 27.2386 307.916 26.9801C308.041 26.7216 308.104 26.4276 308.104 26.098C308.104 25.7685 308.041 25.4759 307.916 25.2202C307.791 24.9645 307.594 24.7642 307.324 24.6193C307.057 24.4744 306.704 24.402 306.267 24.402H304.613V32H303.297ZM310.972 32V23.2727H314.083C314.762 23.2727 315.325 23.3963 315.771 23.6435C316.217 23.8906 316.551 24.2287 316.772 24.6577C316.994 25.0838 317.105 25.5639 317.105 26.098C317.105 26.6349 316.992 27.1179 316.768 27.5469C316.546 27.973 316.211 28.3111 315.762 28.5611C315.316 28.8082 314.755 28.9318 314.079 28.9318H311.94V27.8153H313.96C314.389 27.8153 314.737 27.7415 315.004 27.5938C315.271 27.4432 315.467 27.2386 315.592 26.9801C315.717 26.7216 315.779 26.4276 315.779 26.098C315.779 25.7685 315.717 25.4759 315.592 25.2202C315.467 24.9645 315.269 24.7642 314.999 24.6193C314.732 24.4744 314.38 24.402 313.943 24.402H312.289V32H310.972ZM319.965 23.2727V32H318.648V23.2727H319.965ZM328.927 23.2727V32H327.716L323.28 25.5994H323.199V32H321.883V23.2727H323.101L327.542 29.6818H327.623V23.2727H328.927ZM330.847 32V23.2727H336.319V24.4062H332.164V27.0653H336.034V28.1946H332.164V30.8665H336.37V32H330.847ZM342.838 25.5653C342.792 25.1619 342.605 24.8494 342.275 24.6278C341.946 24.4034 341.531 24.2912 341.031 24.2912C340.673 24.2912 340.363 24.348 340.102 24.4616C339.841 24.5724 339.638 24.7259 339.493 24.9219C339.351 25.1151 339.28 25.3352 339.28 25.5824C339.28 25.7898 339.328 25.9687 339.425 26.1193C339.524 26.2699 339.653 26.3963 339.812 26.4986C339.974 26.598 340.148 26.6818 340.332 26.75C340.517 26.8153 340.694 26.8693 340.865 26.9119L341.717 27.1335C341.996 27.2017 342.281 27.294 342.574 27.4105C342.866 27.527 343.138 27.6804 343.388 27.8707C343.638 28.0611 343.839 28.2969 343.993 28.5781C344.149 28.8594 344.227 29.196 344.227 29.5881C344.227 30.0824 344.099 30.5213 343.844 30.9048C343.591 31.2884 343.223 31.5909 342.74 31.8125C342.26 32.0341 341.679 32.1449 340.997 32.1449C340.344 32.1449 339.778 32.0412 339.301 31.8338C338.824 31.6264 338.45 31.3324 338.18 30.9517C337.91 30.5682 337.761 30.1136 337.733 29.5881H339.054C339.079 29.9034 339.182 30.1662 339.361 30.3764C339.542 30.5838 339.774 30.7386 340.055 30.8409C340.339 30.9403 340.65 30.9901 340.988 30.9901C341.361 30.9901 341.692 30.9318 341.981 30.8153C342.274 30.696 342.504 30.5312 342.672 30.321C342.839 30.108 342.923 29.8594 342.923 29.5753C342.923 29.3168 342.849 29.1051 342.702 28.9403C342.557 28.7756 342.359 28.6392 342.109 28.5312C341.862 28.4233 341.582 28.3281 341.27 28.2457L340.238 27.9645C339.54 27.7741 338.986 27.4943 338.577 27.125C338.17 26.7557 337.967 26.267 337.967 25.6591C337.967 25.1562 338.104 24.7173 338.376 24.3423C338.649 23.9673 339.018 23.6761 339.484 23.4688C339.95 23.2585 340.476 23.1534 341.061 23.1534C341.652 23.1534 342.173 23.2571 342.625 23.4645C343.079 23.6719 343.437 23.9574 343.699 24.321C343.96 24.6818 344.096 25.0966 344.108 25.5653H342.838ZM352.731 27.0824V28.1903H348.861V27.0824H352.731ZM357.276 24.4062V23.2727H364.031V24.4062H361.308V32H359.995V24.4062H357.276ZM365.229 32H363.831L366.972 23.2727H368.493L371.634 32H370.236L367.769 24.858H367.701L365.229 32ZM365.464 28.5824H369.998V29.6903H365.464V28.5824ZM378.39 26.0298C378.308 25.7713 378.197 25.5398 378.058 25.3352C377.922 25.1278 377.758 24.9517 377.568 24.8068C377.378 24.6591 377.16 24.5469 376.916 24.4702C376.675 24.3935 376.409 24.3551 376.119 24.3551C375.628 24.3551 375.184 24.4815 374.79 24.7344C374.395 24.9872 374.082 25.358 373.852 25.8466C373.625 26.3324 373.511 26.9276 373.511 27.6321C373.511 28.3395 373.626 28.9375 373.856 29.4261C374.086 29.9148 374.402 30.2855 374.802 30.5384C375.203 30.7912 375.659 30.9176 376.17 30.9176C376.645 30.9176 377.058 30.821 377.41 30.6278C377.765 30.4347 378.04 30.1619 378.233 29.8097C378.429 29.4545 378.527 29.0369 378.527 28.5568L378.868 28.6207H376.371V27.5341H379.801V28.527C379.801 29.2599 379.645 29.8963 379.332 30.4361C379.023 30.973 378.594 31.3878 378.045 31.6804C377.5 31.973 376.875 32.1193 376.17 32.1193C375.381 32.1193 374.687 31.9375 374.091 31.5739C373.497 31.2102 373.034 30.6946 372.702 30.027C372.369 29.3565 372.203 28.5611 372.203 27.6406C372.203 26.9446 372.3 26.3196 372.493 25.7656C372.686 25.2116 372.957 24.7415 373.307 24.3551C373.659 23.9659 374.072 23.669 374.547 23.4645C375.024 23.2571 375.545 23.1534 376.111 23.1534C376.582 23.1534 377.021 23.223 377.427 23.3622C377.836 23.5014 378.2 23.6989 378.518 23.9545C378.839 24.2102 379.105 24.5142 379.315 24.8665C379.525 25.2159 379.667 25.6037 379.741 26.0298H378.39ZM387.085 23.2727H388.406V29.0128C388.406 29.6236 388.262 30.1648 387.975 30.6364C387.688 31.1051 387.285 31.4744 386.765 31.7443C386.245 32.0114 385.636 32.1449 384.937 32.1449C384.241 32.1449 383.633 32.0114 383.113 31.7443C382.593 31.4744 382.19 31.1051 381.903 30.6364C381.616 30.1648 381.472 29.6236 381.472 29.0128V23.2727H382.789V28.9062C382.789 29.3011 382.876 29.652 383.049 29.9588C383.225 30.2656 383.474 30.5071 383.795 30.6832C384.116 30.8565 384.497 30.9432 384.937 30.9432C385.38 30.9432 385.762 30.8565 386.083 30.6832C386.407 30.5071 386.654 30.2656 386.825 29.9588C386.998 29.652 387.085 29.3011 387.085 28.9062V23.2727ZM391.637 23.2727V32H390.32V23.2727H391.637ZM399.461 26.0298C399.378 25.7713 399.268 25.5398 399.128 25.3352C398.992 25.1278 398.829 24.9517 398.638 24.8068C398.448 24.6591 398.231 24.5469 397.986 24.4702C397.745 24.3935 397.479 24.3551 397.189 24.3551C396.698 24.3551 396.255 24.4815 395.86 24.7344C395.465 24.9872 395.153 25.358 394.922 25.8466C394.695 26.3324 394.581 26.9276 394.581 27.6321C394.581 28.3395 394.697 28.9375 394.927 29.4261C395.157 29.9148 395.472 30.2855 395.873 30.5384C396.273 30.7912 396.729 30.9176 397.241 30.9176C397.715 30.9176 398.128 30.821 398.481 30.6278C398.836 30.4347 399.11 30.1619 399.303 29.8097C399.499 29.4545 399.597 29.0369 399.597 28.5568L399.938 28.6207H397.441V27.5341H400.871V28.527C400.871 29.2599 400.715 29.8963 400.403 30.4361C400.093 30.973 399.664 31.3878 399.116 31.6804C398.57 31.973 397.945 32.1193 397.241 32.1193C396.451 32.1193 395.758 31.9375 395.161 31.5739C394.567 31.2102 394.104 30.6946 393.772 30.027C393.439 29.3565 393.273 28.5611 393.273 27.6406C393.273 26.9446 393.37 26.3196 393.563 25.7656C393.756 25.2116 394.028 24.7415 394.377 24.3551C394.729 23.9659 395.143 23.669 395.617 23.4645C396.094 23.2571 396.616 23.1534 397.181 23.1534C397.653 23.1534 398.091 23.223 398.498 23.3622C398.907 23.5014 399.27 23.6989 399.589 23.9545C399.91 24.2102 400.175 24.5142 400.385 24.8665C400.596 25.2159 400.738 25.6037 400.812 26.0298H399.461Z" fill="#C62742"/>
<path d="M112.312 65.6321V41.3636H216.812V65.6321H179.322V165H149.862V65.6321H112.312Z" fill="#C62742"/>
<path d="M345.357 165V41.3636H396.43C405.686 41.3636 413.675 43.1747 420.396 46.7969C427.158 50.3788 432.37 55.3894 436.032 61.8288C439.694 68.228 441.526 75.6735 441.526 84.1655C441.526 92.6977 439.654 100.163 435.911 106.562C432.209 112.921 426.916 117.852 420.034 121.353C413.152 124.854 404.982 126.605 395.524 126.605H364.011V103.061H389.97C394.478 103.061 398.241 102.276 401.259 100.707C404.318 99.1371 406.632 96.9437 408.202 94.1264C409.771 91.2689 410.556 87.9486 410.556 84.1655C410.556 80.3421 409.771 77.0419 408.202 74.2649C406.632 71.4477 404.318 69.2744 401.259 67.745C398.201 66.2157 394.438 65.451 389.97 65.451H375.24V165H345.357Z" fill="#C62742"/>
<path d="M345.357 165V41.3636H396.43C405.686 41.3636 413.675 43.1747 420.396 46.7969C427.158 50.3788 432.37 55.3894 436.032 61.8288C439.694 68.228 441.526 75.6735 441.526 84.1655C441.526 92.6977 439.654 100.163 435.911 106.562C432.209 112.921 426.916 117.852 420.034 121.353C413.152 124.854 404.982 126.605 395.524 126.605H364.011V103.061H389.97C394.478 103.061 398.241 102.276 401.259 100.707C404.318 99.1371 406.632 96.9437 408.202 94.1264C409.771 91.2689 410.556 87.9486 410.556 84.1655C410.556 80.3421 409.771 77.0419 408.202 74.2649C406.632 71.4477 404.318 69.2744 401.259 67.745C398.201 66.2157 394.438 65.451 389.97 65.451H375.24V165H345.357Z" fill="#C62742"/>
</svg>
