<svg width="220" height="74" viewBox="0 0 220 74" fill="none" xmlns="http://www.w3.org/2000/svg">
<path d="M145 24.9746H127.365L120.839 32.375H145V39.8115H115.08L108.554 47.2109H145V60H103V16H145V24.9746Z" fill="#8C0404"/>
<path d="M51.6868 28.446C51.5448 26.8835 50.9127 25.669 49.7905 24.8026C48.6826 23.9219 47.0987 23.4815 45.0391 23.4815C43.6754 23.4815 42.5391 23.6591 41.63 24.0142C40.7209 24.3693 40.0391 24.8594 39.5845 25.4844C39.13 26.0952 38.8956 26.7983 38.8814 27.5938C38.853 28.2472 38.9808 28.8224 39.2649 29.3196C39.5632 29.8168 39.9894 30.2571 40.5433 30.6406C41.1115 31.0099 41.7933 31.3366 42.5888 31.6207C43.3843 31.9048 44.2791 32.1534 45.2735 32.3665L49.0235 33.2188C51.1826 33.6875 53.086 34.3125 54.7337 35.0938C56.3956 35.875 57.7877 36.8054 58.9098 37.8849C60.0462 38.9645 60.9056 40.2074 61.4879 41.6136C62.0703 43.0199 62.3686 44.5966 62.3828 46.3438C62.3686 49.0994 61.6726 51.4645 60.2948 53.4389C58.9169 55.4134 56.9354 56.9261 54.3502 57.9773C51.7791 59.0284 48.6754 59.554 45.0391 59.554C41.3885 59.554 38.2067 59.0071 35.4936 57.9134C32.7806 56.8196 30.6712 55.1577 29.1655 52.9276C27.6598 50.6974 26.8857 47.8778 26.8431 44.4688H36.9425C37.0277 45.875 37.4041 47.0469 38.0718 47.9844C38.7394 48.9219 39.6556 49.6321 40.8203 50.1151C41.9993 50.598 43.3629 50.8395 44.9112 50.8395C46.3317 50.8395 47.5391 50.6477 48.5334 50.2642C49.5419 49.8807 50.3161 49.348 50.8558 48.6662C51.3956 47.9844 51.6726 47.2031 51.6868 46.3224C51.6726 45.4986 51.4169 44.7955 50.9198 44.2131C50.4226 43.6165 49.6556 43.1051 48.6186 42.679C47.5959 42.2386 46.2891 41.8338 44.6982 41.4645L40.1385 40.3991C36.3601 39.5327 33.3843 38.1335 31.211 36.2017C29.0377 34.2557 27.9581 31.6278 27.9723 28.3182C27.9581 25.6193 28.6826 23.2543 30.1456 21.223C31.6087 19.1918 33.6328 17.608 36.2181 16.4716C38.8033 15.3352 41.7507 14.767 45.0604 14.767C48.4411 14.767 51.3743 15.3423 53.8601 16.4929C56.3601 17.6293 58.299 19.2273 59.6769 21.2869C61.0547 23.3466 61.7578 25.733 61.7862 28.446H51.6868Z" fill="#8C0404"/>
<path d="M30.0185 7.83594V7.36364H32.8328V7.83594H31.6982V11H31.1513V7.83594H30.0185ZM33.4547 11V7.36364H35.7345V7.83594H34.0033V8.94389H35.6155V9.41442H34.0033V10.5277H35.7558V11H33.4547ZM39.4876 8.54616H38.9336C38.9123 8.42779 38.8727 8.32363 38.8147 8.23366C38.7567 8.1437 38.6857 8.06735 38.6016 8.00462C38.5176 7.94188 38.4235 7.89453 38.3193 7.86257C38.2163 7.83061 38.1068 7.81463 37.9908 7.81463C37.7813 7.81463 37.5937 7.86731 37.428 7.97266C37.2634 8.07801 37.1332 8.23248 37.0373 8.43608C36.9426 8.63968 36.8953 8.88826 36.8953 9.18182C36.8953 9.47775 36.9426 9.72751 37.0373 9.93111C37.1332 10.1347 37.264 10.2886 37.4297 10.3928C37.5955 10.4969 37.7819 10.549 37.989 10.549C38.1039 10.549 38.2128 10.5336 38.3157 10.5028C38.4199 10.4709 38.514 10.4241 38.5981 10.3626C38.6821 10.301 38.7531 10.2259 38.8111 10.1371C38.8703 10.0471 38.9111 9.94413 38.9336 9.82812L39.4876 9.8299C39.458 10.0086 39.4006 10.1732 39.3154 10.3235C39.2313 10.4727 39.123 10.6017 38.9905 10.7106C38.8591 10.8183 38.7087 10.9018 38.5395 10.9609C38.3702 11.0201 38.1855 11.0497 37.9855 11.0497C37.6706 11.0497 37.3901 10.9751 37.1439 10.826C36.8977 10.6757 36.7035 10.4608 36.5615 10.1815C36.4206 9.90211 36.3502 9.56889 36.3502 9.18182C36.3502 8.79356 36.4212 8.46035 36.5633 8.18217C36.7053 7.90282 36.8994 7.68857 37.1456 7.53942C37.3919 7.38909 37.6718 7.31392 37.9855 7.31392C38.1784 7.31392 38.3584 7.34174 38.5253 7.39737C38.6933 7.45182 38.8443 7.53232 38.978 7.63885C39.1118 7.7442 39.2225 7.87322 39.3101 8.02592C39.3977 8.17744 39.4568 8.35085 39.4876 8.54616ZM40.1441 11V7.36364H40.6928V8.94389H42.5056V7.36364H43.0561V11H42.5056V9.41442H40.6928V11H40.1441ZM46.7901 7.36364V11H46.2858L44.4375 8.3331H44.4037V11H43.8551V7.36364H44.3629L46.213 10.0341H46.2468V7.36364H46.7901ZM50.7492 9.18182C50.7492 9.57008 50.6781 9.90388 50.5361 10.1832C50.394 10.4614 50.1993 10.6757 49.9519 10.826C49.7057 10.9751 49.4258 11.0497 49.1121 11.0497C48.7972 11.0497 48.5161 10.9751 48.2687 10.826C48.0225 10.6757 47.8283 10.4608 47.6863 10.1815C47.5443 9.90211 47.4732 9.56889 47.4732 9.18182C47.4732 8.79356 47.5443 8.46035 47.6863 8.18217C47.8283 7.90282 48.0225 7.68857 48.2687 7.53942C48.5161 7.38909 48.7972 7.31392 49.1121 7.31392C49.4258 7.31392 49.7057 7.38909 49.9519 7.53942C50.1993 7.68857 50.394 7.90282 50.5361 8.18217C50.6781 8.46035 50.7492 8.79356 50.7492 9.18182ZM50.2058 9.18182C50.2058 8.88589 50.1579 8.63672 50.062 8.4343C49.9673 8.23071 49.8371 8.07682 49.6714 7.97266C49.5069 7.86731 49.3204 7.81463 49.1121 7.81463C48.9026 7.81463 48.7155 7.86731 48.551 7.97266C48.3865 8.07682 48.2563 8.23071 48.1604 8.4343C48.0657 8.63672 48.0183 8.88589 48.0183 9.18182C48.0183 9.47775 48.0657 9.72751 48.1604 9.93111C48.2563 10.1335 48.3865 10.2874 48.551 10.3928C48.7155 10.4969 48.9026 10.549 49.1121 10.549C49.3204 10.549 49.5069 10.4969 49.6714 10.3928C49.8371 10.2874 49.9673 10.1335 50.062 9.93111C50.1579 9.72751 50.2058 9.47775 50.2058 9.18182ZM51.4332 11V7.36364H51.9818V10.5277H53.6296V11H51.4332ZM57.2726 9.18182C57.2726 9.57008 57.2016 9.90388 57.0595 10.1832C56.9175 10.4614 56.7228 10.6757 56.4754 10.826C56.2292 10.9751 55.9492 11.0497 55.6355 11.0497C55.3207 11.0497 55.0395 10.9751 54.7921 10.826C54.5459 10.6757 54.3518 10.4608 54.2097 10.1815C54.0677 9.90211 53.9967 9.56889 53.9967 9.18182C53.9967 8.79356 54.0677 8.46035 54.2097 8.18217C54.3518 7.90282 54.5459 7.68857 54.7921 7.53942C55.0395 7.38909 55.3207 7.31392 55.6355 7.31392C55.9492 7.31392 56.2292 7.38909 56.4754 7.53942C56.7228 7.68857 56.9175 7.90282 57.0595 8.18217C57.2016 8.46035 57.2726 8.79356 57.2726 9.18182ZM56.7293 9.18182C56.7293 8.88589 56.6813 8.63672 56.5854 8.4343C56.4908 8.23071 56.3605 8.07682 56.1948 7.97266C56.0303 7.86731 55.8439 7.81463 55.6355 7.81463C55.426 7.81463 55.239 7.86731 55.0744 7.97266C54.9099 8.07682 54.7797 8.23071 54.6838 8.4343C54.5891 8.63672 54.5418 8.88589 54.5418 9.18182C54.5418 9.47775 54.5891 9.72751 54.6838 9.93111C54.7797 10.1335 54.9099 10.2874 55.0744 10.3928C55.239 10.4969 55.426 10.549 55.6355 10.549C55.8439 10.549 56.0303 10.4969 56.1948 10.3928C56.3605 10.2874 56.4908 10.1335 56.5854 9.93111C56.6813 9.72751 56.7293 9.47775 56.7293 9.18182ZM60.4176 8.51243C60.3832 8.40471 60.3371 8.30824 60.2791 8.22301C60.2223 8.1366 60.1542 8.06321 60.0749 8.00284C59.9956 7.94129 59.905 7.89453 59.8032 7.86257C59.7026 7.83061 59.5919 7.81463 59.4712 7.81463C59.2664 7.81463 59.0818 7.86731 58.9172 7.97266C58.7527 8.07801 58.6225 8.23248 58.5266 8.43608C58.4319 8.63849 58.3845 8.88648 58.3845 9.18004C58.3845 9.47479 58.4325 9.72396 58.5284 9.92756C58.6242 10.1312 58.7556 10.2856 58.9225 10.391C59.0894 10.4963 59.2794 10.549 59.4925 10.549C59.6902 10.549 59.8624 10.5088 60.0092 10.4283C60.1572 10.3478 60.2714 10.2341 60.3519 10.0874C60.4335 9.93939 60.4744 9.76539 60.4744 9.56534L60.6164 9.59197H59.5759V9.1392H61.0053V9.55291C61.0053 9.85831 60.9402 10.1235 60.81 10.3484C60.6809 10.5721 60.5022 10.7449 60.2737 10.8668C60.0465 10.9888 59.7861 11.0497 59.4925 11.0497C59.1634 11.0497 58.8746 10.974 58.626 10.8224C58.3786 10.6709 58.1857 10.4561 58.0472 10.1779C57.9087 9.89856 57.8394 9.56712 57.8394 9.18359C57.8394 8.89358 57.8797 8.63317 57.9602 8.40234C58.0407 8.17152 58.1537 7.97562 58.2993 7.81463C58.4461 7.65246 58.6183 7.52876 58.816 7.44354C59.0149 7.35713 59.2321 7.31392 59.4676 7.31392C59.6641 7.31392 59.847 7.34292 60.0163 7.40092C60.1867 7.45893 60.3383 7.54119 60.4708 7.64773C60.6046 7.75426 60.7153 7.88092 60.8029 8.0277C60.8905 8.1733 60.9496 8.33487 60.9804 8.51243H60.4176ZM62.2504 7.36364V11H61.7017V7.36364H62.2504ZM66.0696 8.54616H65.5157C65.4944 8.42779 65.4547 8.32363 65.3967 8.23366C65.3387 8.1437 65.2677 8.06735 65.1836 8.00462C65.0996 7.94188 65.0055 7.89453 64.9013 7.86257C64.7983 7.83061 64.6888 7.81463 64.5728 7.81463C64.3633 7.81463 64.1757 7.86731 64.01 7.97266C63.8455 8.07801 63.7152 8.23248 63.6194 8.43608C63.5247 8.63968 63.4773 8.88826 63.4773 9.18182C63.4773 9.47775 63.5247 9.72751 63.6194 9.93111C63.7152 10.1347 63.846 10.2886 64.0118 10.3928C64.1775 10.4969 64.3639 10.549 64.5711 10.549C64.6859 10.549 64.7948 10.5336 64.8978 10.5028C65.0019 10.4709 65.096 10.4241 65.1801 10.3626C65.2641 10.301 65.3352 10.2259 65.3932 10.1371C65.4523 10.0471 65.4932 9.94413 65.5157 9.82812L66.0696 9.8299C66.0401 10.0086 65.9826 10.1732 65.8974 10.3235C65.8134 10.4727 65.7051 10.6017 65.5725 10.7106C65.4411 10.8183 65.2908 10.9018 65.1215 10.9609C64.9522 11.0201 64.7676 11.0497 64.5675 11.0497C64.2526 11.0497 63.9721 10.9751 63.7259 10.826C63.4797 10.6757 63.2856 10.4608 63.1435 10.1815C63.0026 9.90211 62.9322 9.56889 62.9322 9.18182C62.9322 8.79356 63.0032 8.46035 63.1453 8.18217C63.2873 7.90282 63.4815 7.68857 63.7277 7.53942C63.9739 7.38909 64.2538 7.31392 64.5675 7.31392C64.7605 7.31392 64.9404 7.34174 65.1073 7.39737C65.2754 7.45182 65.4263 7.53232 65.5601 7.63885C65.6938 7.7442 65.8045 7.87322 65.8921 8.02592C65.9797 8.17744 66.0389 8.35085 66.0696 8.54616ZM67.0089 11H66.4265L67.7351 7.36364H68.369L69.6776 11H69.0952L68.0672 8.02415H68.0388L67.0089 11ZM67.1066 9.57599H68.9958V10.0376H67.1066V9.57599ZM70.2027 11V7.36364H70.7514V10.5277H72.3991V11H70.2027ZM76.6867 7.36364H77.2371V9.75533C77.2371 10.0098 77.1773 10.2353 77.0578 10.4318C76.9382 10.6271 76.7701 10.781 76.5535 10.8935C76.3369 11.0047 76.083 11.0604 75.7918 11.0604C75.5018 11.0604 75.2484 11.0047 75.0318 10.8935C74.8152 10.781 74.6471 10.6271 74.5276 10.4318C74.408 10.2353 74.3482 10.0098 74.3482 9.75533V7.36364H74.8969V9.71094C74.8969 9.87547 74.933 10.0217 75.0052 10.1495C75.0786 10.2773 75.1822 10.378 75.3159 10.4513C75.4497 10.5236 75.6083 10.5597 75.7918 10.5597C75.9764 10.5597 76.1356 10.5236 76.2694 10.4513C76.4043 10.378 76.5073 10.2773 76.5783 10.1495C76.6506 10.0217 76.6867 9.87547 76.6867 9.71094V7.36364ZM80.9698 7.36364V11H80.4655L78.6171 8.3331H78.5834V11H78.0348V7.36364H78.5426L80.3927 10.0341H80.4264V7.36364H80.9698ZM82.3188 7.36364V11H81.7701V7.36364H82.3188ZM83.4356 7.36364L84.4477 10.3253H84.4885L85.5006 7.36364H86.0936L84.785 11H84.1511L82.8426 7.36364H83.4356ZM86.6187 11V7.36364H88.8986V7.83594H87.1674V8.94389H88.7796V9.41442H87.1674V10.5277H88.9199V11H86.6187ZM89.6314 11V7.36364H90.9276C91.2093 7.36364 91.4431 7.41217 91.629 7.50923C91.816 7.6063 91.9557 7.74065 92.048 7.91229C92.1403 8.08274 92.1865 8.27983 92.1865 8.50355C92.1865 8.72609 92.1397 8.92199 92.0462 9.09126C91.9539 9.25935 91.8142 9.39015 91.6272 9.48366C91.4413 9.57718 91.2075 9.62393 90.9258 9.62393H89.9439V9.15163H90.8761C91.0537 9.15163 91.1981 9.12618 91.3093 9.07528C91.4218 9.02438 91.5041 8.9504 91.5562 8.85334C91.6082 8.75627 91.6343 8.63968 91.6343 8.50355C91.6343 8.36624 91.6076 8.24728 91.5544 8.14666C91.5023 8.04605 91.42 7.96911 91.3076 7.91584C91.1963 7.86139 91.0501 7.83416 90.869 7.83416H90.1801V11H89.6314ZM91.4265 9.35938L92.325 11H91.7L90.8193 9.35938H91.4265ZM94.8374 8.31889C94.8185 8.1508 94.7403 8.0206 94.603 7.92827C94.4657 7.83475 94.2929 7.788 94.0846 7.788C93.9354 7.788 93.8064 7.81167 93.6975 7.85902C93.5886 7.90518 93.504 7.96911 93.4436 8.05078C93.3844 8.13127 93.3548 8.22301 93.3548 8.32599C93.3548 8.41241 93.3749 8.48698 93.4152 8.54972C93.4566 8.61245 93.5105 8.66513 93.5767 8.70774C93.6442 8.74917 93.7164 8.78409 93.7934 8.8125C93.8703 8.83973 93.9443 8.86222 94.0153 8.87997L94.3704 8.9723C94.4864 9.00071 94.6054 9.03918 94.7273 9.08771C94.8492 9.13625 94.9623 9.20017 95.0665 9.27947C95.1706 9.35878 95.2547 9.45703 95.3186 9.57422C95.3837 9.69141 95.4162 9.83168 95.4162 9.99503C95.4162 10.201 95.363 10.3839 95.2564 10.5437C95.1511 10.7035 94.9978 10.8295 94.7966 10.9219C94.5965 11.0142 94.3544 11.0604 94.0704 11.0604C93.7981 11.0604 93.5625 11.0172 93.3637 10.9308C93.1648 10.8443 93.0092 10.7218 92.8967 10.5632C92.7843 10.4034 92.7221 10.214 92.7103 9.99503H93.2607C93.2714 10.1264 93.314 10.2359 93.3885 10.3235C93.4643 10.4099 93.5608 10.4744 93.678 10.517C93.7963 10.5585 93.9259 10.5792 94.0668 10.5792C94.2219 10.5792 94.3598 10.5549 94.4805 10.5064C94.6024 10.4567 94.6983 10.388 94.7682 10.3004C94.838 10.2116 94.8729 10.1081 94.8729 9.9897C94.8729 9.88198 94.8421 9.7938 94.7806 9.72514C94.7202 9.65649 94.6379 9.59967 94.5338 9.55469C94.4308 9.50971 94.3142 9.47005 94.184 9.43572L93.7543 9.31854C93.4631 9.23923 93.2323 9.12263 93.0618 8.96875C92.8926 8.81487 92.8079 8.61127 92.8079 8.35795C92.8079 8.14844 92.8647 7.96555 92.9784 7.8093C93.092 7.65305 93.2459 7.53172 93.44 7.44531C93.6342 7.35772 93.8531 7.31392 94.097 7.31392C94.3432 7.31392 94.5604 7.35713 94.7486 7.44354C94.938 7.52995 95.0872 7.64891 95.1961 7.80043C95.305 7.95076 95.3618 8.12358 95.3665 8.31889H94.8374ZM96.6205 7.36364V11H96.0719V7.36364H96.6205ZM97.2402 7.83594V7.36364H100.054V7.83594H98.9199V11H98.373V7.83594H97.2402ZM100.396 7.36364H101.019L101.969 9.01669H102.008L102.958 7.36364H103.581L102.262 9.57244V11H101.715V9.57244L100.396 7.36364ZM108.581 9.18182C108.581 9.57008 108.51 9.90388 108.368 10.1832C108.226 10.4614 108.031 10.6757 107.784 10.826C107.538 10.9751 107.258 11.0497 106.944 11.0497C106.629 11.0497 106.348 10.9751 106.101 10.826C105.855 10.6757 105.66 10.4608 105.518 10.1815C105.376 9.90211 105.305 9.56889 105.305 9.18182C105.305 8.79356 105.376 8.46035 105.518 8.18217C105.66 7.90282 105.855 7.68857 106.101 7.53942C106.348 7.38909 106.629 7.31392 106.944 7.31392C107.258 7.31392 107.538 7.38909 107.784 7.53942C108.031 7.68857 108.226 7.90282 108.368 8.18217C108.51 8.46035 108.581 8.79356 108.581 9.18182ZM108.038 9.18182C108.038 8.88589 107.99 8.63672 107.894 8.4343C107.799 8.23071 107.669 8.07682 107.503 7.97266C107.339 7.86731 107.152 7.81463 106.944 7.81463C106.735 7.81463 106.548 7.86731 106.383 7.97266C106.218 8.07682 106.088 8.23071 105.992 8.4343C105.898 8.63672 105.85 8.88589 105.85 9.18182C105.85 9.47775 105.898 9.72751 105.992 9.93111C106.088 10.1335 106.218 10.2874 106.383 10.3928C106.548 10.4969 106.735 10.549 106.944 10.549C107.152 10.549 107.339 10.4969 107.503 10.3928C107.669 10.2874 107.799 10.1335 107.894 9.93111C107.99 9.72751 108.038 9.47775 108.038 9.18182ZM109.265 11V7.36364H111.52V7.83594H109.814V8.94389H111.359V9.41442H109.814V11H109.265ZM113.339 7.83594V7.36364H116.153V7.83594H115.019V11H114.472V7.83594H113.339ZM116.775 11V7.36364H117.324V8.94389H119.136V7.36364H119.687V11H119.136V9.41442H117.324V11H116.775ZM120.486 11V7.36364H122.766V7.83594H121.035V8.94389H122.647V9.41442H121.035V10.5277H122.787V11H120.486ZM124.822 11V7.36364H126.118C126.401 7.36364 126.635 7.41513 126.821 7.51811C127.007 7.62109 127.146 7.76196 127.238 7.9407C127.331 8.11825 127.377 8.3183 127.377 8.54084C127.377 8.76456 127.33 8.96579 127.237 9.14453C127.144 9.32209 127.005 9.46295 126.818 9.56712C126.632 9.6701 126.398 9.72159 126.116 9.72159H125.225V9.25639H126.067C126.245 9.25639 126.39 9.22562 126.502 9.16406C126.613 9.10133 126.694 9.0161 126.747 8.90838C126.799 8.80066 126.825 8.67815 126.825 8.54084C126.825 8.40353 126.799 8.28161 126.747 8.17507C126.694 8.06854 126.612 7.98509 126.5 7.92472C126.389 7.86435 126.242 7.83416 126.059 7.83416H125.371V11H124.822ZM128.02 11V7.36364H128.569V8.94389H130.382V7.36364H130.932V11H130.382V9.41442H128.569V11H128.02ZM132.28 7.36364V11H131.731V7.36364H132.28ZM133.079 11V7.36364H133.627V10.5277H135.275V11H133.079ZM136.45 7.36364V11H135.901V7.36364H136.45ZM137.249 11V7.36364H138.545C138.828 7.36364 139.062 7.41513 139.248 7.51811C139.434 7.62109 139.573 7.76196 139.665 7.9407C139.758 8.11825 139.804 8.3183 139.804 8.54084C139.804 8.76456 139.757 8.96579 139.663 9.14453C139.571 9.32209 139.431 9.46295 139.244 9.56712C139.059 9.6701 138.825 9.72159 138.543 9.72159H137.652V9.25639H138.493C138.672 9.25639 138.817 9.22562 138.928 9.16406C139.04 9.10133 139.121 9.0161 139.173 8.90838C139.225 8.80066 139.251 8.67815 139.251 8.54084C139.251 8.40353 139.225 8.28161 139.173 8.17507C139.121 8.06854 139.039 7.98509 138.927 7.92472C138.815 7.86435 138.668 7.83416 138.486 7.83416H137.797V11H137.249ZM140.447 11V7.36364H141.743C142.026 7.36364 142.26 7.41513 142.446 7.51811C142.632 7.62109 142.771 7.76196 142.863 7.9407C142.956 8.11825 143.002 8.3183 143.002 8.54084C143.002 8.76456 142.955 8.96579 142.862 9.14453C142.769 9.32209 142.63 9.46295 142.443 9.56712C142.257 9.6701 142.023 9.72159 141.741 9.72159H140.85V9.25639H141.692C141.87 9.25639 142.015 9.22562 142.127 9.16406C142.238 9.10133 142.319 9.0161 142.372 8.90838C142.424 8.80066 142.45 8.67815 142.45 8.54084C142.45 8.40353 142.424 8.28161 142.372 8.17507C142.319 8.06854 142.237 7.98509 142.125 7.92472C142.014 7.86435 141.867 7.83416 141.684 7.83416H140.996V11H140.447ZM144.194 7.36364V11H143.645V7.36364H144.194ZM147.928 7.36364V11H147.424L145.575 8.3331H145.541V11H144.993V7.36364H145.501L147.351 10.0341H147.384V7.36364H147.928ZM148.728 11V7.36364H151.008V7.83594H149.277V8.94389H150.889V9.41442H149.277V10.5277H151.029V11H148.728ZM153.724 8.31889C153.705 8.1508 153.627 8.0206 153.49 7.92827C153.352 7.83475 153.18 7.788 152.971 7.788C152.822 7.788 152.693 7.81167 152.584 7.85902C152.475 7.90518 152.391 7.96911 152.33 8.05078C152.271 8.13127 152.242 8.22301 152.242 8.32599C152.242 8.41241 152.262 8.48698 152.302 8.54972C152.343 8.61245 152.397 8.66513 152.463 8.70774C152.531 8.74917 152.603 8.78409 152.68 8.8125C152.757 8.83973 152.831 8.86222 152.902 8.87997L153.257 8.9723C153.373 9.00071 153.492 9.03918 153.614 9.08771C153.736 9.13625 153.849 9.20017 153.953 9.27947C154.057 9.35878 154.141 9.45703 154.205 9.57422C154.27 9.69141 154.303 9.83168 154.303 9.99503C154.303 10.201 154.25 10.3839 154.143 10.5437C154.038 10.7035 153.885 10.8295 153.683 10.9219C153.483 11.0142 153.241 11.0604 152.957 11.0604C152.685 11.0604 152.449 11.0172 152.25 10.9308C152.052 10.8443 151.896 10.7218 151.783 10.5632C151.671 10.4034 151.609 10.214 151.597 9.99503H152.147C152.158 10.1264 152.201 10.2359 152.275 10.3235C152.351 10.4099 152.447 10.4744 152.565 10.517C152.683 10.5585 152.813 10.5792 152.954 10.5792C153.109 10.5792 153.246 10.5549 153.367 10.5064C153.489 10.4567 153.585 10.388 153.655 10.3004C153.725 10.2116 153.76 10.1081 153.76 9.9897C153.76 9.88198 153.729 9.7938 153.667 9.72514C153.607 9.65649 153.525 9.59967 153.42 9.55469C153.318 9.50971 153.201 9.47005 153.071 9.43572L152.641 9.31854C152.35 9.23923 152.119 9.12263 151.949 8.96875C151.779 8.81487 151.695 8.61127 151.695 8.35795C151.695 8.14844 151.751 7.96555 151.865 7.8093C151.979 7.65305 152.133 7.53172 152.327 7.44531C152.521 7.35772 152.74 7.31392 152.984 7.31392C153.23 7.31392 153.447 7.35713 153.635 7.44354C153.825 7.52995 153.974 7.64891 154.083 7.80043C154.192 7.95076 154.249 8.12358 154.253 8.31889H153.724ZM157.846 8.95099V9.41264H156.234V8.95099H157.846ZM159.74 7.83594V7.36364H162.554V7.83594H161.42V11H160.873V7.83594H159.74ZM163.054 11H162.471L163.78 7.36364H164.414L165.723 11H165.14L164.112 8.02415H164.084L163.054 11ZM163.152 9.57599H165.041V10.0376H163.152V9.57599ZM168.538 8.51243C168.503 8.40471 168.457 8.30824 168.399 8.22301C168.342 8.1366 168.274 8.06321 168.195 8.00284C168.116 7.94129 168.025 7.89453 167.923 7.86257C167.823 7.83061 167.712 7.81463 167.591 7.81463C167.387 7.81463 167.202 7.86731 167.037 7.97266C166.873 8.07801 166.743 8.23248 166.647 8.43608C166.552 8.63849 166.505 8.88648 166.505 9.18004C166.505 9.47479 166.553 9.72396 166.648 9.92756C166.744 10.1312 166.876 10.2856 167.043 10.391C167.21 10.4963 167.4 10.549 167.613 10.549C167.81 10.549 167.983 10.5088 168.129 10.4283C168.277 10.3478 168.391 10.2341 168.472 10.0874C168.554 9.93939 168.595 9.76539 168.595 9.56534L168.737 9.59197H167.696V9.1392H169.125V9.55291C169.125 9.85831 169.06 10.1235 168.93 10.3484C168.801 10.5721 168.622 10.7449 168.394 10.8668C168.167 10.9888 167.906 11.0497 167.613 11.0497C167.284 11.0497 166.995 10.974 166.746 10.8224C166.499 10.6709 166.306 10.4561 166.167 10.1779C166.029 9.89856 165.96 9.56712 165.96 9.18359C165.96 8.89358 166 8.63317 166.08 8.40234C166.161 8.17152 166.274 7.97562 166.419 7.81463C166.566 7.65246 166.738 7.52876 166.936 7.44354C167.135 7.35713 167.352 7.31392 167.588 7.31392C167.784 7.31392 167.967 7.34292 168.136 7.40092C168.307 7.45893 168.458 7.54119 168.591 7.64773C168.725 7.75426 168.835 7.88092 168.923 8.0277C169.011 8.1733 169.07 8.33487 169.101 8.51243H168.538ZM172.16 7.36364H172.711V9.75533C172.711 10.0098 172.651 10.2353 172.531 10.4318C172.412 10.6271 172.244 10.781 172.027 10.8935C171.811 11.0047 171.557 11.0604 171.265 11.0604C170.975 11.0604 170.722 11.0047 170.505 10.8935C170.289 10.781 170.121 10.6271 170.001 10.4318C169.882 10.2353 169.822 10.0098 169.822 9.75533V7.36364H170.371V9.71094C170.371 9.87547 170.407 10.0217 170.479 10.1495C170.552 10.2773 170.656 10.378 170.79 10.4513C170.923 10.5236 171.082 10.5597 171.265 10.5597C171.45 10.5597 171.609 10.5236 171.743 10.4513C171.878 10.378 171.981 10.2773 172.052 10.1495C172.124 10.0217 172.16 9.87547 172.16 9.71094V7.36364ZM174.057 7.36364V11H173.508V7.36364H174.057ZM177.317 8.51243C177.283 8.40471 177.236 8.30824 177.178 8.22301C177.122 8.1366 177.054 8.06321 176.974 8.00284C176.895 7.94129 176.804 7.89453 176.703 7.86257C176.602 7.83061 176.491 7.81463 176.371 7.81463C176.166 7.81463 175.981 7.86731 175.817 7.97266C175.652 8.07801 175.522 8.23248 175.426 8.43608C175.331 8.63849 175.284 8.88648 175.284 9.18004C175.284 9.47479 175.332 9.72396 175.428 9.92756C175.524 10.1312 175.655 10.2856 175.822 10.391C175.989 10.4963 176.179 10.549 176.392 10.549C176.59 10.549 176.762 10.5088 176.909 10.4283C177.057 10.3478 177.171 10.2341 177.251 10.0874C177.333 9.93939 177.374 9.76539 177.374 9.56534L177.516 9.59197H176.475V9.1392H177.905V9.55291C177.905 9.85831 177.84 10.1235 177.709 10.3484C177.58 10.5721 177.402 10.7449 177.173 10.8668C176.946 10.9888 176.685 11.0497 176.392 11.0497C176.063 11.0497 175.774 10.974 175.525 10.8224C175.278 10.6709 175.085 10.4561 174.947 10.1779C174.808 9.89856 174.739 9.56712 174.739 9.18359C174.739 8.89358 174.779 8.63317 174.86 8.40234C174.94 8.17152 175.053 7.97562 175.199 7.81463C175.346 7.65246 175.518 7.52876 175.715 7.44354C175.914 7.35713 176.131 7.31392 176.367 7.31392C176.564 7.31392 176.746 7.34292 176.916 7.40092C177.086 7.45893 177.238 7.54119 177.37 7.64773C177.504 7.75426 177.615 7.88092 177.702 8.0277C177.79 8.1733 177.849 8.33487 177.88 8.51243H177.317Z" fill="#8C0404"/>
<path d="M63.875 24.929V16.3636H100.757V24.929H87.5256V60H77.1278V24.929H63.875Z" fill="#8C0404"/>
<path d="M148.303 60V16.3636H166.328C169.595 16.3636 172.415 17.0028 174.787 18.2812C177.173 19.5455 179.013 21.3139 180.305 23.5866C181.598 25.8452 182.244 28.473 182.244 31.4702C182.244 34.4815 181.584 37.1165 180.263 39.375C178.956 41.6193 177.088 43.3594 174.659 44.5952C172.23 45.831 169.347 46.4489 166.009 46.4489H154.886V38.1392H164.048C165.639 38.1392 166.967 37.8622 168.033 37.3082C169.112 36.7543 169.929 35.9801 170.483 34.9858C171.037 33.9773 171.314 32.8054 171.314 31.4702C171.314 30.1207 171.037 28.956 170.483 27.9759C169.929 26.9815 169.112 26.2145 168.033 25.6747C166.953 25.1349 165.625 24.8651 164.048 24.8651H158.849V60H148.303Z" fill="#8C0404"/>
</svg>
