<svg width="55" height="53" viewBox="0 0 55 53" fill="none" xmlns="http://www.w3.org/2000/svg">
<ellipse cx="27.5" cy="26.5" rx="27.5" ry="26.5" fill="#8C0404"/>
<g clip-path="url(#clip0_2035_4895)">
<path fill-rule="evenodd" clip-rule="evenodd" d="M17 16L18.5 14.5L23.1215 17.8C23.3161 17.9389 23.4747 18.1224 23.584 18.335C23.6934 18.5477 23.7503 18.7834 23.75 19.0225V19.1275C23.7498 19.3247 23.7886 19.52 23.864 19.7023C23.9394 19.8845 24.05 20.0501 24.1895 20.1895L32.75 28.75L34.121 28.2925C34.3853 28.2046 34.6688 28.192 34.9398 28.2561C35.2108 28.3202 35.4586 28.4585 35.6555 28.6555L40.6895 33.6895C40.9707 33.9708 41.1287 34.3523 41.1287 34.75C41.1287 35.1477 40.9707 35.5292 40.6895 35.8105L38.3105 38.1895C38.0292 38.4707 37.6477 38.6287 37.25 38.6287C36.8523 38.6287 36.4708 38.4707 36.1895 38.1895L31.1555 33.1555C30.9585 32.9586 30.8202 32.7108 30.7561 32.4398C30.692 32.1688 30.7046 31.8853 30.7925 31.621L31.25 30.25L22.6895 21.6895C22.4083 21.4082 22.0268 21.2501 21.629 21.25H21.5225C21.2836 21.25 21.0482 21.193 20.8359 21.0837C20.6235 20.9744 20.4403 20.8159 20.3015 20.6215L17 16ZM34.031 30.469C33.8902 30.3282 33.6992 30.2491 33.5 30.2491C33.3008 30.2491 33.1098 30.3282 32.969 30.469C32.8282 30.6098 32.7491 30.8008 32.7491 31C32.7491 31.1992 32.8282 31.3902 32.969 31.531L37.469 36.031C37.6098 36.1718 37.8008 36.2509 38 36.2509C38.1992 36.2509 38.3902 36.1718 38.531 36.031C38.6718 35.8902 38.7509 35.6992 38.7509 35.5C38.7509 35.3008 38.6718 35.1098 38.531 34.969L34.031 30.469Z" fill="white"/>
<path fill-rule="evenodd" clip-rule="evenodd" d="M40.8456 17.8347C41.0491 18.5982 41.0481 19.4019 40.8428 20.1649C40.6375 20.928 40.2351 21.6236 39.676 22.182C39.1169 22.7404 38.4207 23.1419 37.6573 23.3461C36.894 23.5504 36.0904 23.5502 35.3271 23.3457L25.8156 32.7252C26.0991 33.6846 26.0547 34.7111 25.6896 35.6426C25.3245 36.574 24.6594 37.3572 23.7995 37.8684C22.9395 38.3796 21.9338 38.5897 20.9411 38.4654C19.9484 38.3411 19.0254 37.8896 18.318 37.1822C17.6106 36.4748 17.1591 35.5519 17.0349 34.5592C16.9106 33.5665 17.1207 32.5607 17.6319 31.7008C18.1431 30.8408 18.9263 30.1758 19.8577 29.8106C20.7891 29.4455 21.8157 29.4012 22.7751 29.6847L32.1531 20.1732C31.946 19.4093 31.944 18.6043 32.1473 17.8394C32.3507 17.0746 32.7522 16.3768 33.3113 15.8167C33.8704 15.2565 34.5673 14.8537 35.3318 14.6489C36.0963 14.4441 36.9013 14.4445 37.6656 14.6502L34.4526 17.8632L34.9986 20.5002L37.6341 21.0462L40.8456 17.8347ZM20.7906 31.3632L21.5001 31.0002L22.2066 31.3632L23.0001 31.4022L23.4306 32.0697L24.0981 32.5002L24.1371 33.2937L24.4986 34.0002L24.1356 34.7067L24.0966 35.5002L23.4291 35.9307L22.9986 36.5982L22.2051 36.6372L21.4986 37.0002L20.7921 36.6372L19.9986 36.5982L19.5681 35.9307L18.9006 35.5002L18.8616 34.7067L18.4986 34.0002L18.8616 33.2937L18.9006 32.5002L19.5681 32.0697L19.9986 31.4022L20.7921 31.3632H20.7906Z" fill="white"/>
</g>
<defs>
<clipPath id="clip0_2035_4895">
<rect width="24" height="24" fill="white" transform="translate(17 14.5)"/>
</clipPath>
</defs>
</svg>
