<svg width="55" height="53" viewBox="0 0 55 53" fill="none" xmlns="http://www.w3.org/2000/svg">
<ellipse cx="27.5" cy="26.5" rx="27.5" ry="26.5" fill="#8C0404"/>
<g clip-path="url(#clip0_1813_4824)">
<path fill-rule="evenodd" clip-rule="evenodd" d="M38.9126 12.6343C39.0348 12.7127 39.1357 12.8222 39.2057 12.9524C39.2757 13.0825 39.3124 13.2291 39.3125 13.3781V39.6281C39.3125 39.8602 39.2236 40.0827 39.0654 40.2468C38.9071 40.4109 38.6925 40.5031 38.4688 40.5031H33.4062C33.1825 40.5031 32.9679 40.4109 32.8096 40.2468C32.6514 40.0827 32.5625 39.8602 32.5625 39.6281V37.0031H30.875V39.6281C30.875 39.8602 30.7861 40.0827 30.6279 40.2468C30.4696 40.4109 30.255 40.5031 30.0312 40.5031H14.8438C14.62 40.5031 14.4054 40.4109 14.2471 40.2468C14.0889 40.0827 14 39.8602 14 39.6281V30.0031C14.0001 29.8195 14.0559 29.6406 14.1595 29.4918C14.2631 29.3429 14.4092 29.2316 14.5771 29.1736L24.125 25.8731V20.3781C24.125 20.2157 24.1686 20.0566 24.2508 19.9184C24.3331 19.7803 24.4508 19.6686 24.5907 19.5958L38.0907 12.5958C38.2195 12.529 38.3626 12.4974 38.5065 12.5042C38.6503 12.5109 38.7901 12.5557 38.9126 12.6343ZM24.125 27.7176L15.6875 30.6331V38.7531H24.125V27.7176ZM25.8125 38.7531H29.1875V36.1281C29.1875 35.896 29.2764 35.6735 29.4346 35.5094C29.5929 35.3453 29.8075 35.2531 30.0312 35.2531H33.4062C33.63 35.2531 33.8446 35.3453 34.0029 35.5094C34.1611 35.6735 34.25 35.896 34.25 36.1281V38.7531H37.625V14.7938L25.8125 20.9188V38.7531Z" fill="white"/>
<path d="M17.375 31.75H19.0625V33.5H17.375V31.75ZM20.75 31.75H22.4375V33.5H20.75V31.75ZM17.375 35.25H19.0625V37H17.375V35.25ZM20.75 35.25H22.4375V37H20.75V35.25ZM27.5 28.25H29.1875V30H27.5V28.25ZM30.875 28.25H32.5625V30H30.875V28.25ZM27.5 31.75H29.1875V33.5H27.5V31.75ZM30.875 31.75H32.5625V33.5H30.875V31.75ZM34.25 28.25H35.9375V30H34.25V28.25ZM34.25 31.75H35.9375V33.5H34.25V31.75ZM27.5 24.75H29.1875V26.5H27.5V24.75ZM30.875 24.75H32.5625V26.5H30.875V24.75ZM34.25 24.75H35.9375V26.5H34.25V24.75ZM27.5 21.25H29.1875V23H27.5V21.25ZM30.875 21.25H32.5625V23H30.875V21.25ZM34.25 21.25H35.9375V23H34.25V21.25ZM34.25 17.75H35.9375V19.5H34.25V17.75Z" fill="white"/>
</g>
<defs>
<clipPath id="clip0_1813_4824">
<rect width="27" height="28" fill="white" transform="translate(14 12.5)"/>
</clipPath>
</defs>
</svg>
